M48
; DRILL file {KiCad 9.0.7} date 2026-03-12T09:12:53+0100
; FORMAT={-:-/ absolute / metric / decimal}
; #@! TF.CreationDate,2026-03-12T09:12:53+01:00
; #@! TF.GenerationSoftware,Kicad,Pcbnew,9.0.7
; #@! TF.FileFunction,Plated,1,2,PTH
FMAT,2
METRIC
; #@! TA.AperFunction,Plated,PTH,ComponentDrill
T1C0.600
; #@! TA.AperFunction,Plated,PTH,ComponentDrill
T2C0.800
; #@! TA.AperFunction,Plated,PTH,ComponentDrill
T3C0.900
; #@! TA.AperFunction,Plated,PTH,ComponentDrill
T4C0.950
; #@! TA.AperFunction,Plated,PTH,ComponentDrill
T5C1.000
; #@! TA.AperFunction,Plated,PTH,ComponentDrill
T6C1.300
; #@! TA.AperFunction,Plated,PTH,ComponentDrill
T7C2.300
%
G90
G05
T1
X131.837Y-95.493
X131.837Y-98.033
X131.837Y-100.573
X131.837Y-103.113
X131.837Y-105.653
X131.837Y-108.193
T2
X59.89Y-103.27
X59.89Y-110.89
X59.905Y-141.675
X60.14Y-134.475
X67.525Y-141.675
X67.76Y-134.475
X70.15Y-141.65
X70.2Y-134.575
X70.2Y-137.95
X70.875Y-101.7
X72.56Y-96.5
X72.875Y-108.45
X73.375Y-101.7
X77.275Y-101.7
X77.44Y-96.5
X77.77Y-141.65
X77.82Y-134.575
X77.82Y-137.95
X77.875Y-108.45
X79.775Y-101.7
T3
X65.65Y-107.46
X65.65Y-110.0
T4
X136.963Y-112.765
X136.963Y-115.265
X138.963Y-112.765
X138.963Y-115.265
T5
X65.63Y-125.7
X65.64Y-118.08
X68.17Y-125.7
X68.18Y-118.08
X70.71Y-125.7
X70.72Y-118.08
X73.25Y-125.7
X73.26Y-118.08
X75.79Y-125.7
X75.8Y-118.08
X78.33Y-125.7
X78.34Y-118.08
X80.87Y-125.7
X80.88Y-118.08
X83.41Y-125.7
X83.42Y-118.08
X85.95Y-125.7
X85.96Y-118.08
X88.49Y-125.7
X88.5Y-118.08
X91.03Y-125.7
X91.04Y-118.08
X92.675Y-135.2
X92.675Y-137.7
X92.675Y-140.2
X92.675Y-142.7
X92.675Y-145.2
X92.675Y-147.7
X93.57Y-125.7
X93.58Y-118.08
X96.11Y-125.7
X96.12Y-118.08
X98.65Y-125.7
X98.66Y-118.08
X102.675Y-135.2
X102.675Y-137.7
X102.675Y-140.2
X102.675Y-142.7
X102.675Y-145.2
X102.675Y-147.7
X115.354Y-131.225
X115.354Y-146.465
X117.894Y-131.225
X117.894Y-146.465
X120.434Y-131.225
X120.434Y-146.465
X122.974Y-131.225
X122.974Y-146.465
X125.514Y-131.225
X125.514Y-146.465
X128.054Y-131.225
X128.054Y-146.465
X130.594Y-131.225
X130.594Y-146.465
X133.134Y-131.225
X133.134Y-146.465
X135.674Y-146.465
T6
X74.97Y-149.202
X79.97Y-149.202
X86.125Y-98.547
X91.125Y-98.547
X146.702Y-132.375
X146.702Y-137.375
T7
X141.822Y-108.015
X141.822Y-120.015
M30
