%TF.GenerationSoftware,KiCad,Pcbnew,9.0.7*%
%TF.CreationDate,2026-03-12T09:12:10+01:00*%
%TF.ProjectId,Project,50726f6a-6563-4742-9e6b-696361645f70,rev?*%
%TF.SameCoordinates,Original*%
%TF.FileFunction,Copper,L1,Top*%
%TF.FilePolarity,Positive*%
%FSLAX46Y46*%
G04 Gerber Fmt 4.6, Leading zero omitted, Abs format (unit mm)*
G04 Created by KiCad (PCBNEW 9.0.7) date 2026-03-12 09:12:10*
%MOMM*%
%LPD*%
G01*
G04 APERTURE LIST*
G04 Aperture macros list*
%AMRoundRect*
0 Rectangle with rounded corners*
0 $1 Rounding radius*
0 $2 $3 $4 $5 $6 $7 $8 $9 X,Y pos of 4 corners*
0 Add a 4 corners polygon primitive as box body*
4,1,4,$2,$3,$4,$5,$6,$7,$8,$9,$2,$3,0*
0 Add four circle primitives for the rounded corners*
1,1,$1+$1,$2,$3*
1,1,$1+$1,$4,$5*
1,1,$1+$1,$6,$7*
1,1,$1+$1,$8,$9*
0 Add four rect primitives between the rounded corners*
20,1,$1+$1,$2,$3,$4,$5,0*
20,1,$1+$1,$4,$5,$6,$7,0*
20,1,$1+$1,$6,$7,$8,$9,0*
20,1,$1+$1,$8,$9,$2,$3,0*%
G04 Aperture macros list end*
%TA.AperFunction,ComponentPad*%
%ADD10C,1.600000*%
%TD*%
%TA.AperFunction,ComponentPad*%
%ADD11R,1.800000X1.800000*%
%TD*%
%TA.AperFunction,ComponentPad*%
%ADD12C,1.800000*%
%TD*%
%TA.AperFunction,ComponentPad*%
%ADD13R,1.600000X1.600000*%
%TD*%
%TA.AperFunction,ComponentPad*%
%ADD14C,4.000000*%
%TD*%
%TA.AperFunction,ComponentPad*%
%ADD15C,1.500000*%
%TD*%
%TA.AperFunction,ComponentPad*%
%ADD16RoundRect,0.250000X-1.050000X-1.050000X1.050000X-1.050000X1.050000X1.050000X-1.050000X1.050000X0*%
%TD*%
%TA.AperFunction,ComponentPad*%
%ADD17C,2.600000*%
%TD*%
%TA.AperFunction,ComponentPad*%
%ADD18RoundRect,0.250000X-1.050000X1.050000X-1.050000X-1.050000X1.050000X-1.050000X1.050000X1.050000X0*%
%TD*%
%TA.AperFunction,WasherPad*%
%ADD19RoundRect,0.190500X0.762000X0.444500X-0.762000X0.444500X-0.762000X-0.444500X0.762000X-0.444500X0*%
%TD*%
%TA.AperFunction,ComponentPad*%
%ADD20RoundRect,0.250000X1.050000X1.050000X-1.050000X1.050000X-1.050000X-1.050000X1.050000X-1.050000X0*%
%TD*%
%TA.AperFunction,ComponentPad*%
%ADD21R,1.440000X2.000000*%
%TD*%
%TA.AperFunction,ComponentPad*%
%ADD22O,1.440000X2.000000*%
%TD*%
%TA.AperFunction,ComponentPad*%
%ADD23O,2.794000X1.397000*%
%TD*%
%TA.AperFunction,Conductor*%
%ADD24C,0.200000*%
%TD*%
G04 APERTURE END LIST*
D10*
%TO.P,U5,1,LV4*%
%TO.N,unconnected-(U5-LV4-Pad1)*%
X92675000Y-147700000D03*
%TO.P,U5,2,LV3*%
%TO.N,unconnected-(U5-LV3-Pad2)*%
X92675000Y-145200000D03*
%TO.P,U5,3,GND*%
%TO.N,GND*%
X92675000Y-142700000D03*
%TO.P,U5,4,LV*%
%TO.N,/3\u002C3 V*%
X92675000Y-140200000D03*
%TO.P,U5,5,LV2*%
%TO.N,/RXD*%
X92675000Y-137700000D03*
%TO.P,U5,6,LV1*%
%TO.N,/TXD*%
X92675000Y-135200000D03*
%TO.P,U5,7,HV4*%
%TO.N,unconnected-(U5-HV4-Pad7)*%
X102675000Y-147700000D03*
%TO.P,U5,8,HV3*%
%TO.N,unconnected-(U5-HV3-Pad8)*%
X102675000Y-145200000D03*
%TO.P,U5,9,GND*%
%TO.N,GND*%
X102675000Y-142700000D03*
%TO.P,U5,10,HV*%
%TO.N,+5V*%
X102675000Y-140200000D03*
%TO.P,U5,11,HV2*%
%TO.N,TX*%
X102675000Y-137700000D03*
%TO.P,U5,12,HV1*%
%TO.N,RX*%
X102675000Y-135200000D03*
%TD*%
%TO.P,R6,1*%
%TO.N,+5V*%
X59890000Y-110890000D03*
%TO.P,R6,2*%
%TO.N,Net-(led1-A)*%
X59890000Y-103270000D03*
%TD*%
D11*
%TO.P,led1,1,K*%
%TO.N,GND*%
X65650000Y-110000000D03*
D12*
%TO.P,led1,2,A*%
%TO.N,Net-(led1-A)*%
X65650000Y-107460000D03*
%TD*%
D10*
%TO.P,U3,1,Vm*%
%TO.N,unconnected-(U3-Vm-Pad1)*%
X115354060Y-146465400D03*
%TO.P,U3,2,Gnd*%
%TO.N,unconnected-(U3-Gnd-Pad2)*%
X117894060Y-146465400D03*
%TO.P,U3,3,Err*%
%TO.N,unconnected-(U3-Err-Pad3)*%
X120434060Y-146465400D03*
%TO.P,U3,4,Reset*%
%TO.N,unconnected-(U3-Reset-Pad4)*%
X122974060Y-146465400D03*
%TO.P,U3,5,SCL*%
%TO.N,SCL*%
X125514060Y-146465400D03*
%TO.P,U3,6,SDA*%
%TO.N,SDA*%
X128054060Y-146465400D03*
%TO.P,U3,7,Vdd*%
%TO.N,+5V*%
X130594060Y-146465400D03*
%TO.P,U3,8,Gnd*%
%TO.N,GND*%
X133134060Y-146465400D03*
%TO.P,U3,9,Jmp1*%
%TO.N,unconnected-(U3-Jmp1-Pad9)*%
X135674060Y-146465400D03*
%TO.P,U3,10,Vin*%
%TO.N,+5V*%
X115354060Y-131225400D03*
%TO.P,U3,11,Gnd*%
%TO.N,GND*%
X117894060Y-131225400D03*
%TO.P,U3,12,M1a*%
%TO.N,/M1a*%
X120434060Y-131225400D03*
%TO.P,U3,13,M1b*%
%TO.N,/M1b*%
X122974060Y-131225400D03*
%TO.P,U3,14,M2a*%
%TO.N,/M2a*%
X125514060Y-131225400D03*
%TO.P,U3,15,M2b*%
%TO.N,/M2b*%
X128054060Y-131225400D03*
%TO.P,U3,16,M3a*%
%TO.N,/M3a*%
X130594060Y-131225400D03*
%TO.P,U3,17,M3b*%
%TO.N,/M3b*%
X133134060Y-131225400D03*
%TD*%
D13*
%TO.P,J5,1,VBUS*%
%TO.N,+5V*%
X136962500Y-112765000D03*
D10*
%TO.P,J5,2,D-*%
%TO.N,unconnected-(J5-D--Pad2)*%
X136962500Y-115265000D03*
%TO.P,J5,3,D+*%
%TO.N,unconnected-(J5-D+-Pad3)*%
X138962500Y-115265000D03*
%TO.P,J5,4,GND*%
%TO.N,GND*%
X138962500Y-112765000D03*
D14*
%TO.P,J5,5,Shield*%
X141822500Y-108015000D03*
X141822500Y-120015000D03*
%TD*%
D10*
%TO.P,R3,1*%
%TO.N,+5V*%
X70200000Y-137950000D03*
%TO.P,R3,2*%
%TO.N,/3\u002C3 V*%
X77820000Y-137950000D03*
%TD*%
%TO.P,C1,1*%
%TO.N,Net-(U1-XTAL2{slash}PB7)*%
X70875000Y-101700000D03*
%TO.P,C1,2*%
%TO.N,GND*%
X73375000Y-101700000D03*
%TD*%
D15*
%TO.P,Y1,1,1*%
%TO.N,Net-(U1-XTAL1{slash}PB6)*%
X77440000Y-96500000D03*
%TO.P,Y1,2,2*%
%TO.N,Net-(U1-XTAL2{slash}PB7)*%
X72560000Y-96500000D03*
%TD*%
D16*
%TO.P,M2,1,Pin_1*%
%TO.N,/M2a*%
X86125000Y-98547500D03*
D17*
%TO.P,M2,2,Pin_2*%
%TO.N,/M2b*%
X91125000Y-98547500D03*
%TD*%
D18*
%TO.P,M3,1,Pin_1*%
%TO.N,/M3a*%
X146702500Y-132375000D03*
D17*
%TO.P,M3,2,Pin_2*%
%TO.N,/M3b*%
X146702500Y-137375000D03*
%TD*%
D10*
%TO.P,R2,1*%
%TO.N,SCL*%
X77820000Y-134575000D03*
%TO.P,R2,2*%
%TO.N,+5V*%
X70200000Y-134575000D03*
%TD*%
D19*
%TO.P,REF\u002A\u002A,*%
%TO.N,*%
X144780000Y-147695000D03*
X144780000Y-99695000D03*
X64780000Y-147695000D03*
X64780000Y-99695000D03*
%TD*%
D10*
%TO.P,R1,1*%
%TO.N,SDA*%
X67760000Y-134475000D03*
%TO.P,R1,2*%
%TO.N,+5V*%
X60140000Y-134475000D03*
%TD*%
%TO.P,C3,1*%
%TO.N,GND*%
X77875000Y-108450000D03*
%TO.P,C3,2*%
%TO.N,+5V*%
X72875000Y-108450000D03*
%TD*%
%TO.P,R4,1*%
%TO.N,/3\u002C3 V*%
X77770000Y-141650000D03*
%TO.P,R4,2*%
%TO.N,Net-(R4-Pad2)*%
X70150000Y-141650000D03*
%TD*%
D20*
%TO.P,M1,1,Pin_1*%
%TO.N,/M1a*%
X79970000Y-149202500D03*
D17*
%TO.P,M1,2,Pin_2*%
%TO.N,/M1b*%
X74970000Y-149202500D03*
%TD*%
D10*
%TO.P,R5,2*%
%TO.N,GND*%
X59905000Y-141675000D03*
%TO.P,R5,1*%
%TO.N,Net-(R4-Pad2)*%
X67525000Y-141675000D03*
%TD*%
D21*
%TO.P,U1,1,~{RESET}/PC6*%
%TO.N,unconnected-(U1-~{RESET}{slash}PC6-Pad1)*%
X98660000Y-118080000D03*
D22*
%TO.P,U1,2,PD0*%
%TO.N,RX*%
X96120000Y-118080000D03*
%TO.P,U1,3,PD1*%
%TO.N,TX*%
X93580000Y-118080000D03*
%TO.P,U1,4,PD2*%
%TO.N,unconnected-(U1-PD2-Pad4)*%
X91040000Y-118080000D03*
%TO.P,U1,5,PD3*%
%TO.N,unconnected-(U1-PD3-Pad5)*%
X88500000Y-118080000D03*
%TO.P,U1,6,PD4*%
%TO.N,unconnected-(U1-PD4-Pad6)*%
X85960000Y-118080000D03*
%TO.P,U1,7,VCC*%
%TO.N,+5V*%
X83420000Y-118080000D03*
%TO.P,U1,8,GND*%
%TO.N,GND*%
X80880000Y-118080000D03*
%TO.P,U1,9,XTAL1/PB6*%
%TO.N,Net-(U1-XTAL1{slash}PB6)*%
X78340000Y-118080000D03*
%TO.P,U1,10,XTAL2/PB7*%
%TO.N,Net-(U1-XTAL2{slash}PB7)*%
X75800000Y-118080000D03*
%TO.P,U1,11,PD5*%
%TO.N,unconnected-(U1-PD5-Pad11)*%
X73260000Y-118080000D03*
%TO.P,U1,12,PD6*%
%TO.N,unconnected-(U1-PD6-Pad12)*%
X70720000Y-118080000D03*
%TO.P,U1,13,PD7*%
%TO.N,unconnected-(U1-PD7-Pad13)*%
X68180000Y-118080000D03*
%TO.P,U1,14,PB0*%
%TO.N,unconnected-(U1-PB0-Pad14)*%
X65640000Y-118080000D03*
%TO.P,U1,15,PB1*%
%TO.N,unconnected-(U1-PB1-Pad15)*%
X65630000Y-125700000D03*
%TO.P,U1,16,PB2*%
%TO.N,unconnected-(U1-PB2-Pad16)*%
X68170000Y-125700000D03*
%TO.P,U1,17,PB3*%
%TO.N,unconnected-(U1-PB3-Pad17)*%
X70710000Y-125700000D03*
%TO.P,U1,18,PB4*%
%TO.N,unconnected-(U1-PB4-Pad18)*%
X73250000Y-125700000D03*
%TO.P,U1,19,PB5*%
%TO.N,unconnected-(U1-PB5-Pad19)*%
X75790000Y-125700000D03*
%TO.P,U1,20,AVCC*%
%TO.N,+5V*%
X78330000Y-125700000D03*
%TO.P,U1,21,AREF*%
%TO.N,unconnected-(U1-AREF-Pad21)*%
X80870000Y-125700000D03*
%TO.P,U1,22,GND*%
%TO.N,GND*%
X83410000Y-125700000D03*
%TO.P,U1,23,PC0*%
%TO.N,unconnected-(U1-PC0-Pad23)*%
X85950000Y-125700000D03*
%TO.P,U1,24,PC1*%
%TO.N,unconnected-(U1-PC1-Pad24)*%
X88490000Y-125700000D03*
%TO.P,U1,25,PC2*%
%TO.N,unconnected-(U1-PC2-Pad25)*%
X91030000Y-125700000D03*
%TO.P,U1,26,PC3*%
%TO.N,unconnected-(U1-PC3-Pad26)*%
X93570000Y-125700000D03*
%TO.P,U1,27,PC4*%
%TO.N,SDA*%
X96110000Y-125700000D03*
%TO.P,U1,28,PC5*%
%TO.N,SCL*%
X98650000Y-125700000D03*
%TD*%
D10*
%TO.P,C2,1*%
%TO.N,Net-(U1-XTAL1{slash}PB6)*%
X79775000Y-101700000D03*
%TO.P,C2,2*%
%TO.N,GND*%
X77275000Y-101700000D03*
%TD*%
D23*
%TO.P,U2,P$1,STATE*%
%TO.N,unconnected-(U2-STATE-PadP$1)*%
X131836750Y-108193250D03*
%TO.P,U2,P$2,RXD*%
%TO.N,/RXD*%
X131836750Y-105653250D03*
%TO.P,U2,P$3,TXD*%
%TO.N,/TXD*%
X131836750Y-103113250D03*
%TO.P,U2,P$4,GND*%
%TO.N,GND*%
X131836750Y-100573250D03*
%TO.P,U2,P$5,VCC*%
%TO.N,+5V*%
X131836750Y-98033250D03*
%TO.P,U2,P$6,EN/KEY*%
%TO.N,unconnected-(U2-EN{slash}KEY-PadP$6)*%
X131836750Y-95493250D03*
%TD*%
D24*
%TO.N,/M1a*%
X103797500Y-149202500D02*
X120434060Y-132565940D01*
X120434060Y-132565940D02*
X120434060Y-131225400D01*
X79970000Y-149202500D02*
X103797500Y-149202500D01*
%TO.N,/M1b*%
X78317500Y-152550000D02*
X74970000Y-149202500D01*
X101649460Y-152550000D02*
X78317500Y-152550000D01*
X122974060Y-131225400D02*
X101649460Y-152550000D01*
%TO.N,/M3a*%
X131695060Y-130124400D02*
X130594060Y-131225400D01*
X144451900Y-130124400D02*
X131695060Y-130124400D01*
X146702500Y-132375000D02*
X144451900Y-130124400D01*
%TO.N,/M3b*%
X140552900Y-131225400D02*
X146702500Y-137375000D01*
X133134060Y-131225400D02*
X140552900Y-131225400D01*
%TO.N,/RXD*%
X123575000Y-106800000D02*
X123575000Y-106750000D01*
X92675000Y-137700000D02*
X123575000Y-106800000D01*
X123575000Y-106750000D02*
X124671750Y-105653250D01*
X124671750Y-105653250D02*
X131836750Y-105653250D01*
%TO.N,/TXD*%
X124761750Y-103113250D02*
X131836750Y-103113250D01*
X92675000Y-135200000D02*
X124761750Y-103113250D01*
%TO.N,Net-(R4-Pad2)*%
X70125000Y-141675000D02*
X70150000Y-141650000D01*
X67525000Y-141675000D02*
X70125000Y-141675000D01*
%TO.N,/3\u002C3 V*%
X77820000Y-137950000D02*
X77820000Y-141600000D01*
X77820000Y-141600000D02*
X77770000Y-141650000D01*
X79220000Y-140200000D02*
X77770000Y-141650000D01*
X92675000Y-140200000D02*
X79220000Y-140200000D01*
%TO.N,SCL*%
X80620000Y-131775000D02*
X77820000Y-134575000D01*
X92575000Y-131775000D02*
X80620000Y-131775000D01*
X98650000Y-125700000D02*
X92575000Y-131775000D01*
%TO.N,SDA*%
X91485000Y-130325000D02*
X96110000Y-125700000D01*
X71910000Y-130325000D02*
X91485000Y-130325000D01*
X67760000Y-134475000D02*
X71910000Y-130325000D01*
%TO.N,Net-(led1-A)*%
X61460000Y-103270000D02*
X59890000Y-103270000D01*
X65650000Y-107460000D02*
X61460000Y-103270000D01*
%TO.N,Net-(U1-XTAL1{slash}PB6)*%
X79775000Y-116645000D02*
X78340000Y-118080000D01*
X79775000Y-101850000D02*
X79775000Y-116645000D01*
%TO.N,Net-(U1-XTAL2{slash}PB7)*%
X70875000Y-113155000D02*
X75800000Y-118080000D01*
X70875000Y-101700000D02*
X70875000Y-113155000D01*
X70875000Y-98185000D02*
X72560000Y-96500000D01*
X70875000Y-101700000D02*
X70875000Y-98185000D01*
%TO.N,Net-(U1-XTAL1{slash}PB6)*%
X79775000Y-98835000D02*
X77440000Y-96500000D01*
X79775000Y-101850000D02*
X79775000Y-98835000D01*
%TD*%
%TA.AperFunction,Conductor*%
%TO.N,+5V*%
G36*
X152192539Y-92270185D02*
G01*
X152238294Y-92322989D01*
X152249500Y-92374500D01*
X152249500Y-155125500D01*
X152229815Y-155192539D01*
X152177011Y-155238294D01*
X152125500Y-155249500D01*
X57374500Y-155249500D01*
X57307461Y-155229815D01*
X57261706Y-155177011D01*
X57250500Y-155125500D01*
X57250500Y-147523681D01*
X61729500Y-147523681D01*
X61729500Y-147866318D01*
X61767858Y-148206768D01*
X61767861Y-148206782D01*
X61844102Y-148540816D01*
X61844103Y-148540818D01*
X61957264Y-148864216D01*
X62105922Y-149172907D01*
X62105924Y-149172910D01*
X62288211Y-149463018D01*
X62501834Y-149730893D01*
X62744107Y-149973166D01*
X63011982Y-150186789D01*
X63196164Y-150302518D01*
X63302092Y-150369077D01*
X63377308Y-150405299D01*
X63610785Y-150517736D01*
X63934183Y-150630897D01*
X64268217Y-150707139D01*
X64268226Y-150707140D01*
X64268231Y-150707141D01*
X64495197Y-150732713D01*
X64608682Y-150745499D01*
X64608685Y-150745500D01*
X64608688Y-150745500D01*
X64951315Y-150745500D01*
X64951316Y-150745499D01*
X65125311Y-150725895D01*
X65291768Y-150707141D01*
X65291771Y-150707140D01*
X65291783Y-150707139D01*
X65625817Y-150630897D01*
X65949215Y-150517736D01*
X66257910Y-150369076D01*
X66548018Y-150186789D01*
X66815893Y-149973166D01*
X67058166Y-149730893D01*
X67271789Y-149463018D01*
X67454076Y-149172910D01*
X67496655Y-149084495D01*
X73169500Y-149084495D01*
X73169500Y-149320504D01*
X73169501Y-149320520D01*
X73200306Y-149554510D01*
X73261394Y-149782493D01*
X73351714Y-150000545D01*
X73351719Y-150000556D01*
X73422677Y-150123457D01*
X73469727Y-150204950D01*
X73469729Y-150204953D01*
X73469730Y-150204954D01*
X73613406Y-150392197D01*
X73613412Y-150392204D01*
X73780295Y-150559087D01*
X73780302Y-150559093D01*
X73796909Y-150571836D01*
X73967550Y-150702773D01*
X74098918Y-150778618D01*
X74171943Y-150820780D01*
X74171948Y-150820782D01*
X74171951Y-150820784D01*
X74390007Y-150911106D01*
X74617986Y-150972193D01*
X74851989Y-151003000D01*
X74851996Y-151003000D01*
X75088004Y-151003000D01*
X75088011Y-151003000D01*
X75322014Y-150972193D01*
X75549993Y-150911106D01*
X75670996Y-150860983D01*
X75740464Y-150853515D01*
X75802943Y-150884789D01*
X75806129Y-150887864D01*
X77832639Y-152914374D01*
X77832649Y-152914385D01*
X77836979Y-152918715D01*
X77836980Y-152918716D01*
X77948784Y-153030520D01*
X78035595Y-153080639D01*
X78035597Y-153080641D01*
X78073651Y-153102611D01*
X78085715Y-153109577D01*
X78238443Y-153150501D01*
X78238446Y-153150501D01*
X78404153Y-153150501D01*
X78404169Y-153150500D01*
X101562791Y-153150500D01*
X101562807Y-153150501D01*
X101570403Y-153150501D01*
X101728514Y-153150501D01*
X101728517Y-153150501D01*
X101881245Y-153109577D01*
X101931364Y-153080639D01*
X102018176Y-153030520D01*
X102129980Y-152918716D01*
X102129980Y-152918714D01*
X102140188Y-152908507D01*
X102140189Y-152908504D01*
X108685645Y-146363048D01*
X114053560Y-146363048D01*
X114053560Y-146567751D01*
X114085582Y-146769934D01*
X114148841Y-146964623D01*
X114212751Y-147090053D01*
X114241645Y-147146759D01*
X114241775Y-147147013D01*
X114362088Y-147312613D01*
X114506846Y-147457371D01*
X114661809Y-147569956D01*
X114672450Y-147577687D01*
X114788667Y-147636903D01*
X114854836Y-147670618D01*
X114854838Y-147670618D01*
X114854841Y-147670620D01*
X114952117Y-147702227D01*
X115049525Y-147733877D01*
X115150617Y-147749888D01*
X115251708Y-147765900D01*
X115251709Y-147765900D01*
X115456411Y-147765900D01*
X115456412Y-147765900D01*
X115658594Y-147733877D01*
X115853279Y-147670620D01*
X116035670Y-147577687D01*
X116151002Y-147493894D01*
X116201273Y-147457371D01*
X116201275Y-147457368D01*
X116201279Y-147457366D01*
X116346026Y-147312619D01*
X116346028Y-147312615D01*
X116346031Y-147312613D01*
X116466344Y-147147014D01*
X116466346Y-147147011D01*
X116466347Y-147147010D01*
X116513576Y-147054317D01*
X116561549Y-147003523D01*
X116629370Y-146986728D01*
X116695505Y-147009265D01*
X116734545Y-147054319D01*
X116781775Y-147147014D01*
X116902088Y-147312613D01*
X117046846Y-147457371D01*
X117201809Y-147569956D01*
X117212450Y-147577687D01*
X117328667Y-147636903D01*
X117394836Y-147670618D01*
X117394838Y-147670618D01*
X117394841Y-147670620D01*
X117492117Y-147702227D01*
X117589525Y-147733877D01*
X117690617Y-147749888D01*
X117791708Y-147765900D01*
X117791709Y-147765900D01*
X117996411Y-147765900D01*
X117996412Y-147765900D01*
X118198594Y-147733877D01*
X118393279Y-147670620D01*
X118575670Y-147577687D01*
X118691002Y-147493894D01*
X118741273Y-147457371D01*
X118741275Y-147457368D01*
X118741279Y-147457366D01*
X118886026Y-147312619D01*
X118886028Y-147312615D01*
X118886031Y-147312613D01*
X119006344Y-147147014D01*
X119006346Y-147147011D01*
X119006347Y-147147010D01*
X119053576Y-147054317D01*
X119101549Y-147003523D01*
X119169370Y-146986728D01*
X119235505Y-147009265D01*
X119274545Y-147054319D01*
X119321775Y-147147014D01*
X119442088Y-147312613D01*
X119586846Y-147457371D01*
X119741809Y-147569956D01*
X119752450Y-147577687D01*
X119868667Y-147636903D01*
X119934836Y-147670618D01*
X119934838Y-147670618D01*
X119934841Y-147670620D01*
X120032117Y-147702227D01*
X120129525Y-147733877D01*
X120230617Y-147749888D01*
X120331708Y-147765900D01*
X120331709Y-147765900D01*
X120536411Y-147765900D01*
X120536412Y-147765900D01*
X120738594Y-147733877D01*
X120933279Y-147670620D01*
X121115670Y-147577687D01*
X121231002Y-147493894D01*
X121281273Y-147457371D01*
X121281275Y-147457368D01*
X121281279Y-147457366D01*
X121426026Y-147312619D01*
X121426028Y-147312615D01*
X121426031Y-147312613D01*
X121546344Y-147147014D01*
X121546346Y-147147011D01*
X121546347Y-147147010D01*
X121593576Y-147054317D01*
X121641549Y-147003523D01*
X121709370Y-146986728D01*
X121775505Y-147009265D01*
X121814545Y-147054319D01*
X121861775Y-147147014D01*
X121982088Y-147312613D01*
X122126846Y-147457371D01*
X122281809Y-147569956D01*
X122292450Y-147577687D01*
X122408667Y-147636903D01*
X122474836Y-147670618D01*
X122474838Y-147670618D01*
X122474841Y-147670620D01*
X122572117Y-147702227D01*
X122669525Y-147733877D01*
X122770617Y-147749888D01*
X122871708Y-147765900D01*
X122871709Y-147765900D01*
X123076411Y-147765900D01*
X123076412Y-147765900D01*
X123278594Y-147733877D01*
X123473279Y-147670620D01*
X123655670Y-147577687D01*
X123771002Y-147493894D01*
X123821273Y-147457371D01*
X123821275Y-147457368D01*
X123821279Y-147457366D01*
X123966026Y-147312619D01*
X123966028Y-147312615D01*
X123966031Y-147312613D01*
X124086344Y-147147014D01*
X124086346Y-147147011D01*
X124086347Y-147147010D01*
X124133576Y-147054317D01*
X124181549Y-147003523D01*
X124249370Y-146986728D01*
X124315505Y-147009265D01*
X124354545Y-147054319D01*
X124401775Y-147147014D01*
X124522088Y-147312613D01*
X124666846Y-147457371D01*
X124821809Y-147569956D01*
X124832450Y-147577687D01*
X124948667Y-147636903D01*
X125014836Y-147670618D01*
X125014838Y-147670618D01*
X125014841Y-147670620D01*
X125112117Y-147702227D01*
X125209525Y-147733877D01*
X125310617Y-147749888D01*
X125411708Y-147765900D01*
X125411709Y-147765900D01*
X125616411Y-147765900D01*
X125616412Y-147765900D01*
X125818594Y-147733877D01*
X126013279Y-147670620D01*
X126195670Y-147577687D01*
X126311002Y-147493894D01*
X126361273Y-147457371D01*
X126361275Y-147457368D01*
X126361279Y-147457366D01*
X126506026Y-147312619D01*
X126506028Y-147312615D01*
X126506031Y-147312613D01*
X126626344Y-147147014D01*
X126626346Y-147147011D01*
X126626347Y-147147010D01*
X126673576Y-147054317D01*
X126721549Y-147003523D01*
X126789370Y-146986728D01*
X126855505Y-147009265D01*
X126894545Y-147054319D01*
X126941775Y-147147014D01*
X127062088Y-147312613D01*
X127206846Y-147457371D01*
X127361809Y-147569956D01*
X127372450Y-147577687D01*
X127488667Y-147636903D01*
X127554836Y-147670618D01*
X127554838Y-147670618D01*
X127554841Y-147670620D01*
X127652117Y-147702227D01*
X127749525Y-147733877D01*
X127850617Y-147749888D01*
X127951708Y-147765900D01*
X127951709Y-147765900D01*
X128156411Y-147765900D01*
X128156412Y-147765900D01*
X128358594Y-147733877D01*
X128553279Y-147670620D01*
X128735670Y-147577687D01*
X128851002Y-147493894D01*
X128901273Y-147457371D01*
X128901275Y-147457368D01*
X128901279Y-147457366D01*
X129046026Y-147312619D01*
X129046028Y-147312615D01*
X129046031Y-147312613D01*
X129166346Y-147147011D01*
X129166475Y-147146759D01*
X129213855Y-147053769D01*
X129261829Y-147002973D01*
X129329650Y-146986178D01*
X129395785Y-147008715D01*
X129434825Y-147053769D01*
X129482201Y-147146750D01*
X129482207Y-147146759D01*
X129514583Y-147191321D01*
X129514584Y-147191322D01*
X130111097Y-146594809D01*
X130128135Y-146658393D01*
X130193961Y-146772407D01*
X130287053Y-146865499D01*
X130401067Y-146931325D01*
X130464650Y-146948362D01*
X129868136Y-147544874D01*
X129912710Y-147577259D01*
X130095028Y-147670155D01*
X130289642Y-147733390D01*
X130491743Y-147765400D01*
X130696377Y-147765400D01*
X130898477Y-147733390D01*
X131093091Y-147670155D01*
X131275409Y-147577259D01*
X131319981Y-147544874D01*
X130723469Y-146948362D01*
X130787053Y-146931325D01*
X130901067Y-146865499D01*
X130994159Y-146772407D01*
X131059985Y-146658393D01*
X131077022Y-146594809D01*
X131673534Y-147191321D01*
X131705921Y-147146747D01*
X131705921Y-147146746D01*
X131753294Y-147053771D01*
X131801268Y-147002975D01*
X131869088Y-146986179D01*
X131935224Y-147008716D01*
X131974263Y-147053769D01*
X132021773Y-147147011D01*
X132142088Y-147312613D01*
X132286846Y-147457371D01*
X132441809Y-147569956D01*
X132452450Y-147577687D01*
X132568667Y-147636903D01*
X132634836Y-147670618D01*
X132634838Y-147670618D01*
X132634841Y-147670620D01*
X132732117Y-147702227D01*
X132829525Y-147733877D01*
X132930617Y-147749888D01*
X133031708Y-147765900D01*
X133031709Y-147765900D01*
X133236411Y-147765900D01*
X133236412Y-147765900D01*
X133438594Y-147733877D01*
X133633279Y-147670620D01*
X133815670Y-147577687D01*
X133931002Y-147493894D01*
X133981273Y-147457371D01*
X133981275Y-147457368D01*
X133981279Y-147457366D01*
X134126026Y-147312619D01*
X134126028Y-147312615D01*
X134126031Y-147312613D01*
X134246344Y-147147014D01*
X134246346Y-147147011D01*
X134246347Y-147147010D01*
X134293576Y-147054317D01*
X134341549Y-147003523D01*
X134409370Y-146986728D01*
X134475505Y-147009265D01*
X134514545Y-147054319D01*
X134561775Y-147147014D01*
X134682088Y-147312613D01*
X134826846Y-147457371D01*
X134981809Y-147569956D01*
X134992450Y-147577687D01*
X135108667Y-147636903D01*
X135174836Y-147670618D01*
X135174838Y-147670618D01*
X135174841Y-147670620D01*
X135272117Y-147702227D01*
X135369525Y-147733877D01*
X135470617Y-147749888D01*
X135571708Y-147765900D01*
X135571709Y-147765900D01*
X135776411Y-147765900D01*
X135776412Y-147765900D01*
X135978594Y-147733877D01*
X136173279Y-147670620D01*
X136355670Y-147577687D01*
X136430003Y-147523681D01*
X141729500Y-147523681D01*
X141729500Y-147866318D01*
X141767858Y-148206768D01*
X141767861Y-148206782D01*
X141844102Y-148540816D01*
X141844103Y-148540818D01*
X141957264Y-148864216D01*
X142105922Y-149172907D01*
X142105924Y-149172910D01*
X142288211Y-149463018D01*
X142501834Y-149730893D01*
X142744107Y-149973166D01*
X143011982Y-150186789D01*
X143196164Y-150302518D01*
X143302092Y-150369077D01*
X143377308Y-150405299D01*
X143610785Y-150517736D01*
X143934183Y-150630897D01*
X144268217Y-150707139D01*
X144268226Y-150707140D01*
X144268231Y-150707141D01*
X144495197Y-150732713D01*
X144608682Y-150745499D01*
X144608685Y-150745500D01*
X144608688Y-150745500D01*
X144951315Y-150745500D01*
X144951316Y-150745499D01*
X145125311Y-150725895D01*
X145291768Y-150707141D01*
X145291771Y-150707140D01*
X145291783Y-150707139D01*
X145625817Y-150630897D01*
X145949215Y-150517736D01*
X146257910Y-150369076D01*
X146548018Y-150186789D01*
X146815893Y-149973166D01*
X147058166Y-149730893D01*
X147271789Y-149463018D01*
X147454076Y-149172910D01*
X147602736Y-148864215D01*
X147715897Y-148540817D01*
X147792139Y-148206783D01*
X147792992Y-148199219D01*
X147827070Y-147896753D01*
X147830500Y-147866312D01*
X147830500Y-147523688D01*
X147794118Y-147200781D01*
X147792141Y-147183231D01*
X147792140Y-147183226D01*
X147792139Y-147183217D01*
X147715897Y-146849183D01*
X147602736Y-146525785D01*
X147454076Y-146217090D01*
X147271789Y-145926982D01*
X147058166Y-145659107D01*
X146815893Y-145416834D01*
X146548018Y-145203211D01*
X146257910Y-145020924D01*
X146257907Y-145020922D01*
X145949216Y-144872264D01*
X145625818Y-144759103D01*
X145625816Y-144759102D01*
X145368024Y-144700262D01*
X145291783Y-144682861D01*
X145291780Y-144682860D01*
X145291768Y-144682858D01*
X144951318Y-144644500D01*
X144951312Y-144644500D01*
X144608688Y-144644500D01*
X144608681Y-144644500D01*
X144268231Y-144682858D01*
X144268217Y-144682861D01*
X143934183Y-144759102D01*
X143934181Y-144759103D01*
X143610783Y-144872264D01*
X143302092Y-145020922D01*
X143011983Y-145203210D01*
X142744107Y-145416833D01*
X142501833Y-145659107D01*
X142288210Y-145926983D01*
X142105922Y-146217092D01*
X141957264Y-146525783D01*
X141844103Y-146849181D01*
X141844102Y-146849183D01*
X141767861Y-147183217D01*
X141767858Y-147183231D01*
X141729500Y-147523681D01*
X136430003Y-147523681D01*
X136471002Y-147493894D01*
X136521273Y-147457371D01*
X136521275Y-147457368D01*
X136521279Y-147457366D01*
X136666026Y-147312619D01*
X136666028Y-147312615D01*
X136666031Y-147312613D01*
X136747284Y-147200776D01*
X136786347Y-147147010D01*
X136879280Y-146964619D01*
X136942537Y-146769934D01*
X136974560Y-146567752D01*
X136974560Y-146363048D01*
X136959901Y-146270495D01*
X136942537Y-146160865D01*
X136879278Y-145966176D01*
X136786480Y-145784052D01*
X136786347Y-145783790D01*
X136754152Y-145739477D01*
X136666031Y-145618186D01*
X136521273Y-145473428D01*
X136355673Y-145353115D01*
X136355672Y-145353114D01*
X136355670Y-145353113D01*
X136298713Y-145324091D01*
X136173283Y-145260181D01*
X135978594Y-145196922D01*
X135804055Y-145169278D01*
X135776412Y-145164900D01*
X135571708Y-145164900D01*
X135547389Y-145168751D01*
X135369525Y-145196922D01*
X135174836Y-145260181D01*
X134992446Y-145353115D01*
X134826846Y-145473428D01*
X134682088Y-145618186D01*
X134561775Y-145783786D01*
X134514545Y-145876480D01*
X134466570Y-145927276D01*
X134398749Y-145944071D01*
X134332614Y-145921534D01*
X134293575Y-145876480D01*
X134246480Y-145784052D01*
X134246347Y-145783790D01*
X134214152Y-145739477D01*
X134126031Y-145618186D01*
X133981273Y-145473428D01*
X133815673Y-145353115D01*
X133815672Y-145353114D01*
X133815670Y-145353113D01*
X133758713Y-145324091D01*
X133633283Y-145260181D01*
X133438594Y-145196922D01*
X133264055Y-145169278D01*
X133236412Y-145164900D01*
X133031708Y-145164900D01*
X133007389Y-145168751D01*
X132829525Y-145196922D01*
X132634836Y-145260181D01*
X132452446Y-145353115D01*
X132286846Y-145473428D01*
X132142088Y-145618186D01*
X132021773Y-145783788D01*
X131974263Y-145877030D01*
X131926288Y-145927826D01*
X131858467Y-145944620D01*
X131792332Y-145922082D01*
X131753294Y-145877028D01*
X131705921Y-145784052D01*
X131673534Y-145739477D01*
X131673534Y-145739476D01*
X131077022Y-146335989D01*
X131059985Y-146272407D01*
X130994159Y-146158393D01*
X130901067Y-146065301D01*
X130787053Y-145999475D01*
X130723468Y-145982437D01*
X131319982Y-145385924D01*
X131319981Y-145385923D01*
X131275419Y-145353547D01*
X131275410Y-145353541D01*
X131093091Y-145260644D01*
X130898477Y-145197409D01*
X130696377Y-145165400D01*
X130491743Y-145165400D01*
X130289642Y-145197409D01*
X130095028Y-145260644D01*
X129912704Y-145353543D01*
X129868137Y-145385923D01*
X129868137Y-145385924D01*
X130464651Y-145982437D01*
X130401067Y-145999475D01*
X130287053Y-146065301D01*
X130193961Y-146158393D01*
X130128135Y-146272407D01*
X130111097Y-146335990D01*
X129514584Y-145739477D01*
X129514583Y-145739477D01*
X129482203Y-145784044D01*
X129434825Y-145877030D01*
X129386850Y-145927826D01*
X129319029Y-145944621D01*
X129252894Y-145922083D01*
X129213855Y-145877030D01*
X129166344Y-145783785D01*
X129046031Y-145618186D01*
X128901273Y-145473428D01*
X128735673Y-145353115D01*
X128735672Y-145353114D01*
X128735670Y-145353113D01*
X128678713Y-145324091D01*
X128553283Y-145260181D01*
X128358594Y-145196922D01*
X128184055Y-145169278D01*
X128156412Y-145164900D01*
X127951708Y-145164900D01*
X127927389Y-145168751D01*
X127749525Y-145196922D01*
X127554836Y-145260181D01*
X127372446Y-145353115D01*
X127206846Y-145473428D01*
X127062088Y-145618186D01*
X126941775Y-145783786D01*
X126894545Y-145876480D01*
X126846570Y-145927276D01*
X126778749Y-145944071D01*
X126712614Y-145921534D01*
X126673575Y-145876480D01*
X126626480Y-145784052D01*
X126626347Y-145783790D01*
X126594152Y-145739477D01*
X126506031Y-145618186D01*
X126361273Y-145473428D01*
X126195673Y-145353115D01*
X126195672Y-145353114D01*
X126195670Y-145353113D01*
X126138713Y-145324091D01*
X126013283Y-145260181D01*
X125818594Y-145196922D01*
X125644055Y-145169278D01*
X125616412Y-145164900D01*
X125411708Y-145164900D01*
X125387389Y-145168751D01*
X125209525Y-145196922D01*
X125014836Y-145260181D01*
X124832446Y-145353115D01*
X124666846Y-145473428D01*
X124522088Y-145618186D01*
X124401775Y-145783786D01*
X124354545Y-145876480D01*
X124306570Y-145927276D01*
X124238749Y-145944071D01*
X124172614Y-145921534D01*
X124133575Y-145876480D01*
X124086480Y-145784052D01*
X124086347Y-145783790D01*
X124054152Y-145739477D01*
X123966031Y-145618186D01*
X123821273Y-145473428D01*
X123655673Y-145353115D01*
X123655672Y-145353114D01*
X123655670Y-145353113D01*
X123598713Y-145324091D01*
X123473283Y-145260181D01*
X123278594Y-145196922D01*
X123104055Y-145169278D01*
X123076412Y-145164900D01*
X122871708Y-145164900D01*
X122847389Y-145168751D01*
X122669525Y-145196922D01*
X122474836Y-145260181D01*
X122292446Y-145353115D01*
X122126846Y-145473428D01*
X121982088Y-145618186D01*
X121861775Y-145783786D01*
X121814545Y-145876480D01*
X121766570Y-145927276D01*
X121698749Y-145944071D01*
X121632614Y-145921534D01*
X121593575Y-145876480D01*
X121546480Y-145784052D01*
X121546347Y-145783790D01*
X121514152Y-145739477D01*
X121426031Y-145618186D01*
X121281273Y-145473428D01*
X121115673Y-145353115D01*
X121115672Y-145353114D01*
X121115670Y-145353113D01*
X121058713Y-145324091D01*
X120933283Y-145260181D01*
X120738594Y-145196922D01*
X120564055Y-145169278D01*
X120536412Y-145164900D01*
X120331708Y-145164900D01*
X120307389Y-145168751D01*
X120129525Y-145196922D01*
X119934836Y-145260181D01*
X119752446Y-145353115D01*
X119586846Y-145473428D01*
X119442088Y-145618186D01*
X119321775Y-145783786D01*
X119274545Y-145876480D01*
X119226570Y-145927276D01*
X119158749Y-145944071D01*
X119092614Y-145921534D01*
X119053575Y-145876480D01*
X119006480Y-145784052D01*
X119006347Y-145783790D01*
X118974152Y-145739477D01*
X118886031Y-145618186D01*
X118741273Y-145473428D01*
X118575673Y-145353115D01*
X118575672Y-145353114D01*
X118575670Y-145353113D01*
X118518713Y-145324091D01*
X118393283Y-145260181D01*
X118198594Y-145196922D01*
X118024055Y-145169278D01*
X117996412Y-145164900D01*
X117791708Y-145164900D01*
X117767389Y-145168751D01*
X117589525Y-145196922D01*
X117394836Y-145260181D01*
X117212446Y-145353115D01*
X117046846Y-145473428D01*
X116902088Y-145618186D01*
X116781775Y-145783786D01*
X116734545Y-145876480D01*
X116686570Y-145927276D01*
X116618749Y-145944071D01*
X116552614Y-145921534D01*
X116513575Y-145876480D01*
X116466480Y-145784052D01*
X116466347Y-145783790D01*
X116434152Y-145739477D01*
X116346031Y-145618186D01*
X116201273Y-145473428D01*
X116035673Y-145353115D01*
X116035672Y-145353114D01*
X116035670Y-145353113D01*
X115978713Y-145324091D01*
X115853283Y-145260181D01*
X115658594Y-145196922D01*
X115484055Y-145169278D01*
X115456412Y-145164900D01*
X115251708Y-145164900D01*
X115227389Y-145168751D01*
X115049525Y-145196922D01*
X114854836Y-145260181D01*
X114672446Y-145353115D01*
X114506846Y-145473428D01*
X114362088Y-145618186D01*
X114241775Y-145783786D01*
X114148841Y-145966176D01*
X114085582Y-146160865D01*
X114053560Y-146363048D01*
X108685645Y-146363048D01*
X122529219Y-132519475D01*
X122590540Y-132485992D01*
X122655214Y-132489226D01*
X122669526Y-132493877D01*
X122871708Y-132525900D01*
X122871709Y-132525900D01*
X123076411Y-132525900D01*
X123076412Y-132525900D01*
X123278594Y-132493877D01*
X123473279Y-132430620D01*
X123655670Y-132337687D01*
X123768764Y-132255520D01*
X123821273Y-132217371D01*
X123821275Y-132217368D01*
X123821279Y-132217366D01*
X123966026Y-132072619D01*
X123966028Y-132072615D01*
X123966031Y-132072613D01*
X124086344Y-131907014D01*
X124086346Y-131907011D01*
X124086347Y-131907010D01*
X124133576Y-131814317D01*
X124181549Y-131763523D01*
X124249370Y-131746728D01*
X124315505Y-131769265D01*
X124354543Y-131814317D01*
X124378951Y-131862219D01*
X124401775Y-131907014D01*
X124522088Y-132072613D01*
X124666846Y-132217371D01*
X124787286Y-132304874D01*
X124832450Y-132337687D01*
X124948667Y-132396903D01*
X125014836Y-132430618D01*
X125014838Y-132430618D01*
X125014841Y-132430620D01*
X125119197Y-132464527D01*
X125209525Y-132493877D01*
X125310617Y-132509888D01*
X125411708Y-132525900D01*
X125411709Y-132525900D01*
X125616411Y-132525900D01*
X125616412Y-132525900D01*
X125818594Y-132493877D01*
X126013279Y-132430620D01*
X126195670Y-132337687D01*
X126308764Y-132255520D01*
X126361273Y-132217371D01*
X126361275Y-132217368D01*
X126361279Y-132217366D01*
X126506026Y-132072619D01*
X126506028Y-132072615D01*
X126506031Y-132072613D01*
X126626344Y-131907014D01*
X126626346Y-131907011D01*
X126626347Y-131907010D01*
X126673576Y-131814317D01*
X126721549Y-131763523D01*
X126789370Y-131746728D01*
X126855505Y-131769265D01*
X126894543Y-131814317D01*
X126918951Y-131862219D01*
X126941775Y-131907014D01*
X127062088Y-132072613D01*
X127206846Y-132217371D01*
X127327286Y-132304874D01*
X127372450Y-132337687D01*
X127488667Y-132396903D01*
X127554836Y-132430618D01*
X127554838Y-132430618D01*
X127554841Y-132430620D01*
X127659197Y-132464527D01*
X127749525Y-132493877D01*
X127850617Y-132509888D01*
X127951708Y-132525900D01*
X127951709Y-132525900D01*
X128156411Y-132525900D01*
X128156412Y-132525900D01*
X128358594Y-132493877D01*
X128553279Y-132430620D01*
X128735670Y-132337687D01*
X128848764Y-132255520D01*
X128901273Y-132217371D01*
X128901275Y-132217368D01*
X128901279Y-132217366D01*
X129046026Y-132072619D01*
X129046028Y-132072615D01*
X129046031Y-132072613D01*
X129166344Y-131907014D01*
X129166346Y-131907011D01*
X129166347Y-131907010D01*
X129213576Y-131814317D01*
X129261549Y-131763523D01*
X129329370Y-131746728D01*
X129395505Y-131769265D01*
X129434543Y-131814317D01*
X129458951Y-131862219D01*
X129481775Y-131907014D01*
X129602088Y-132072613D01*
X129746846Y-132217371D01*
X129867286Y-132304874D01*
X129912450Y-132337687D01*
X130028667Y-132396903D01*
X130094836Y-132430618D01*
X130094838Y-132430618D01*
X130094841Y-132430620D01*
X130199197Y-132464527D01*
X130289525Y-132493877D01*
X130390617Y-132509888D01*
X130491708Y-132525900D01*
X130491709Y-132525900D01*
X130696411Y-132525900D01*
X130696412Y-132525900D01*
X130898594Y-132493877D01*
X131093279Y-132430620D01*
X131275670Y-132337687D01*
X131388764Y-132255520D01*
X131441273Y-132217371D01*
X131441275Y-132217368D01*
X131441279Y-132217366D01*
X131586026Y-132072619D01*
X131586028Y-132072615D01*
X131586031Y-132072613D01*
X131706344Y-131907014D01*
X131706346Y-131907011D01*
X131706347Y-131907010D01*
X131753576Y-131814317D01*
X131801549Y-131763523D01*
X131869370Y-131746728D01*
X131935505Y-131769265D01*
X131974543Y-131814317D01*
X131998951Y-131862219D01*
X132021775Y-131907014D01*
X132142088Y-132072613D01*
X132286846Y-132217371D01*
X132407286Y-132304874D01*
X132452450Y-132337687D01*
X132568667Y-132396903D01*
X132634836Y-132430618D01*
X132634838Y-132430618D01*
X132634841Y-132430620D01*
X132739197Y-132464527D01*
X132829525Y-132493877D01*
X132930617Y-132509888D01*
X133031708Y-132525900D01*
X133031709Y-132525900D01*
X133236411Y-132525900D01*
X133236412Y-132525900D01*
X133438594Y-132493877D01*
X133633279Y-132430620D01*
X133815670Y-132337687D01*
X133928764Y-132255520D01*
X133981273Y-132217371D01*
X133981275Y-132217368D01*
X133981279Y-132217366D01*
X134126026Y-132072619D01*
X134126028Y-132072615D01*
X134126031Y-132072613D01*
X134246344Y-131907014D01*
X134246346Y-131907011D01*
X134246347Y-131907010D01*
X134253177Y-131893604D01*
X134301151Y-131842809D01*
X134363662Y-131825900D01*
X140252803Y-131825900D01*
X140319842Y-131845585D01*
X140340484Y-131862219D01*
X145017134Y-136538870D01*
X145050619Y-136600193D01*
X145045635Y-136669885D01*
X145044014Y-136674003D01*
X144993896Y-136794999D01*
X144932806Y-137022989D01*
X144902001Y-137256979D01*
X144902000Y-137256995D01*
X144902000Y-137493004D01*
X144902001Y-137493020D01*
X144932806Y-137727010D01*
X144993894Y-137954993D01*
X145084214Y-138173045D01*
X145084219Y-138173056D01*
X145131261Y-138254534D01*
X145202227Y-138377450D01*
X145202229Y-138377453D01*
X145202230Y-138377454D01*
X145345906Y-138564697D01*
X145345912Y-138564704D01*
X145512795Y-138731587D01*
X145512801Y-138731592D01*
X145700050Y-138875273D01*
X145815564Y-138941965D01*
X145904443Y-138993280D01*
X145904448Y-138993282D01*
X145904451Y-138993284D01*
X146122507Y-139083606D01*
X146350486Y-139144693D01*
X146584489Y-139175500D01*
X146584496Y-139175500D01*
X146820504Y-139175500D01*
X146820511Y-139175500D01*
X147054514Y-139144693D01*
X147282493Y-139083606D01*
X147500549Y-138993284D01*
X147704950Y-138875273D01*
X147892199Y-138731592D01*
X148059092Y-138564699D01*
X148202773Y-138377450D01*
X148320784Y-138173049D01*
X148411106Y-137954993D01*
X148472193Y-137727014D01*
X148503000Y-137493011D01*
X148503000Y-137256989D01*
X148472193Y-137022986D01*
X148411106Y-136795007D01*
X148320784Y-136576951D01*
X148320782Y-136576948D01*
X148320780Y-136576943D01*
X148278618Y-136503918D01*
X148202773Y-136372550D01*
X148059092Y-136185301D01*
X148059087Y-136185295D01*
X147892204Y-136018412D01*
X147892197Y-136018406D01*
X147704954Y-135874730D01*
X147704953Y-135874729D01*
X147704950Y-135874727D01*
X147623457Y-135827677D01*
X147500556Y-135756719D01*
X147500545Y-135756714D01*
X147282493Y-135666394D01*
X147054510Y-135605306D01*
X146820520Y-135574501D01*
X146820517Y-135574500D01*
X146820511Y-135574500D01*
X146584489Y-135574500D01*
X146584483Y-135574500D01*
X146584479Y-135574501D01*
X146350489Y-135605306D01*
X146122499Y-135666396D01*
X146001503Y-135716514D01*
X145932034Y-135723983D01*
X145869555Y-135692707D01*
X145866370Y-135689634D01*
X143491142Y-133314406D01*
X141113315Y-130936580D01*
X141079831Y-130875258D01*
X141084815Y-130805566D01*
X141126687Y-130749633D01*
X141192151Y-130725216D01*
X141200997Y-130724900D01*
X144151803Y-130724900D01*
X144218842Y-130744585D01*
X144239484Y-130761219D01*
X144865681Y-131387416D01*
X144899166Y-131448739D01*
X144902000Y-131475097D01*
X144902000Y-133475001D01*
X144902001Y-133475018D01*
X144912500Y-133577796D01*
X144912501Y-133577799D01*
X144967685Y-133744331D01*
X144967686Y-133744334D01*
X145059788Y-133893656D01*
X145183844Y-134017712D01*
X145333166Y-134109814D01*
X145499703Y-134164999D01*
X145602491Y-134175500D01*
X147802508Y-134175499D01*
X147905297Y-134164999D01*
X148071834Y-134109814D01*
X148221156Y-134017712D01*
X148345212Y-133893656D01*
X148437314Y-133744334D01*
X148492499Y-133577797D01*
X148503000Y-133475009D01*
X148502999Y-131274992D01*
X148492499Y-131172203D01*
X148437314Y-131005666D01*
X148345212Y-130856344D01*
X148221156Y-130732288D01*
X148071834Y-130640186D01*
X147905297Y-130585001D01*
X147905295Y-130585000D01*
X147802516Y-130574500D01*
X147802509Y-130574500D01*
X145802597Y-130574500D01*
X145735558Y-130554815D01*
X145714916Y-130538181D01*
X144939490Y-129762755D01*
X144939488Y-129762752D01*
X144820617Y-129643881D01*
X144820616Y-129643880D01*
X144733804Y-129593760D01*
X144733804Y-129593759D01*
X144733800Y-129593758D01*
X144683685Y-129564823D01*
X144530957Y-129523899D01*
X144372843Y-129523899D01*
X144365247Y-129523899D01*
X144365231Y-129523900D01*
X131774117Y-129523900D01*
X131616003Y-129523900D01*
X131463275Y-129564823D01*
X131463274Y-129564823D01*
X131463272Y-129564824D01*
X131463269Y-129564825D01*
X131413156Y-129593759D01*
X131413155Y-129593760D01*
X131369749Y-129618820D01*
X131326345Y-129643879D01*
X131326342Y-129643881D01*
X131214538Y-129755686D01*
X131038902Y-129931321D01*
X130977579Y-129964806D01*
X130912908Y-129961573D01*
X130898594Y-129956922D01*
X130724055Y-129929278D01*
X130696412Y-129924900D01*
X130491708Y-129924900D01*
X130467389Y-129928751D01*
X130289525Y-129956922D01*
X130094836Y-130020181D01*
X129912446Y-130113115D01*
X129746846Y-130233428D01*
X129602088Y-130378186D01*
X129481775Y-130543786D01*
X129434545Y-130636480D01*
X129386570Y-130687276D01*
X129318749Y-130704071D01*
X129252614Y-130681534D01*
X129213575Y-130636480D01*
X129187345Y-130585001D01*
X129166347Y-130543790D01*
X129134152Y-130499477D01*
X129046031Y-130378186D01*
X128901273Y-130233428D01*
X128735673Y-130113115D01*
X128735672Y-130113114D01*
X128735670Y-130113113D01*
X128678713Y-130084091D01*
X128553283Y-130020181D01*
X128358594Y-129956922D01*
X128184055Y-129929278D01*
X128156412Y-129924900D01*
X127951708Y-129924900D01*
X127927389Y-129928751D01*
X127749525Y-129956922D01*
X127554836Y-130020181D01*
X127372446Y-130113115D01*
X127206846Y-130233428D01*
X127062088Y-130378186D01*
X126941775Y-130543786D01*
X126894545Y-130636480D01*
X126846570Y-130687276D01*
X126778749Y-130704071D01*
X126712614Y-130681534D01*
X126673575Y-130636480D01*
X126647345Y-130585001D01*
X126626347Y-130543790D01*
X126594152Y-130499477D01*
X126506031Y-130378186D01*
X126361273Y-130233428D01*
X126195673Y-130113115D01*
X126195672Y-130113114D01*
X126195670Y-130113113D01*
X126138713Y-130084091D01*
X126013283Y-130020181D01*
X125818594Y-129956922D01*
X125644055Y-129929278D01*
X125616412Y-129924900D01*
X125411708Y-129924900D01*
X125387389Y-129928751D01*
X125209525Y-129956922D01*
X125014836Y-130020181D01*
X124832446Y-130113115D01*
X124666846Y-130233428D01*
X124522088Y-130378186D01*
X124401775Y-130543786D01*
X124354545Y-130636480D01*
X124306570Y-130687276D01*
X124238749Y-130704071D01*
X124172614Y-130681534D01*
X124133575Y-130636480D01*
X124107345Y-130585001D01*
X124086347Y-130543790D01*
X124054152Y-130499477D01*
X123966031Y-130378186D01*
X123821273Y-130233428D01*
X123655673Y-130113115D01*
X123655672Y-130113114D01*
X123655670Y-130113113D01*
X123598713Y-130084091D01*
X123473283Y-130020181D01*
X123278594Y-129956922D01*
X123104055Y-129929278D01*
X123076412Y-129924900D01*
X122871708Y-129924900D01*
X122847389Y-129928751D01*
X122669525Y-129956922D01*
X122474836Y-130020181D01*
X122292446Y-130113115D01*
X122126846Y-130233428D01*
X121982088Y-130378186D01*
X121861775Y-130543786D01*
X121814545Y-130636480D01*
X121766570Y-130687276D01*
X121698749Y-130704071D01*
X121632614Y-130681534D01*
X121593575Y-130636480D01*
X121567345Y-130585001D01*
X121546347Y-130543790D01*
X121514152Y-130499477D01*
X121426031Y-130378186D01*
X121281273Y-130233428D01*
X121115673Y-130113115D01*
X121115672Y-130113114D01*
X121115670Y-130113113D01*
X121058713Y-130084091D01*
X120933283Y-130020181D01*
X120738594Y-129956922D01*
X120564055Y-129929278D01*
X120536412Y-129924900D01*
X120331708Y-129924900D01*
X120307389Y-129928751D01*
X120129525Y-129956922D01*
X119934836Y-130020181D01*
X119752446Y-130113115D01*
X119586846Y-130233428D01*
X119442088Y-130378186D01*
X119321775Y-130543786D01*
X119274545Y-130636480D01*
X119226570Y-130687276D01*
X119158749Y-130704071D01*
X119092614Y-130681534D01*
X119053575Y-130636480D01*
X119027345Y-130585001D01*
X119006347Y-130543790D01*
X118974152Y-130499477D01*
X118886031Y-130378186D01*
X118741273Y-130233428D01*
X118575673Y-130113115D01*
X118575672Y-130113114D01*
X118575670Y-130113113D01*
X118518713Y-130084091D01*
X118393283Y-130020181D01*
X118198594Y-129956922D01*
X118024055Y-129929278D01*
X117996412Y-129924900D01*
X117791708Y-129924900D01*
X117767389Y-129928751D01*
X117589525Y-129956922D01*
X117394836Y-130020181D01*
X117212446Y-130113115D01*
X117046846Y-130233428D01*
X116902088Y-130378186D01*
X116781773Y-130543788D01*
X116734263Y-130637030D01*
X116686288Y-130687826D01*
X116618467Y-130704620D01*
X116552332Y-130682082D01*
X116513294Y-130637028D01*
X116465921Y-130544052D01*
X116433534Y-130499477D01*
X116433534Y-130499476D01*
X115837022Y-131095989D01*
X115819985Y-131032407D01*
X115754159Y-130918393D01*
X115661067Y-130825301D01*
X115547053Y-130759475D01*
X115483468Y-130742437D01*
X116079982Y-130145924D01*
X116079981Y-130145923D01*
X116035419Y-130113547D01*
X116035410Y-130113541D01*
X115853091Y-130020644D01*
X115658477Y-129957409D01*
X115456377Y-129925400D01*
X115251743Y-129925400D01*
X115049642Y-129957409D01*
X114855028Y-130020644D01*
X114672704Y-130113543D01*
X114628137Y-130145923D01*
X114628137Y-130145924D01*
X115224651Y-130742437D01*
X115161067Y-130759475D01*
X115047053Y-130825301D01*
X114953961Y-130918393D01*
X114888135Y-131032407D01*
X114871097Y-131095990D01*
X114274584Y-130499477D01*
X114274583Y-130499477D01*
X114242203Y-130544044D01*
X114149304Y-130726368D01*
X114086069Y-130920982D01*
X114054060Y-131123082D01*
X114054060Y-131327717D01*
X114086069Y-131529817D01*
X114149304Y-131724431D01*
X114242201Y-131906750D01*
X114242207Y-131906759D01*
X114274583Y-131951321D01*
X114274584Y-131951322D01*
X114871097Y-131354809D01*
X114888135Y-131418393D01*
X114953961Y-131532407D01*
X115047053Y-131625499D01*
X115161067Y-131691325D01*
X115224650Y-131708362D01*
X114628136Y-132304874D01*
X114672710Y-132337259D01*
X114855028Y-132430155D01*
X115049642Y-132493390D01*
X115251743Y-132525400D01*
X115456377Y-132525400D01*
X115658477Y-132493390D01*
X115853091Y-132430155D01*
X116035409Y-132337259D01*
X116079981Y-132304874D01*
X115483469Y-131708362D01*
X115547053Y-131691325D01*
X115661067Y-131625499D01*
X115754159Y-131532407D01*
X115819985Y-131418393D01*
X115837022Y-131354809D01*
X116433534Y-131951321D01*
X116465921Y-131906747D01*
X116465921Y-131906746D01*
X116513294Y-131813771D01*
X116561268Y-131762975D01*
X116629088Y-131746179D01*
X116695224Y-131768716D01*
X116734263Y-131813769D01*
X116781773Y-131907011D01*
X116902088Y-132072613D01*
X117046846Y-132217371D01*
X117167286Y-132304874D01*
X117212450Y-132337687D01*
X117328667Y-132396903D01*
X117394836Y-132430618D01*
X117394838Y-132430618D01*
X117394841Y-132430620D01*
X117499197Y-132464527D01*
X117589525Y-132493877D01*
X117690617Y-132509888D01*
X117791708Y-132525900D01*
X117791709Y-132525900D01*
X117996411Y-132525900D01*
X117996412Y-132525900D01*
X118198594Y-132493877D01*
X118393279Y-132430620D01*
X118575670Y-132337687D01*
X118688764Y-132255520D01*
X118741273Y-132217371D01*
X118741275Y-132217368D01*
X118741279Y-132217366D01*
X118886026Y-132072619D01*
X118886028Y-132072615D01*
X118886031Y-132072613D01*
X119006344Y-131907014D01*
X119006346Y-131907011D01*
X119006347Y-131907010D01*
X119053576Y-131814317D01*
X119101549Y-131763523D01*
X119169370Y-131746728D01*
X119235505Y-131769265D01*
X119274543Y-131814317D01*
X119298951Y-131862219D01*
X119321775Y-131907014D01*
X119442088Y-132072613D01*
X119586844Y-132217369D01*
X119670105Y-132277860D01*
X119712772Y-132333189D01*
X119718752Y-132402803D01*
X119686146Y-132464598D01*
X119684902Y-132465860D01*
X104175175Y-147975588D01*
X104113852Y-148009073D01*
X104044160Y-148004089D01*
X103988227Y-147962217D01*
X103963810Y-147896753D01*
X103965020Y-147868514D01*
X103975500Y-147802352D01*
X103975500Y-147597648D01*
X103943477Y-147395466D01*
X103880220Y-147200781D01*
X103880218Y-147200778D01*
X103880218Y-147200776D01*
X103846503Y-147134607D01*
X103787287Y-147018390D01*
X103776086Y-147002973D01*
X103666971Y-146852786D01*
X103522213Y-146708028D01*
X103356613Y-146587715D01*
X103356612Y-146587714D01*
X103356610Y-146587713D01*
X103303171Y-146560484D01*
X103252376Y-146512510D01*
X103235581Y-146444689D01*
X103258118Y-146378554D01*
X103303172Y-146339515D01*
X103356610Y-146312287D01*
X103487636Y-146217092D01*
X103522213Y-146191971D01*
X103522215Y-146191968D01*
X103522219Y-146191966D01*
X103666966Y-146047219D01*
X103666968Y-146047215D01*
X103666971Y-146047213D01*
X103754109Y-145927276D01*
X103787287Y-145881610D01*
X103880220Y-145699219D01*
X103943477Y-145504534D01*
X103975500Y-145302352D01*
X103975500Y-145097648D01*
X103943477Y-144895466D01*
X103880220Y-144700781D01*
X103880218Y-144700778D01*
X103880218Y-144700776D01*
X103846503Y-144634607D01*
X103787287Y-144518390D01*
X103779556Y-144507749D01*
X103666971Y-144352786D01*
X103522213Y-144208028D01*
X103356613Y-144087715D01*
X103356612Y-144087714D01*
X103356610Y-144087713D01*
X103303171Y-144060484D01*
X103252376Y-144012510D01*
X103235581Y-143944689D01*
X103258118Y-143878554D01*
X103303172Y-143839515D01*
X103356610Y-143812287D01*
X103449590Y-143744732D01*
X103522213Y-143691971D01*
X103522215Y-143691968D01*
X103522219Y-143691966D01*
X103666966Y-143547219D01*
X103666968Y-143547215D01*
X103666971Y-143547213D01*
X103719732Y-143474590D01*
X103787287Y-143381610D01*
X103880220Y-143199219D01*
X103943477Y-143004534D01*
X103975500Y-142802352D01*
X103975500Y-142597648D01*
X103943477Y-142395466D01*
X103926496Y-142343205D01*
X103880218Y-142200776D01*
X103846503Y-142134607D01*
X103787287Y-142018390D01*
X103759057Y-141979534D01*
X103666971Y-141852786D01*
X103522213Y-141708028D01*
X103356611Y-141587713D01*
X103302621Y-141560203D01*
X103251825Y-141512228D01*
X103235031Y-141444407D01*
X103257569Y-141378272D01*
X103302624Y-141339233D01*
X103356349Y-141311859D01*
X103400921Y-141279474D01*
X102804409Y-140682962D01*
X102867993Y-140665925D01*
X102982007Y-140600099D01*
X103075099Y-140507007D01*
X103140925Y-140392993D01*
X103157962Y-140329410D01*
X103754474Y-140925922D01*
X103754474Y-140925921D01*
X103786859Y-140881349D01*
X103879755Y-140699031D01*
X103942990Y-140504417D01*
X103975000Y-140302317D01*
X103975000Y-140097682D01*
X103942990Y-139895582D01*
X103879755Y-139700968D01*
X103786859Y-139518650D01*
X103754474Y-139474077D01*
X103754474Y-139474076D01*
X103157962Y-140070589D01*
X103140925Y-140007007D01*
X103075099Y-139892993D01*
X102982007Y-139799901D01*
X102867993Y-139734075D01*
X102804408Y-139717037D01*
X103400922Y-139120524D01*
X103400921Y-139120523D01*
X103356359Y-139088147D01*
X103356350Y-139088141D01*
X103302621Y-139060765D01*
X103251825Y-139012791D01*
X103235030Y-138944970D01*
X103257567Y-138878835D01*
X103302621Y-138839795D01*
X103356610Y-138812287D01*
X103467677Y-138731593D01*
X103522213Y-138691971D01*
X103522215Y-138691968D01*
X103522219Y-138691966D01*
X103666966Y-138547219D01*
X103666968Y-138547215D01*
X103666971Y-138547213D01*
X103719732Y-138474590D01*
X103787287Y-138381610D01*
X103880220Y-138199219D01*
X103943477Y-138004534D01*
X103975500Y-137802352D01*
X103975500Y-137597648D01*
X103943477Y-137395466D01*
X103880220Y-137200781D01*
X103880218Y-137200778D01*
X103880218Y-137200776D01*
X103830286Y-137102781D01*
X103787287Y-137018390D01*
X103779556Y-137007749D01*
X103666971Y-136852786D01*
X103522213Y-136708028D01*
X103356613Y-136587715D01*
X103356612Y-136587714D01*
X103356610Y-136587713D01*
X103303171Y-136560484D01*
X103252376Y-136512510D01*
X103235581Y-136444689D01*
X103258118Y-136378554D01*
X103303172Y-136339515D01*
X103356610Y-136312287D01*
X103449590Y-136244732D01*
X103522213Y-136191971D01*
X103522215Y-136191968D01*
X103522219Y-136191966D01*
X103666966Y-136047219D01*
X103666968Y-136047215D01*
X103666971Y-136047213D01*
X103719732Y-135974590D01*
X103787287Y-135881610D01*
X103880220Y-135699219D01*
X103943477Y-135504534D01*
X103975500Y-135302352D01*
X103975500Y-135097648D01*
X103955951Y-134974223D01*
X103943477Y-134895465D01*
X103905770Y-134779417D01*
X103880220Y-134700781D01*
X103880218Y-134700778D01*
X103880218Y-134700776D01*
X103842963Y-134627661D01*
X103787287Y-134518390D01*
X103779556Y-134507749D01*
X103666971Y-134352786D01*
X103522213Y-134208028D01*
X103356613Y-134087715D01*
X103356612Y-134087714D01*
X103356610Y-134087713D01*
X103299653Y-134058691D01*
X103174223Y-133994781D01*
X102979534Y-133931522D01*
X102804995Y-133903878D01*
X102777352Y-133899500D01*
X102572648Y-133899500D01*
X102548329Y-133903351D01*
X102370465Y-133931522D01*
X102175776Y-133994781D01*
X101993386Y-134087715D01*
X101827786Y-134208028D01*
X101683028Y-134352786D01*
X101562715Y-134518386D01*
X101469781Y-134700776D01*
X101406522Y-134895465D01*
X101374500Y-135097648D01*
X101374500Y-135302351D01*
X101406522Y-135504534D01*
X101469781Y-135699223D01*
X101508392Y-135775000D01*
X101559207Y-135874730D01*
X101562715Y-135881613D01*
X101683028Y-136047213D01*
X101827786Y-136191971D01*
X101993388Y-136312286D01*
X102046828Y-136339516D01*
X102097623Y-136387490D01*
X102114418Y-136455312D01*
X102091880Y-136521446D01*
X102046828Y-136560484D01*
X101993388Y-136587713D01*
X101827786Y-136708028D01*
X101683028Y-136852786D01*
X101562715Y-137018386D01*
X101469781Y-137200776D01*
X101406522Y-137395465D01*
X101374500Y-137597648D01*
X101374500Y-137802351D01*
X101406522Y-138004534D01*
X101469781Y-138199223D01*
X101522941Y-138303553D01*
X101560595Y-138377454D01*
X101562715Y-138381613D01*
X101683028Y-138547213D01*
X101827786Y-138691971D01*
X101993385Y-138812284D01*
X101993387Y-138812285D01*
X101993390Y-138812287D01*
X102047378Y-138839795D01*
X102098174Y-138887769D01*
X102114969Y-138955590D01*
X102092432Y-139021725D01*
X102047378Y-139060765D01*
X101993644Y-139088143D01*
X101949077Y-139120523D01*
X101949077Y-139120524D01*
X102545591Y-139717037D01*
X102482007Y-139734075D01*
X102367993Y-139799901D01*
X102274901Y-139892993D01*
X102209075Y-140007007D01*
X102192037Y-140070590D01*
X101595524Y-139474077D01*
X101595523Y-139474077D01*
X101563143Y-139518644D01*
X101470244Y-139700968D01*
X101407009Y-139895582D01*
X101375000Y-140097682D01*
X101375000Y-140302317D01*
X101407009Y-140504417D01*
X101470244Y-140699031D01*
X101563141Y-140881350D01*
X101563147Y-140881359D01*
X101595523Y-140925921D01*
X101595524Y-140925922D01*
X102192037Y-140329409D01*
X102209075Y-140392993D01*
X102274901Y-140507007D01*
X102367993Y-140600099D01*
X102482007Y-140665925D01*
X102545590Y-140682962D01*
X101949076Y-141279474D01*
X101993652Y-141311861D01*
X102047376Y-141339234D01*
X102098172Y-141387208D01*
X102114968Y-141455028D01*
X102092431Y-141521164D01*
X102047379Y-141560203D01*
X101993386Y-141587714D01*
X101827786Y-141708028D01*
X101683028Y-141852786D01*
X101562715Y-142018386D01*
X101469781Y-142200776D01*
X101406522Y-142395465D01*
X101374500Y-142597648D01*
X101374500Y-142802351D01*
X101406522Y-143004534D01*
X101469781Y-143199223D01*
X101562715Y-143381613D01*
X101683028Y-143547213D01*
X101827786Y-143691971D01*
X101993388Y-143812286D01*
X102046828Y-143839516D01*
X102097623Y-143887490D01*
X102114418Y-143955312D01*
X102091880Y-144021446D01*
X102046828Y-144060484D01*
X101993388Y-144087713D01*
X101827786Y-144208028D01*
X101683028Y-144352786D01*
X101562715Y-144518386D01*
X101469781Y-144700776D01*
X101406522Y-144895465D01*
X101374500Y-145097648D01*
X101374500Y-145302351D01*
X101406522Y-145504534D01*
X101469781Y-145699223D01*
X101533691Y-145824653D01*
X101560379Y-145877030D01*
X101562715Y-145881613D01*
X101683028Y-146047213D01*
X101827786Y-146191971D01*
X101993388Y-146312286D01*
X102046828Y-146339516D01*
X102097623Y-146387490D01*
X102114418Y-146455312D01*
X102091880Y-146521446D01*
X102046828Y-146560484D01*
X101993388Y-146587713D01*
X101827786Y-146708028D01*
X101683028Y-146852786D01*
X101562715Y-147018386D01*
X101469781Y-147200776D01*
X101406522Y-147395465D01*
X101374500Y-147597648D01*
X101374500Y-147802351D01*
X101406522Y-148004534D01*
X101469781Y-148199223D01*
X101562714Y-148381613D01*
X101579790Y-148405116D01*
X101603269Y-148470923D01*
X101587443Y-148538977D01*
X101537336Y-148587671D01*
X101479471Y-148602000D01*
X93870529Y-148602000D01*
X93803490Y-148582315D01*
X93757735Y-148529511D01*
X93747791Y-148460353D01*
X93770210Y-148405116D01*
X93787285Y-148381613D01*
X93806124Y-148344641D01*
X93880220Y-148199219D01*
X93943477Y-148004534D01*
X93975500Y-147802352D01*
X93975500Y-147597648D01*
X93943477Y-147395466D01*
X93880220Y-147200781D01*
X93880218Y-147200778D01*
X93880218Y-147200776D01*
X93846503Y-147134607D01*
X93787287Y-147018390D01*
X93776086Y-147002973D01*
X93666971Y-146852786D01*
X93522213Y-146708028D01*
X93356613Y-146587715D01*
X93356612Y-146587714D01*
X93356610Y-146587713D01*
X93303171Y-146560484D01*
X93252376Y-146512510D01*
X93235581Y-146444689D01*
X93258118Y-146378554D01*
X93303172Y-146339515D01*
X93356610Y-146312287D01*
X93487636Y-146217092D01*
X93522213Y-146191971D01*
X93522215Y-146191968D01*
X93522219Y-146191966D01*
X93666966Y-146047219D01*
X93666968Y-146047215D01*
X93666971Y-146047213D01*
X93754109Y-145927276D01*
X93787287Y-145881610D01*
X93880220Y-145699219D01*
X93943477Y-145504534D01*
X93975500Y-145302352D01*
X93975500Y-145097648D01*
X93943477Y-144895466D01*
X93880220Y-144700781D01*
X93880218Y-144700778D01*
X93880218Y-144700776D01*
X93846503Y-144634607D01*
X93787287Y-144518390D01*
X93779556Y-144507749D01*
X93666971Y-144352786D01*
X93522213Y-144208028D01*
X93356613Y-144087715D01*
X93356612Y-144087714D01*
X93356610Y-144087713D01*
X93303171Y-144060484D01*
X93252376Y-144012510D01*
X93235581Y-143944689D01*
X93258118Y-143878554D01*
X93303172Y-143839515D01*
X93356610Y-143812287D01*
X93449590Y-143744732D01*
X93522213Y-143691971D01*
X93522215Y-143691968D01*
X93522219Y-143691966D01*
X93666966Y-143547219D01*
X93666968Y-143547215D01*
X93666971Y-143547213D01*
X93719732Y-143474590D01*
X93787287Y-143381610D01*
X93880220Y-143199219D01*
X93943477Y-143004534D01*
X93975500Y-142802352D01*
X93975500Y-142597648D01*
X93943477Y-142395466D01*
X93926496Y-142343205D01*
X93880218Y-142200776D01*
X93846503Y-142134607D01*
X93787287Y-142018390D01*
X93759057Y-141979534D01*
X93666971Y-141852786D01*
X93522213Y-141708028D01*
X93356613Y-141587715D01*
X93356612Y-141587714D01*
X93356610Y-141587713D01*
X93303171Y-141560484D01*
X93252376Y-141512510D01*
X93235581Y-141444689D01*
X93258118Y-141378554D01*
X93303172Y-141339515D01*
X93356610Y-141312287D01*
X93449590Y-141244732D01*
X93522213Y-141191971D01*
X93522215Y-141191968D01*
X93522219Y-141191966D01*
X93666966Y-141047219D01*
X93666968Y-141047215D01*
X93666971Y-141047213D01*
X93724241Y-140968386D01*
X93787287Y-140881610D01*
X93880220Y-140699219D01*
X93943477Y-140504534D01*
X93975500Y-140302352D01*
X93975500Y-140097648D01*
X93950306Y-139938583D01*
X93943477Y-139895465D01*
X93886296Y-139719481D01*
X93880220Y-139700781D01*
X93880218Y-139700778D01*
X93880218Y-139700776D01*
X93846503Y-139634607D01*
X93787287Y-139518390D01*
X93755092Y-139474077D01*
X93666971Y-139352786D01*
X93522213Y-139208028D01*
X93356613Y-139087715D01*
X93356612Y-139087714D01*
X93356610Y-139087713D01*
X93303171Y-139060484D01*
X93252376Y-139012510D01*
X93235581Y-138944689D01*
X93258118Y-138878554D01*
X93303172Y-138839515D01*
X93356610Y-138812287D01*
X93467685Y-138731587D01*
X93522213Y-138691971D01*
X93522215Y-138691968D01*
X93522219Y-138691966D01*
X93666966Y-138547219D01*
X93666968Y-138547215D01*
X93666971Y-138547213D01*
X93719732Y-138474590D01*
X93787287Y-138381610D01*
X93880220Y-138199219D01*
X93943477Y-138004534D01*
X93975500Y-137802352D01*
X93975500Y-137597648D01*
X93943477Y-137395466D01*
X93938825Y-137381151D01*
X93936832Y-137311312D01*
X93969075Y-137255158D01*
X111349666Y-119874568D01*
X139322000Y-119874568D01*
X139322000Y-120155431D01*
X139353442Y-120434494D01*
X139353445Y-120434512D01*
X139415939Y-120708317D01*
X139415943Y-120708329D01*
X139508700Y-120973411D01*
X139630553Y-121226442D01*
X139630555Y-121226445D01*
X139779977Y-121464248D01*
X139955084Y-121683825D01*
X140153675Y-121882416D01*
X140373252Y-122057523D01*
X140611055Y-122206945D01*
X140864092Y-122328801D01*
X141063180Y-122398465D01*
X141129170Y-122421556D01*
X141129182Y-122421560D01*
X141402991Y-122484055D01*
X141402997Y-122484055D01*
X141403005Y-122484057D01*
X141589047Y-122505018D01*
X141682069Y-122515499D01*
X141682072Y-122515500D01*
X141682075Y-122515500D01*
X141962928Y-122515500D01*
X141962929Y-122515499D01*
X142105555Y-122499429D01*
X142241994Y-122484057D01*
X142241999Y-122484056D01*
X142242009Y-122484055D01*
X142515818Y-122421560D01*
X142780908Y-122328801D01*
X143033945Y-122206945D01*
X143271748Y-122057523D01*
X143491325Y-121882416D01*
X143689916Y-121683825D01*
X143865023Y-121464248D01*
X144014445Y-121226445D01*
X144136301Y-120973408D01*
X144229060Y-120708318D01*
X144291555Y-120434509D01*
X144323000Y-120155425D01*
X144323000Y-119874575D01*
X144291555Y-119595491D01*
X144229060Y-119321682D01*
X144136301Y-119056592D01*
X144014445Y-118803555D01*
X143865023Y-118565752D01*
X143689916Y-118346175D01*
X143491325Y-118147584D01*
X143271748Y-117972477D01*
X143033945Y-117823055D01*
X143033942Y-117823053D01*
X142780911Y-117701200D01*
X142515829Y-117608443D01*
X142515817Y-117608439D01*
X142242012Y-117545945D01*
X142241994Y-117545942D01*
X141962931Y-117514500D01*
X141962925Y-117514500D01*
X141682075Y-117514500D01*
X141682068Y-117514500D01*
X141403005Y-117545942D01*
X141402987Y-117545945D01*
X141129182Y-117608439D01*
X141129170Y-117608443D01*
X140864088Y-117701200D01*
X140611057Y-117823053D01*
X140373253Y-117972476D01*
X140153675Y-118147583D01*
X139955083Y-118346175D01*
X139779976Y-118565753D01*
X139630553Y-118803557D01*
X139508700Y-119056588D01*
X139415943Y-119321670D01*
X139415939Y-119321682D01*
X139353445Y-119595487D01*
X139353442Y-119595505D01*
X139322000Y-119874568D01*
X111349666Y-119874568D01*
X116061586Y-115162648D01*
X135662000Y-115162648D01*
X135662000Y-115367351D01*
X135694022Y-115569534D01*
X135757281Y-115764223D01*
X135850215Y-115946613D01*
X135970528Y-116112213D01*
X136115286Y-116256971D01*
X136268679Y-116368415D01*
X136280890Y-116377287D01*
X136383831Y-116429738D01*
X136463276Y-116470218D01*
X136463278Y-116470218D01*
X136463281Y-116470220D01*
X136553180Y-116499430D01*
X136657965Y-116533477D01*
X136759057Y-116549488D01*
X136860148Y-116565500D01*
X136860149Y-116565500D01*
X137064851Y-116565500D01*
X137064852Y-116565500D01*
X137267034Y-116533477D01*
X137461719Y-116470220D01*
X137644110Y-116377287D01*
X137737090Y-116309732D01*
X137809713Y-116256971D01*
X137809715Y-116256968D01*
X137809719Y-116256966D01*
X137874819Y-116191866D01*
X137936142Y-116158381D01*
X138005834Y-116163365D01*
X138050181Y-116191866D01*
X138115286Y-116256971D01*
X138268679Y-116368415D01*
X138280890Y-116377287D01*
X138383831Y-116429738D01*
X138463276Y-116470218D01*
X138463278Y-116470218D01*
X138463281Y-116470220D01*
X138553180Y-116499430D01*
X138657965Y-116533477D01*
X138759057Y-116549488D01*
X138860148Y-116565500D01*
X138860149Y-116565500D01*
X139064851Y-116565500D01*
X139064852Y-116565500D01*
X139267034Y-116533477D01*
X139461719Y-116470220D01*
X139644110Y-116377287D01*
X139737090Y-116309732D01*
X139809713Y-116256971D01*
X139809715Y-116256968D01*
X139809719Y-116256966D01*
X139954466Y-116112219D01*
X139954468Y-116112215D01*
X139954471Y-116112213D01*
X140007232Y-116039590D01*
X140074787Y-115946610D01*
X140167720Y-115764219D01*
X140230977Y-115569534D01*
X140263000Y-115367352D01*
X140263000Y-115162648D01*
X140230977Y-114960466D01*
X140167720Y-114765781D01*
X140167718Y-114765778D01*
X140167718Y-114765776D01*
X140134003Y-114699607D01*
X140074787Y-114583390D01*
X140067056Y-114572749D01*
X139954471Y-114417786D01*
X139809713Y-114273028D01*
X139644113Y-114152715D01*
X139644112Y-114152714D01*
X139644110Y-114152713D01*
X139590671Y-114125484D01*
X139539876Y-114077510D01*
X139523081Y-114009689D01*
X139545618Y-113943554D01*
X139590672Y-113904515D01*
X139644110Y-113877287D01*
X139740734Y-113807086D01*
X139809713Y-113756971D01*
X139809715Y-113756968D01*
X139809719Y-113756966D01*
X139954466Y-113612219D01*
X139954468Y-113612215D01*
X139954471Y-113612213D01*
X140018767Y-113523716D01*
X140074787Y-113446610D01*
X140167720Y-113264219D01*
X140230977Y-113069534D01*
X140263000Y-112867352D01*
X140263000Y-112662648D01*
X140250172Y-112581657D01*
X140230977Y-112460465D01*
X140167718Y-112265776D01*
X140129108Y-112190000D01*
X140074787Y-112083390D01*
X140015552Y-112001859D01*
X139954471Y-111917786D01*
X139809713Y-111773028D01*
X139644113Y-111652715D01*
X139644112Y-111652714D01*
X139644110Y-111652713D01*
X139555987Y-111607812D01*
X139461723Y-111559781D01*
X139267034Y-111496522D01*
X139092495Y-111468878D01*
X139064852Y-111464500D01*
X138860148Y-111464500D01*
X138835829Y-111468351D01*
X138657965Y-111496522D01*
X138463276Y-111559781D01*
X138281537Y-111652383D01*
X138212868Y-111665279D01*
X138148127Y-111639003D01*
X138125975Y-111616209D01*
X138119687Y-111607810D01*
X138119686Y-111607809D01*
X138004588Y-111521647D01*
X138004586Y-111521645D01*
X137869879Y-111471403D01*
X137869872Y-111471401D01*
X137810344Y-111465000D01*
X137212500Y-111465000D01*
X137212500Y-112360854D01*
X137145843Y-112322370D01*
X137025035Y-112290000D01*
X136899965Y-112290000D01*
X136779157Y-112322370D01*
X136712500Y-112360854D01*
X136712500Y-111465000D01*
X136114655Y-111465000D01*
X136055127Y-111471401D01*
X136055120Y-111471403D01*
X135920413Y-111521645D01*
X135920406Y-111521649D01*
X135805312Y-111607809D01*
X135805309Y-111607812D01*
X135719149Y-111722906D01*
X135719145Y-111722913D01*
X135668903Y-111857620D01*
X135668901Y-111857627D01*
X135662500Y-111917155D01*
X135662500Y-112515000D01*
X136558354Y-112515000D01*
X136519870Y-112581657D01*
X136487500Y-112702465D01*
X136487500Y-112827535D01*
X136519870Y-112948343D01*
X136558354Y-113015000D01*
X135662500Y-113015000D01*
X135662500Y-113612844D01*
X135668901Y-113672372D01*
X135668903Y-113672379D01*
X135719145Y-113807086D01*
X135719149Y-113807093D01*
X135805309Y-113922187D01*
X135805312Y-113922190D01*
X135920406Y-114008350D01*
X135920413Y-114008354D01*
X136055121Y-114058597D01*
X136061008Y-114059988D01*
X136121726Y-114094559D01*
X136154114Y-114156469D01*
X136147890Y-114226061D01*
X136117642Y-114268505D01*
X136118726Y-114269589D01*
X135970532Y-114417782D01*
X135970528Y-114417786D01*
X135850215Y-114583386D01*
X135757281Y-114765776D01*
X135694022Y-114960465D01*
X135662000Y-115162648D01*
X116061586Y-115162648D01*
X123943713Y-107280521D01*
X123943716Y-107280520D01*
X124055520Y-107168716D01*
X124105639Y-107081904D01*
X124115659Y-107064549D01*
X124135360Y-107038873D01*
X124884167Y-106290069D01*
X124945490Y-106256584D01*
X124971848Y-106253750D01*
X130029312Y-106253750D01*
X130096351Y-106273435D01*
X130129628Y-106304862D01*
X130223704Y-106434346D01*
X130357154Y-106567796D01*
X130509837Y-106678727D01*
X130677994Y-106764407D01*
X130803908Y-106805319D01*
X130861584Y-106844757D01*
X130888782Y-106909115D01*
X130876867Y-106977962D01*
X130829623Y-107029437D01*
X130803910Y-107041180D01*
X130677994Y-107082093D01*
X130677991Y-107082094D01*
X130509836Y-107167773D01*
X130422725Y-107231063D01*
X130357154Y-107278704D01*
X130357152Y-107278706D01*
X130357151Y-107278706D01*
X130223706Y-107412151D01*
X130223706Y-107412152D01*
X130223704Y-107412154D01*
X130190370Y-107458034D01*
X130112773Y-107564836D01*
X130027094Y-107732991D01*
X129968772Y-107912486D01*
X129939250Y-108098881D01*
X129939250Y-108287618D01*
X129962516Y-108434512D01*
X129968773Y-108474017D01*
X130011135Y-108604394D01*
X130027094Y-108653508D01*
X130055021Y-108708318D01*
X130112773Y-108821663D01*
X130223704Y-108974346D01*
X130357154Y-109107796D01*
X130509837Y-109218727D01*
X130677994Y-109304407D01*
X130857483Y-109362727D01*
X130927384Y-109373798D01*
X131043882Y-109392250D01*
X131043887Y-109392250D01*
X132629618Y-109392250D01*
X132733170Y-109375848D01*
X132816017Y-109362727D01*
X132995506Y-109304407D01*
X133163663Y-109218727D01*
X133316346Y-109107796D01*
X133449796Y-108974346D01*
X133560727Y-108821663D01*
X133646407Y-108653506D01*
X133704727Y-108474017D01*
X133725742Y-108341334D01*
X133734250Y-108287618D01*
X133734250Y-108098881D01*
X133704728Y-107912489D01*
X133704727Y-107912486D01*
X133704727Y-107912483D01*
X133692408Y-107874568D01*
X139322000Y-107874568D01*
X139322000Y-108155431D01*
X139353442Y-108434494D01*
X139353445Y-108434512D01*
X139415939Y-108708317D01*
X139415943Y-108708329D01*
X139508700Y-108973411D01*
X139630553Y-109226442D01*
X139630555Y-109226445D01*
X139779977Y-109464248D01*
X139955084Y-109683825D01*
X140153675Y-109882416D01*
X140373252Y-110057523D01*
X140611055Y-110206945D01*
X140864092Y-110328801D01*
X141041755Y-110390968D01*
X141129170Y-110421556D01*
X141129182Y-110421560D01*
X141402991Y-110484055D01*
X141402997Y-110484055D01*
X141403005Y-110484057D01*
X141589047Y-110505018D01*
X141682069Y-110515499D01*
X141682072Y-110515500D01*
X141682075Y-110515500D01*
X141962928Y-110515500D01*
X141962929Y-110515499D01*
X142105555Y-110499429D01*
X142241994Y-110484057D01*
X142241999Y-110484056D01*
X142242009Y-110484055D01*
X142515818Y-110421560D01*
X142780908Y-110328801D01*
X143033945Y-110206945D01*
X143271748Y-110057523D01*
X143491325Y-109882416D01*
X143689916Y-109683825D01*
X143865023Y-109464248D01*
X144014445Y-109226445D01*
X144136301Y-108973408D01*
X144229060Y-108708318D01*
X144291555Y-108434509D01*
X144292905Y-108422534D01*
X144306929Y-108298055D01*
X144323000Y-108155425D01*
X144323000Y-107874575D01*
X144307048Y-107732994D01*
X144291557Y-107595505D01*
X144291554Y-107595487D01*
X144285787Y-107570222D01*
X144229060Y-107321682D01*
X144136301Y-107056592D01*
X144020950Y-106817063D01*
X144014446Y-106803557D01*
X144014445Y-106803555D01*
X143865023Y-106565752D01*
X143689916Y-106346175D01*
X143491325Y-106147584D01*
X143271748Y-105972477D01*
X143033945Y-105823055D01*
X143033942Y-105823053D01*
X142780911Y-105701200D01*
X142515829Y-105608443D01*
X142515817Y-105608439D01*
X142242012Y-105545945D01*
X142241994Y-105545942D01*
X141962931Y-105514500D01*
X141962925Y-105514500D01*
X141682075Y-105514500D01*
X141682068Y-105514500D01*
X141403005Y-105545942D01*
X141402987Y-105545945D01*
X141129182Y-105608439D01*
X141129170Y-105608443D01*
X140864088Y-105701200D01*
X140611057Y-105823053D01*
X140373253Y-105972476D01*
X140153675Y-106147583D01*
X139955083Y-106346175D01*
X139779976Y-106565753D01*
X139630553Y-106803557D01*
X139508700Y-107056588D01*
X139415943Y-107321670D01*
X139415939Y-107321682D01*
X139353445Y-107595487D01*
X139353442Y-107595505D01*
X139322000Y-107874568D01*
X133692408Y-107874568D01*
X133646407Y-107732994D01*
X133560727Y-107564837D01*
X133449796Y-107412154D01*
X133316346Y-107278704D01*
X133163663Y-107167773D01*
X132995506Y-107082093D01*
X132869589Y-107041179D01*
X132811915Y-107001744D01*
X132784717Y-106937385D01*
X132796632Y-106868539D01*
X132843876Y-106817063D01*
X132869586Y-106805321D01*
X132995506Y-106764407D01*
X133163663Y-106678727D01*
X133316346Y-106567796D01*
X133449796Y-106434346D01*
X133560727Y-106281663D01*
X133646407Y-106113506D01*
X133704727Y-105934017D01*
X133717848Y-105851170D01*
X133734250Y-105747618D01*
X133734250Y-105558881D01*
X133704727Y-105372486D01*
X133704727Y-105372483D01*
X133646407Y-105192994D01*
X133560727Y-105024837D01*
X133449796Y-104872154D01*
X133316346Y-104738704D01*
X133163663Y-104627773D01*
X132995506Y-104542093D01*
X132869589Y-104501179D01*
X132811915Y-104461744D01*
X132784717Y-104397385D01*
X132796632Y-104328539D01*
X132843876Y-104277063D01*
X132869586Y-104265321D01*
X132995506Y-104224407D01*
X133163663Y-104138727D01*
X133316346Y-104027796D01*
X133449796Y-103894346D01*
X133560727Y-103741663D01*
X133646407Y-103573506D01*
X133704727Y-103394017D01*
X133717848Y-103311170D01*
X133734250Y-103207618D01*
X133734250Y-103018881D01*
X133709491Y-102862562D01*
X133704727Y-102832483D01*
X133646407Y-102652994D01*
X133560727Y-102484837D01*
X133449796Y-102332154D01*
X133316346Y-102198704D01*
X133163663Y-102087773D01*
X132995506Y-102002093D01*
X132869589Y-101961179D01*
X132811915Y-101921744D01*
X132784717Y-101857385D01*
X132796632Y-101788539D01*
X132843876Y-101737063D01*
X132869586Y-101725321D01*
X132995506Y-101684407D01*
X133163663Y-101598727D01*
X133316346Y-101487796D01*
X133449796Y-101354346D01*
X133560727Y-101201663D01*
X133646407Y-101033506D01*
X133704727Y-100854017D01*
X133717848Y-100771170D01*
X133734250Y-100667618D01*
X133734250Y-100478881D01*
X133711857Y-100337499D01*
X133704727Y-100292483D01*
X133646407Y-100112994D01*
X133560727Y-99944837D01*
X133449796Y-99792154D01*
X133316346Y-99658704D01*
X133163663Y-99547773D01*
X133116380Y-99523681D01*
X141729500Y-99523681D01*
X141729500Y-99866318D01*
X141767858Y-100206768D01*
X141767861Y-100206782D01*
X141844102Y-100540816D01*
X141844103Y-100540818D01*
X141957264Y-100864216D01*
X142105922Y-101172907D01*
X142123991Y-101201663D01*
X142288211Y-101463018D01*
X142501834Y-101730893D01*
X142744107Y-101973166D01*
X143011982Y-102186789D01*
X143302090Y-102369076D01*
X143610785Y-102517736D01*
X143934183Y-102630897D01*
X144268217Y-102707139D01*
X144268226Y-102707140D01*
X144268231Y-102707141D01*
X144495197Y-102732713D01*
X144608682Y-102745499D01*
X144608685Y-102745500D01*
X144608688Y-102745500D01*
X144951315Y-102745500D01*
X144951316Y-102745499D01*
X145125311Y-102725895D01*
X145291768Y-102707141D01*
X145291771Y-102707140D01*
X145291783Y-102707139D01*
X145625817Y-102630897D01*
X145949215Y-102517736D01*
X146257910Y-102369076D01*
X146548018Y-102186789D01*
X146815893Y-101973166D01*
X147058166Y-101730893D01*
X147271789Y-101463018D01*
X147454076Y-101172910D01*
X147602736Y-100864215D01*
X147715897Y-100540817D01*
X147792139Y-100206783D01*
X147794007Y-100190210D01*
X147810895Y-100040311D01*
X147830500Y-99866312D01*
X147830500Y-99523688D01*
X147796790Y-99224493D01*
X147792141Y-99183231D01*
X147792140Y-99183226D01*
X147792139Y-99183217D01*
X147715897Y-98849183D01*
X147602736Y-98525785D01*
X147500700Y-98313906D01*
X147454077Y-98217092D01*
X147384239Y-98105945D01*
X147271789Y-97926982D01*
X147058166Y-97659107D01*
X146815893Y-97416834D01*
X146548018Y-97203211D01*
X146270515Y-97028844D01*
X146257907Y-97020922D01*
X145949216Y-96872264D01*
X145625818Y-96759103D01*
X145625816Y-96759102D01*
X145332918Y-96692250D01*
X145291783Y-96682861D01*
X145291780Y-96682860D01*
X145291768Y-96682858D01*
X144951318Y-96644500D01*
X144951312Y-96644500D01*
X144608688Y-96644500D01*
X144608681Y-96644500D01*
X144268231Y-96682858D01*
X144268217Y-96682861D01*
X143934183Y-96759102D01*
X143934181Y-96759103D01*
X143610783Y-96872264D01*
X143302092Y-97020922D01*
X143011983Y-97203210D01*
X142744107Y-97416833D01*
X142501833Y-97659107D01*
X142288210Y-97926983D01*
X142105922Y-98217092D01*
X141957264Y-98525783D01*
X141844103Y-98849181D01*
X141844102Y-98849183D01*
X141767861Y-99183217D01*
X141767858Y-99183231D01*
X141729500Y-99523681D01*
X133116380Y-99523681D01*
X132995510Y-99462094D01*
X132946075Y-99446031D01*
X132868780Y-99420917D01*
X132811107Y-99381480D01*
X132783909Y-99317121D01*
X132795824Y-99248275D01*
X132843068Y-99196799D01*
X132868784Y-99185056D01*
X132995308Y-99143946D01*
X132995314Y-99143944D01*
X133163401Y-99058298D01*
X133316022Y-98947412D01*
X133449412Y-98814022D01*
X133560298Y-98661401D01*
X133645944Y-98493314D01*
X133645945Y-98493311D01*
X133704236Y-98313906D01*
X133709092Y-98283250D01*
X132003738Y-98283250D01*
X132020955Y-98273310D01*
X132076810Y-98217455D01*
X132116306Y-98149046D01*
X132136750Y-98072746D01*
X132136750Y-97993754D01*
X132116306Y-97917454D01*
X132076810Y-97849045D01*
X132020955Y-97793190D01*
X132003738Y-97783250D01*
X133709092Y-97783250D01*
X133704236Y-97752593D01*
X133645945Y-97573188D01*
X133645944Y-97573185D01*
X133560298Y-97405098D01*
X133449412Y-97252477D01*
X133316022Y-97119087D01*
X133163401Y-97008201D01*
X132995314Y-96922555D01*
X132995311Y-96922554D01*
X132868783Y-96881443D01*
X132811107Y-96842005D01*
X132783909Y-96777647D01*
X132795824Y-96708800D01*
X132843068Y-96657325D01*
X132868774Y-96645584D01*
X132995506Y-96604407D01*
X133163663Y-96518727D01*
X133316346Y-96407796D01*
X133449796Y-96274346D01*
X133560727Y-96121663D01*
X133646407Y-95953506D01*
X133704727Y-95774017D01*
X133718770Y-95685351D01*
X133734250Y-95587618D01*
X133734250Y-95398881D01*
X133704727Y-95212486D01*
X133704727Y-95212483D01*
X133646407Y-95032994D01*
X133560727Y-94864837D01*
X133449796Y-94712154D01*
X133316346Y-94578704D01*
X133163663Y-94467773D01*
X132995506Y-94382093D01*
X132816017Y-94323773D01*
X132816015Y-94323772D01*
X132816013Y-94323772D01*
X132629618Y-94294250D01*
X132629613Y-94294250D01*
X131043887Y-94294250D01*
X131043882Y-94294250D01*
X130857486Y-94323772D01*
X130677991Y-94382094D01*
X130509836Y-94467773D01*
X130422725Y-94531063D01*
X130357154Y-94578704D01*
X130357152Y-94578706D01*
X130357151Y-94578706D01*
X130223706Y-94712151D01*
X130223706Y-94712152D01*
X130223704Y-94712154D01*
X130176063Y-94777725D01*
X130112773Y-94864836D01*
X130027094Y-95032991D01*
X129968772Y-95212486D01*
X129939250Y-95398881D01*
X129939250Y-95587618D01*
X129954730Y-95685352D01*
X129968773Y-95774017D01*
X130027093Y-95953506D01*
X130112773Y-96121663D01*
X130223704Y-96274346D01*
X130357154Y-96407796D01*
X130509837Y-96518727D01*
X130677994Y-96604407D01*
X130804718Y-96645582D01*
X130862391Y-96685018D01*
X130889590Y-96749377D01*
X130877675Y-96818223D01*
X130830431Y-96869699D01*
X130804717Y-96881443D01*
X130678185Y-96922556D01*
X130510098Y-97008201D01*
X130357477Y-97119087D01*
X130224087Y-97252477D01*
X130113201Y-97405098D01*
X130027555Y-97573185D01*
X130027554Y-97573188D01*
X129969263Y-97752593D01*
X129964408Y-97783250D01*
X131669762Y-97783250D01*
X131652545Y-97793190D01*
X131596690Y-97849045D01*
X131557194Y-97917454D01*
X131536750Y-97993754D01*
X131536750Y-98072746D01*
X131557194Y-98149046D01*
X131596690Y-98217455D01*
X131652545Y-98273310D01*
X131669762Y-98283250D01*
X129964408Y-98283250D01*
X129969263Y-98313906D01*
X130027554Y-98493311D01*
X130027555Y-98493314D01*
X130113201Y-98661401D01*
X130224087Y-98814022D01*
X130357477Y-98947412D01*
X130510098Y-99058298D01*
X130678185Y-99143944D01*
X130678188Y-99143945D01*
X130804716Y-99185056D01*
X130862391Y-99224493D01*
X130889590Y-99288852D01*
X130877676Y-99357698D01*
X130830432Y-99409174D01*
X130804717Y-99420918D01*
X130677989Y-99462094D01*
X130509836Y-99547773D01*
X130422725Y-99611063D01*
X130357154Y-99658704D01*
X130357152Y-99658706D01*
X130357151Y-99658706D01*
X130223706Y-99792151D01*
X130223706Y-99792152D01*
X130223704Y-99792154D01*
X130176063Y-99857725D01*
X130112773Y-99944836D01*
X130027094Y-100112991D01*
X129968772Y-100292486D01*
X129939250Y-100478881D01*
X129939250Y-100667618D01*
X129968577Y-100852781D01*
X129968773Y-100854017D01*
X130027093Y-101033506D01*
X130112773Y-101201663D01*
X130223704Y-101354346D01*
X130357154Y-101487796D01*
X130509837Y-101598727D01*
X130677994Y-101684407D01*
X130803908Y-101725319D01*
X130861584Y-101764757D01*
X130888782Y-101829115D01*
X130876867Y-101897962D01*
X130829623Y-101949437D01*
X130803910Y-101961180D01*
X130679751Y-102001522D01*
X130677991Y-102002094D01*
X130509836Y-102087773D01*
X130422725Y-102151063D01*
X130357154Y-102198704D01*
X130357152Y-102198706D01*
X130357151Y-102198706D01*
X130223706Y-102332151D01*
X130223706Y-102332152D01*
X130223704Y-102332154D01*
X130157856Y-102422786D01*
X130129630Y-102461636D01*
X130074300Y-102504301D01*
X130029312Y-102512750D01*
X124848419Y-102512750D01*
X124848403Y-102512749D01*
X124840807Y-102512749D01*
X124682693Y-102512749D01*
X124529965Y-102553673D01*
X124529963Y-102553674D01*
X124508796Y-102565893D01*
X124508797Y-102565894D01*
X124393037Y-102632727D01*
X124393032Y-102632731D01*
X124281228Y-102744536D01*
X93119842Y-133905921D01*
X93058519Y-133939406D01*
X92993848Y-133936173D01*
X92979534Y-133931522D01*
X92804995Y-133903878D01*
X92777352Y-133899500D01*
X92572648Y-133899500D01*
X92548329Y-133903351D01*
X92370465Y-133931522D01*
X92175776Y-133994781D01*
X91993386Y-134087715D01*
X91827786Y-134208028D01*
X91683028Y-134352786D01*
X91562715Y-134518386D01*
X91469781Y-134700776D01*
X91406522Y-134895465D01*
X91374500Y-135097648D01*
X91374500Y-135302351D01*
X91406522Y-135504534D01*
X91469781Y-135699223D01*
X91508392Y-135775000D01*
X91559207Y-135874730D01*
X91562715Y-135881613D01*
X91683028Y-136047213D01*
X91827786Y-136191971D01*
X91993388Y-136312286D01*
X92046828Y-136339516D01*
X92097623Y-136387490D01*
X92114418Y-136455312D01*
X92091880Y-136521446D01*
X92046828Y-136560484D01*
X91993388Y-136587713D01*
X91827786Y-136708028D01*
X91683028Y-136852786D01*
X91562715Y-137018386D01*
X91469781Y-137200776D01*
X91406522Y-137395465D01*
X91374500Y-137597648D01*
X91374500Y-137802351D01*
X91406522Y-138004534D01*
X91469781Y-138199223D01*
X91522941Y-138303553D01*
X91560595Y-138377454D01*
X91562715Y-138381613D01*
X91683028Y-138547213D01*
X91827786Y-138691971D01*
X91993388Y-138812286D01*
X92046828Y-138839516D01*
X92097623Y-138887490D01*
X92114418Y-138955312D01*
X92091880Y-139021446D01*
X92046828Y-139060484D01*
X91993388Y-139087713D01*
X91827786Y-139208028D01*
X91683028Y-139352786D01*
X91562715Y-139518385D01*
X91555883Y-139531795D01*
X91507909Y-139582591D01*
X91445398Y-139599500D01*
X79306670Y-139599500D01*
X79306654Y-139599499D01*
X79299058Y-139599499D01*
X79140943Y-139599499D01*
X79064579Y-139619961D01*
X78988214Y-139640423D01*
X78988209Y-139640426D01*
X78851290Y-139719475D01*
X78851282Y-139719481D01*
X78632181Y-139938583D01*
X78570858Y-139972068D01*
X78501166Y-139967084D01*
X78445233Y-139925212D01*
X78420816Y-139859748D01*
X78420500Y-139850902D01*
X78420500Y-139179601D01*
X78440185Y-139112562D01*
X78488206Y-139069116D01*
X78501610Y-139062287D01*
X78667219Y-138941966D01*
X78811966Y-138797219D01*
X78811968Y-138797215D01*
X78811971Y-138797213D01*
X78864732Y-138724590D01*
X78932287Y-138631610D01*
X79025220Y-138449219D01*
X79088477Y-138254534D01*
X79120500Y-138052352D01*
X79120500Y-137847648D01*
X79101393Y-137727010D01*
X79088477Y-137645465D01*
X79038939Y-137493004D01*
X79025220Y-137450781D01*
X79025218Y-137450778D01*
X79025218Y-137450776D01*
X78989743Y-137381154D01*
X78932287Y-137268390D01*
X78900092Y-137224077D01*
X78811971Y-137102786D01*
X78667213Y-136958028D01*
X78501613Y-136837715D01*
X78501612Y-136837714D01*
X78501610Y-136837713D01*
X78417793Y-136795006D01*
X78319223Y-136744781D01*
X78124534Y-136681522D01*
X77949995Y-136653878D01*
X77922352Y-136649500D01*
X77717648Y-136649500D01*
X77693329Y-136653351D01*
X77515465Y-136681522D01*
X77320776Y-136744781D01*
X77138386Y-136837715D01*
X76972786Y-136958028D01*
X76828028Y-137102786D01*
X76707715Y-137268386D01*
X76614781Y-137450776D01*
X76551522Y-137645465D01*
X76519500Y-137847648D01*
X76519500Y-138052351D01*
X76551522Y-138254534D01*
X76614781Y-138449223D01*
X76673619Y-138564697D01*
X76707585Y-138631359D01*
X76707715Y-138631613D01*
X76828028Y-138797213D01*
X76828034Y-138797219D01*
X76972781Y-138941966D01*
X77138390Y-139062287D01*
X77151793Y-139069116D01*
X77202589Y-139117088D01*
X77219500Y-139179601D01*
X77219500Y-140394921D01*
X77199815Y-140461960D01*
X77151796Y-140505405D01*
X77088388Y-140537713D01*
X76922786Y-140658028D01*
X76778028Y-140802786D01*
X76657715Y-140968386D01*
X76564781Y-141150776D01*
X76501522Y-141345465D01*
X76469500Y-141547648D01*
X76469500Y-141752351D01*
X76501522Y-141954534D01*
X76564781Y-142149223D01*
X76657715Y-142331613D01*
X76778028Y-142497213D01*
X76922786Y-142641971D01*
X77077749Y-142754556D01*
X77088390Y-142762287D01*
X77167022Y-142802352D01*
X77270776Y-142855218D01*
X77270778Y-142855218D01*
X77270781Y-142855220D01*
X77347717Y-142880218D01*
X77465465Y-142918477D01*
X77566557Y-142934488D01*
X77667648Y-142950500D01*
X77667649Y-142950500D01*
X77872351Y-142950500D01*
X77872352Y-142950500D01*
X78074534Y-142918477D01*
X78269219Y-142855220D01*
X78451610Y-142762287D01*
X78544590Y-142694732D01*
X78617213Y-142641971D01*
X78617215Y-142641968D01*
X78617219Y-142641966D01*
X78761966Y-142497219D01*
X78761968Y-142497215D01*
X78761971Y-142497213D01*
X78835894Y-142395465D01*
X78882287Y-142331610D01*
X78975220Y-142149219D01*
X79038477Y-141954534D01*
X79070500Y-141752352D01*
X79070500Y-141547648D01*
X79038477Y-141345466D01*
X79033826Y-141331154D01*
X79031832Y-141261315D01*
X79064075Y-141205159D01*
X79432417Y-140836819D01*
X79493740Y-140803334D01*
X79520098Y-140800500D01*
X91445398Y-140800500D01*
X91512437Y-140820185D01*
X91555883Y-140868205D01*
X91562715Y-140881614D01*
X91683028Y-141047213D01*
X91827786Y-141191971D01*
X91993388Y-141312286D01*
X92046828Y-141339516D01*
X92097623Y-141387490D01*
X92114418Y-141455312D01*
X92091880Y-141521446D01*
X92046828Y-141560484D01*
X91993388Y-141587713D01*
X91827786Y-141708028D01*
X91683028Y-141852786D01*
X91562715Y-142018386D01*
X91469781Y-142200776D01*
X91406522Y-142395465D01*
X91374500Y-142597648D01*
X91374500Y-142802351D01*
X91406522Y-143004534D01*
X91469781Y-143199223D01*
X91562715Y-143381613D01*
X91683028Y-143547213D01*
X91827786Y-143691971D01*
X91993388Y-143812286D01*
X92046828Y-143839516D01*
X92097623Y-143887490D01*
X92114418Y-143955312D01*
X92091880Y-144021446D01*
X92046828Y-144060484D01*
X91993388Y-144087713D01*
X91827786Y-144208028D01*
X91683028Y-144352786D01*
X91562715Y-144518386D01*
X91469781Y-144700776D01*
X91406522Y-144895465D01*
X91374500Y-145097648D01*
X91374500Y-145302351D01*
X91406522Y-145504534D01*
X91469781Y-145699223D01*
X91533691Y-145824653D01*
X91560379Y-145877030D01*
X91562715Y-145881613D01*
X91683028Y-146047213D01*
X91827786Y-146191971D01*
X91993388Y-146312286D01*
X92046828Y-146339516D01*
X92097623Y-146387490D01*
X92114418Y-146455312D01*
X92091880Y-146521446D01*
X92046828Y-146560484D01*
X91993388Y-146587713D01*
X91827786Y-146708028D01*
X91683028Y-146852786D01*
X91562715Y-147018386D01*
X91469781Y-147200776D01*
X91406522Y-147395465D01*
X91374500Y-147597648D01*
X91374500Y-147802351D01*
X91406522Y-148004534D01*
X91469781Y-148199223D01*
X91562714Y-148381613D01*
X91579790Y-148405116D01*
X91603269Y-148470923D01*
X91587443Y-148538977D01*
X91537336Y-148587671D01*
X91479471Y-148602000D01*
X81894499Y-148602000D01*
X81827460Y-148582315D01*
X81781705Y-148529511D01*
X81770499Y-148478000D01*
X81770499Y-148102498D01*
X81770498Y-148102481D01*
X81759999Y-147999703D01*
X81759998Y-147999700D01*
X81747577Y-147962217D01*
X81704814Y-147833166D01*
X81612712Y-147683844D01*
X81488656Y-147559788D01*
X81339334Y-147467686D01*
X81172797Y-147412501D01*
X81172795Y-147412500D01*
X81070010Y-147402000D01*
X78869998Y-147402000D01*
X78869981Y-147402001D01*
X78767203Y-147412500D01*
X78767200Y-147412501D01*
X78600668Y-147467685D01*
X78600663Y-147467687D01*
X78451342Y-147559789D01*
X78327289Y-147683842D01*
X78235187Y-147833163D01*
X78235185Y-147833168D01*
X78230962Y-147845912D01*
X78180001Y-147999703D01*
X78180001Y-147999704D01*
X78180000Y-147999704D01*
X78169500Y-148102483D01*
X78169500Y-150302501D01*
X78169501Y-150302518D01*
X78180000Y-150405296D01*
X78180001Y-150405299D01*
X78230962Y-150559087D01*
X78235186Y-150571834D01*
X78327288Y-150721156D01*
X78451344Y-150845212D01*
X78600666Y-150937314D01*
X78767203Y-150992499D01*
X78869991Y-151003000D01*
X81070008Y-151002999D01*
X81172797Y-150992499D01*
X81339334Y-150937314D01*
X81488656Y-150845212D01*
X81612712Y-150721156D01*
X81704814Y-150571834D01*
X81759999Y-150405297D01*
X81770500Y-150302509D01*
X81770500Y-149927000D01*
X81790185Y-149859961D01*
X81842989Y-149814206D01*
X81894500Y-149803000D01*
X103247863Y-149803000D01*
X103314902Y-149822685D01*
X103360657Y-149875489D01*
X103370601Y-149944647D01*
X103341576Y-150008203D01*
X103335544Y-150014681D01*
X101437044Y-151913181D01*
X101375721Y-151946666D01*
X101349363Y-151949500D01*
X78617597Y-151949500D01*
X78550558Y-151929815D01*
X78529916Y-151913181D01*
X76655364Y-150038629D01*
X76621879Y-149977306D01*
X76626863Y-149907614D01*
X76628468Y-149903533D01*
X76678606Y-149782493D01*
X76739693Y-149554514D01*
X76770500Y-149320511D01*
X76770500Y-149084489D01*
X76739693Y-148850486D01*
X76678606Y-148622507D01*
X76588284Y-148404451D01*
X76588282Y-148404448D01*
X76588280Y-148404443D01*
X76546118Y-148331418D01*
X76470273Y-148200050D01*
X76326592Y-148012801D01*
X76326587Y-148012795D01*
X76159704Y-147845912D01*
X76159697Y-147845906D01*
X75972454Y-147702230D01*
X75972453Y-147702229D01*
X75972450Y-147702227D01*
X75890957Y-147655177D01*
X75768056Y-147584219D01*
X75768045Y-147584214D01*
X75549993Y-147493894D01*
X75322010Y-147432806D01*
X75088020Y-147402001D01*
X75088017Y-147402000D01*
X75088011Y-147402000D01*
X74851989Y-147402000D01*
X74851983Y-147402000D01*
X74851979Y-147402001D01*
X74617989Y-147432806D01*
X74390006Y-147493894D01*
X74171954Y-147584214D01*
X74171943Y-147584219D01*
X73967545Y-147702230D01*
X73780302Y-147845906D01*
X73780295Y-147845912D01*
X73613412Y-148012795D01*
X73613406Y-148012802D01*
X73469730Y-148200045D01*
X73351719Y-148404443D01*
X73351714Y-148404454D01*
X73261394Y-148622506D01*
X73200306Y-148850489D01*
X73169501Y-149084479D01*
X73169500Y-149084495D01*
X67496655Y-149084495D01*
X67602736Y-148864215D01*
X67715897Y-148540817D01*
X67792139Y-148206783D01*
X67792992Y-148199219D01*
X67827070Y-147896753D01*
X67830500Y-147866312D01*
X67830500Y-147523688D01*
X67794118Y-147200781D01*
X67792141Y-147183231D01*
X67792140Y-147183226D01*
X67792139Y-147183217D01*
X67715897Y-146849183D01*
X67602736Y-146525785D01*
X67454076Y-146217090D01*
X67271789Y-145926982D01*
X67058166Y-145659107D01*
X66815893Y-145416834D01*
X66548018Y-145203211D01*
X66257910Y-145020924D01*
X66257907Y-145020922D01*
X65949216Y-144872264D01*
X65625818Y-144759103D01*
X65625816Y-144759102D01*
X65368024Y-144700262D01*
X65291783Y-144682861D01*
X65291780Y-144682860D01*
X65291768Y-144682858D01*
X64951318Y-144644500D01*
X64951312Y-144644500D01*
X64608688Y-144644500D01*
X64608681Y-144644500D01*
X64268231Y-144682858D01*
X64268217Y-144682861D01*
X63934183Y-144759102D01*
X63934181Y-144759103D01*
X63610783Y-144872264D01*
X63302092Y-145020922D01*
X63011983Y-145203210D01*
X62744107Y-145416833D01*
X62501833Y-145659107D01*
X62288210Y-145926983D01*
X62105922Y-146217092D01*
X61957264Y-146525783D01*
X61844103Y-146849181D01*
X61844102Y-146849183D01*
X61767861Y-147183217D01*
X61767858Y-147183231D01*
X61729500Y-147523681D01*
X57250500Y-147523681D01*
X57250500Y-141572648D01*
X58604500Y-141572648D01*
X58604500Y-141777351D01*
X58636522Y-141979534D01*
X58699781Y-142174223D01*
X58751385Y-142275500D01*
X58779976Y-142331613D01*
X58792715Y-142356613D01*
X58913028Y-142522213D01*
X59057786Y-142666971D01*
X59188976Y-142762284D01*
X59223390Y-142787287D01*
X59339607Y-142846503D01*
X59405776Y-142880218D01*
X59405778Y-142880218D01*
X59405781Y-142880220D01*
X59510137Y-142914127D01*
X59600465Y-142943477D01*
X59701557Y-142959488D01*
X59802648Y-142975500D01*
X59802649Y-142975500D01*
X60007351Y-142975500D01*
X60007352Y-142975500D01*
X60209534Y-142943477D01*
X60404219Y-142880220D01*
X60586610Y-142787287D01*
X60679590Y-142719732D01*
X60752213Y-142666971D01*
X60752215Y-142666968D01*
X60752219Y-142666966D01*
X60896966Y-142522219D01*
X60896968Y-142522215D01*
X60896971Y-142522213D01*
X60949732Y-142449590D01*
X61017287Y-142356610D01*
X61110220Y-142174219D01*
X61173477Y-141979534D01*
X61205500Y-141777352D01*
X61205500Y-141572648D01*
X66224500Y-141572648D01*
X66224500Y-141777351D01*
X66256522Y-141979534D01*
X66319781Y-142174223D01*
X66371385Y-142275500D01*
X66399976Y-142331613D01*
X66412715Y-142356613D01*
X66533028Y-142522213D01*
X66677786Y-142666971D01*
X66808976Y-142762284D01*
X66843390Y-142787287D01*
X66959607Y-142846503D01*
X67025776Y-142880218D01*
X67025778Y-142880218D01*
X67025781Y-142880220D01*
X67130137Y-142914127D01*
X67220465Y-142943477D01*
X67321557Y-142959488D01*
X67422648Y-142975500D01*
X67422649Y-142975500D01*
X67627351Y-142975500D01*
X67627352Y-142975500D01*
X67829534Y-142943477D01*
X68024219Y-142880220D01*
X68206610Y-142787287D01*
X68299590Y-142719732D01*
X68372213Y-142666971D01*
X68372215Y-142666968D01*
X68372219Y-142666966D01*
X68516966Y-142522219D01*
X68516968Y-142522215D01*
X68516971Y-142522213D01*
X68637284Y-142356614D01*
X68637285Y-142356613D01*
X68637287Y-142356610D01*
X68644117Y-142343204D01*
X68654566Y-142332140D01*
X68660889Y-142318297D01*
X68678068Y-142307256D01*
X68692091Y-142292409D01*
X68707772Y-142288167D01*
X68719667Y-142280523D01*
X68754602Y-142275500D01*
X68933885Y-142275500D01*
X69000924Y-142295185D01*
X69033606Y-142328571D01*
X69034849Y-142327669D01*
X69158028Y-142497213D01*
X69302786Y-142641971D01*
X69457749Y-142754556D01*
X69468390Y-142762287D01*
X69547022Y-142802352D01*
X69650776Y-142855218D01*
X69650778Y-142855218D01*
X69650781Y-142855220D01*
X69727717Y-142880218D01*
X69845465Y-142918477D01*
X69946557Y-142934488D01*
X70047648Y-142950500D01*
X70047649Y-142950500D01*
X70252351Y-142950500D01*
X70252352Y-142950500D01*
X70454534Y-142918477D01*
X70649219Y-142855220D01*
X70831610Y-142762287D01*
X70924590Y-142694732D01*
X70997213Y-142641971D01*
X70997215Y-142641968D01*
X70997219Y-142641966D01*
X71141966Y-142497219D01*
X71141968Y-142497215D01*
X71141971Y-142497213D01*
X71215894Y-142395465D01*
X71262287Y-142331610D01*
X71355220Y-142149219D01*
X71418477Y-141954534D01*
X71450500Y-141752352D01*
X71450500Y-141547648D01*
X71425133Y-141387490D01*
X71418477Y-141345465D01*
X71355218Y-141150776D01*
X71302449Y-141047213D01*
X71262287Y-140968390D01*
X71254556Y-140957749D01*
X71141971Y-140802786D01*
X70997213Y-140658028D01*
X70831613Y-140537715D01*
X70831612Y-140537714D01*
X70831610Y-140537713D01*
X70766263Y-140504417D01*
X70649223Y-140444781D01*
X70454534Y-140381522D01*
X70279995Y-140353878D01*
X70252352Y-140349500D01*
X70047648Y-140349500D01*
X70023329Y-140353351D01*
X69845465Y-140381522D01*
X69650776Y-140444781D01*
X69468386Y-140537715D01*
X69302786Y-140658028D01*
X69158028Y-140802786D01*
X69037713Y-140968388D01*
X69018145Y-141006794D01*
X69007695Y-141017858D01*
X69001373Y-141031703D01*
X68984193Y-141042743D01*
X68970171Y-141057591D01*
X68954489Y-141061832D01*
X68942595Y-141069477D01*
X68907660Y-141074500D01*
X68754602Y-141074500D01*
X68687563Y-141054815D01*
X68644117Y-141006795D01*
X68637287Y-140993390D01*
X68637285Y-140993387D01*
X68637284Y-140993385D01*
X68516971Y-140827786D01*
X68372213Y-140683028D01*
X68206613Y-140562715D01*
X68206612Y-140562714D01*
X68206610Y-140562713D01*
X68149653Y-140533691D01*
X68024223Y-140469781D01*
X67829534Y-140406522D01*
X67654995Y-140378878D01*
X67627352Y-140374500D01*
X67422648Y-140374500D01*
X67398329Y-140378351D01*
X67220465Y-140406522D01*
X67025776Y-140469781D01*
X66843386Y-140562715D01*
X66677786Y-140683028D01*
X66533028Y-140827786D01*
X66412715Y-140993386D01*
X66319781Y-141175776D01*
X66256522Y-141370465D01*
X66224500Y-141572648D01*
X61205500Y-141572648D01*
X61178076Y-141399500D01*
X61173477Y-141370465D01*
X61110218Y-141175776D01*
X61076503Y-141109607D01*
X61017287Y-140993390D01*
X60999121Y-140968386D01*
X60896971Y-140827786D01*
X60752213Y-140683028D01*
X60586613Y-140562715D01*
X60586612Y-140562714D01*
X60586610Y-140562713D01*
X60529653Y-140533691D01*
X60404223Y-140469781D01*
X60209534Y-140406522D01*
X60034995Y-140378878D01*
X60007352Y-140374500D01*
X59802648Y-140374500D01*
X59778329Y-140378351D01*
X59600465Y-140406522D01*
X59405776Y-140469781D01*
X59223386Y-140562715D01*
X59057786Y-140683028D01*
X58913028Y-140827786D01*
X58792715Y-140993386D01*
X58699781Y-141175776D01*
X58636522Y-141370465D01*
X58604500Y-141572648D01*
X57250500Y-141572648D01*
X57250500Y-137847682D01*
X68900000Y-137847682D01*
X68900000Y-138052317D01*
X68932009Y-138254417D01*
X68995244Y-138449031D01*
X69088141Y-138631350D01*
X69088147Y-138631359D01*
X69120523Y-138675921D01*
X69120524Y-138675922D01*
X69800000Y-137996446D01*
X69800000Y-138002661D01*
X69827259Y-138104394D01*
X69879920Y-138195606D01*
X69954394Y-138270080D01*
X70045606Y-138322741D01*
X70147339Y-138350000D01*
X70153553Y-138350000D01*
X69474076Y-139029474D01*
X69518650Y-139061859D01*
X69700968Y-139154755D01*
X69895582Y-139217990D01*
X70097683Y-139250000D01*
X70302317Y-139250000D01*
X70504417Y-139217990D01*
X70699031Y-139154755D01*
X70881349Y-139061859D01*
X70925921Y-139029474D01*
X70246447Y-138350000D01*
X70252661Y-138350000D01*
X70354394Y-138322741D01*
X70445606Y-138270080D01*
X70520080Y-138195606D01*
X70572741Y-138104394D01*
X70600000Y-138002661D01*
X70600000Y-137996447D01*
X71279474Y-138675921D01*
X71311859Y-138631349D01*
X71404755Y-138449031D01*
X71467990Y-138254417D01*
X71500000Y-138052317D01*
X71500000Y-137847682D01*
X71467990Y-137645582D01*
X71404755Y-137450968D01*
X71311859Y-137268650D01*
X71279474Y-137224077D01*
X71279474Y-137224076D01*
X70600000Y-137903551D01*
X70600000Y-137897339D01*
X70572741Y-137795606D01*
X70520080Y-137704394D01*
X70445606Y-137629920D01*
X70354394Y-137577259D01*
X70252661Y-137550000D01*
X70246446Y-137550000D01*
X70925922Y-136870524D01*
X70925921Y-136870523D01*
X70881359Y-136838147D01*
X70881350Y-136838141D01*
X70699031Y-136745244D01*
X70504417Y-136682009D01*
X70302317Y-136650000D01*
X70097683Y-136650000D01*
X69895582Y-136682009D01*
X69700968Y-136745244D01*
X69518644Y-136838143D01*
X69474077Y-136870523D01*
X69474077Y-136870524D01*
X70153554Y-137550000D01*
X70147339Y-137550000D01*
X70045606Y-137577259D01*
X69954394Y-137629920D01*
X69879920Y-137704394D01*
X69827259Y-137795606D01*
X69800000Y-137897339D01*
X69800000Y-137903553D01*
X69120524Y-137224077D01*
X69120523Y-137224077D01*
X69088143Y-137268644D01*
X68995244Y-137450968D01*
X68932009Y-137645582D01*
X68900000Y-137847682D01*
X57250500Y-137847682D01*
X57250500Y-134372682D01*
X58840000Y-134372682D01*
X58840000Y-134577317D01*
X58872009Y-134779417D01*
X58935244Y-134974031D01*
X59028141Y-135156350D01*
X59028147Y-135156359D01*
X59060523Y-135200921D01*
X59060524Y-135200922D01*
X59740000Y-134521446D01*
X59740000Y-134527661D01*
X59767259Y-134629394D01*
X59819920Y-134720606D01*
X59894394Y-134795080D01*
X59985606Y-134847741D01*
X60087339Y-134875000D01*
X60093553Y-134875000D01*
X59414076Y-135554474D01*
X59458650Y-135586859D01*
X59640968Y-135679755D01*
X59835582Y-135742990D01*
X60037683Y-135775000D01*
X60242317Y-135775000D01*
X60444417Y-135742990D01*
X60639031Y-135679755D01*
X60821349Y-135586859D01*
X60865921Y-135554474D01*
X60186447Y-134875000D01*
X60192661Y-134875000D01*
X60294394Y-134847741D01*
X60385606Y-134795080D01*
X60460080Y-134720606D01*
X60512741Y-134629394D01*
X60540000Y-134527661D01*
X60540000Y-134521448D01*
X61219474Y-135200922D01*
X61219474Y-135200921D01*
X61251859Y-135156349D01*
X61344755Y-134974031D01*
X61407990Y-134779417D01*
X61440000Y-134577317D01*
X61440000Y-134372682D01*
X61407990Y-134170582D01*
X61344755Y-133975968D01*
X61251859Y-133793650D01*
X61219474Y-133749077D01*
X61219474Y-133749076D01*
X60540000Y-134428551D01*
X60540000Y-134422339D01*
X60512741Y-134320606D01*
X60460080Y-134229394D01*
X60385606Y-134154920D01*
X60294394Y-134102259D01*
X60192661Y-134075000D01*
X60186446Y-134075000D01*
X60865922Y-133395524D01*
X60865921Y-133395523D01*
X60821359Y-133363147D01*
X60821350Y-133363141D01*
X60639031Y-133270244D01*
X60444417Y-133207009D01*
X60242317Y-133175000D01*
X60037683Y-133175000D01*
X59835582Y-133207009D01*
X59640968Y-133270244D01*
X59458644Y-133363143D01*
X59414077Y-133395523D01*
X59414077Y-133395524D01*
X60093554Y-134075000D01*
X60087339Y-134075000D01*
X59985606Y-134102259D01*
X59894394Y-134154920D01*
X59819920Y-134229394D01*
X59767259Y-134320606D01*
X59740000Y-134422339D01*
X59740000Y-134428553D01*
X59060524Y-133749077D01*
X59060523Y-133749077D01*
X59028143Y-133793644D01*
X58935244Y-133975968D01*
X58872009Y-134170582D01*
X58840000Y-134372682D01*
X57250500Y-134372682D01*
X57250500Y-125323945D01*
X64409500Y-125323945D01*
X64409500Y-126076054D01*
X64439553Y-126265802D01*
X64498916Y-126448506D01*
X64498918Y-126448509D01*
X64586135Y-126619681D01*
X64699055Y-126775102D01*
X64834898Y-126910945D01*
X64990319Y-127023865D01*
X65156300Y-127108437D01*
X65161493Y-127111083D01*
X65252845Y-127140764D01*
X65344199Y-127170447D01*
X65533945Y-127200500D01*
X65533946Y-127200500D01*
X65726054Y-127200500D01*
X65726055Y-127200500D01*
X65915801Y-127170447D01*
X66098509Y-127111082D01*
X66269681Y-127023865D01*
X66425102Y-126910945D01*
X66560945Y-126775102D01*
X66673865Y-126619681D01*
X66761082Y-126448509D01*
X66761144Y-126448319D01*
X66782069Y-126383919D01*
X66821506Y-126326243D01*
X66885864Y-126299044D01*
X66954711Y-126310958D01*
X67006187Y-126358202D01*
X67017931Y-126383919D01*
X67038915Y-126448504D01*
X67038918Y-126448509D01*
X67126135Y-126619681D01*
X67239055Y-126775102D01*
X67374898Y-126910945D01*
X67530319Y-127023865D01*
X67696300Y-127108437D01*
X67701493Y-127111083D01*
X67792845Y-127140764D01*
X67884199Y-127170447D01*
X68073945Y-127200500D01*
X68073946Y-127200500D01*
X68266054Y-127200500D01*
X68266055Y-127200500D01*
X68455801Y-127170447D01*
X68638509Y-127111082D01*
X68809681Y-127023865D01*
X68965102Y-126910945D01*
X69100945Y-126775102D01*
X69213865Y-126619681D01*
X69301082Y-126448509D01*
X69301144Y-126448319D01*
X69322069Y-126383919D01*
X69361506Y-126326243D01*
X69425864Y-126299044D01*
X69494711Y-126310958D01*
X69546187Y-126358202D01*
X69557931Y-126383919D01*
X69578915Y-126448504D01*
X69578918Y-126448509D01*
X69666135Y-126619681D01*
X69779055Y-126775102D01*
X69914898Y-126910945D01*
X70070319Y-127023865D01*
X70236300Y-127108437D01*
X70241493Y-127111083D01*
X70332845Y-127140764D01*
X70424199Y-127170447D01*
X70613945Y-127200500D01*
X70613946Y-127200500D01*
X70806054Y-127200500D01*
X70806055Y-127200500D01*
X70995801Y-127170447D01*
X71178509Y-127111082D01*
X71349681Y-127023865D01*
X71505102Y-126910945D01*
X71640945Y-126775102D01*
X71753865Y-126619681D01*
X71841082Y-126448509D01*
X71841144Y-126448319D01*
X71862069Y-126383919D01*
X71901506Y-126326243D01*
X71965864Y-126299044D01*
X72034711Y-126310958D01*
X72086187Y-126358202D01*
X72097931Y-126383919D01*
X72118915Y-126448504D01*
X72118918Y-126448509D01*
X72206135Y-126619681D01*
X72319055Y-126775102D01*
X72454898Y-126910945D01*
X72610319Y-127023865D01*
X72776300Y-127108437D01*
X72781493Y-127111083D01*
X72872845Y-127140764D01*
X72964199Y-127170447D01*
X73153945Y-127200500D01*
X73153946Y-127200500D01*
X73346054Y-127200500D01*
X73346055Y-127200500D01*
X73535801Y-127170447D01*
X73718509Y-127111082D01*
X73889681Y-127023865D01*
X74045102Y-126910945D01*
X74180945Y-126775102D01*
X74293865Y-126619681D01*
X74381082Y-126448509D01*
X74381144Y-126448319D01*
X74402069Y-126383919D01*
X74441506Y-126326243D01*
X74505864Y-126299044D01*
X74574711Y-126310958D01*
X74626187Y-126358202D01*
X74637931Y-126383919D01*
X74658915Y-126448504D01*
X74658918Y-126448509D01*
X74746135Y-126619681D01*
X74859055Y-126775102D01*
X74994898Y-126910945D01*
X75150319Y-127023865D01*
X75316300Y-127108437D01*
X75321493Y-127111083D01*
X75412845Y-127140764D01*
X75504199Y-127170447D01*
X75693945Y-127200500D01*
X75693946Y-127200500D01*
X75886054Y-127200500D01*
X75886055Y-127200500D01*
X76075801Y-127170447D01*
X76258509Y-127111082D01*
X76429681Y-127023865D01*
X76585102Y-126910945D01*
X76720945Y-126775102D01*
X76833865Y-126619681D01*
X76921082Y-126448509D01*
X76921144Y-126448319D01*
X76942332Y-126383109D01*
X76981769Y-126325433D01*
X77046127Y-126298234D01*
X77114973Y-126310148D01*
X77166450Y-126357392D01*
X77178194Y-126383107D01*
X77199383Y-126448321D01*
X77286565Y-126619422D01*
X77399430Y-126774769D01*
X77399434Y-126774774D01*
X77535225Y-126910565D01*
X77535230Y-126910569D01*
X77690577Y-127023434D01*
X77861680Y-127110616D01*
X78044315Y-127169959D01*
X78079999Y-127175610D01*
X78080000Y-127175609D01*
X78080000Y-126133012D01*
X78137007Y-126165925D01*
X78264174Y-126200000D01*
X78395826Y-126200000D01*
X78522993Y-126165925D01*
X78580000Y-126133012D01*
X78580000Y-127175610D01*
X78615684Y-127169959D01*
X78798319Y-127110616D01*
X78969422Y-127023434D01*
X79124769Y-126910569D01*
X79124774Y-126910565D01*
X79260565Y-126774774D01*
X79260569Y-126774769D01*
X79373434Y-126619422D01*
X79460616Y-126448319D01*
X79481805Y-126383108D01*
X79521242Y-126325433D01*
X79585600Y-126298234D01*
X79654447Y-126310148D01*
X79705923Y-126357392D01*
X79717667Y-126383108D01*
X79738916Y-126448505D01*
X79738917Y-126448506D01*
X79738918Y-126448509D01*
X79826135Y-126619681D01*
X79939055Y-126775102D01*
X80074898Y-126910945D01*
X80230319Y-127023865D01*
X80396300Y-127108437D01*
X80401493Y-127111083D01*
X80492845Y-127140764D01*
X80584199Y-127170447D01*
X80773945Y-127200500D01*
X80773946Y-127200500D01*
X80966054Y-127200500D01*
X80966055Y-127200500D01*
X81155801Y-127170447D01*
X81338509Y-127111082D01*
X81509681Y-127023865D01*
X81665102Y-126910945D01*
X81800945Y-126775102D01*
X81913865Y-126619681D01*
X82001082Y-126448509D01*
X82001144Y-126448319D01*
X82022069Y-126383919D01*
X82061506Y-126326243D01*
X82125864Y-126299044D01*
X82194711Y-126310958D01*
X82246187Y-126358202D01*
X82257931Y-126383919D01*
X82278915Y-126448504D01*
X82278918Y-126448509D01*
X82366135Y-126619681D01*
X82479055Y-126775102D01*
X82614898Y-126910945D01*
X82770319Y-127023865D01*
X82936300Y-127108437D01*
X82941493Y-127111083D01*
X83032845Y-127140764D01*
X83124199Y-127170447D01*
X83313945Y-127200500D01*
X83313946Y-127200500D01*
X83506054Y-127200500D01*
X83506055Y-127200500D01*
X83695801Y-127170447D01*
X83878509Y-127111082D01*
X84049681Y-127023865D01*
X84205102Y-126910945D01*
X84340945Y-126775102D01*
X84453865Y-126619681D01*
X84541082Y-126448509D01*
X84541144Y-126448319D01*
X84562069Y-126383919D01*
X84601506Y-126326243D01*
X84665864Y-126299044D01*
X84734711Y-126310958D01*
X84786187Y-126358202D01*
X84797931Y-126383919D01*
X84818915Y-126448504D01*
X84818918Y-126448509D01*
X84906135Y-126619681D01*
X85019055Y-126775102D01*
X85154898Y-126910945D01*
X85310319Y-127023865D01*
X85476300Y-127108437D01*
X85481493Y-127111083D01*
X85572845Y-127140764D01*
X85664199Y-127170447D01*
X85853945Y-127200500D01*
X85853946Y-127200500D01*
X86046054Y-127200500D01*
X86046055Y-127200500D01*
X86235801Y-127170447D01*
X86418509Y-127111082D01*
X86589681Y-127023865D01*
X86745102Y-126910945D01*
X86880945Y-126775102D01*
X86993865Y-126619681D01*
X87081082Y-126448509D01*
X87081144Y-126448319D01*
X87102069Y-126383919D01*
X87141506Y-126326243D01*
X87205864Y-126299044D01*
X87274711Y-126310958D01*
X87326187Y-126358202D01*
X87337931Y-126383919D01*
X87358915Y-126448504D01*
X87358918Y-126448509D01*
X87446135Y-126619681D01*
X87559055Y-126775102D01*
X87694898Y-126910945D01*
X87850319Y-127023865D01*
X88016300Y-127108437D01*
X88021493Y-127111083D01*
X88112845Y-127140764D01*
X88204199Y-127170447D01*
X88393945Y-127200500D01*
X88393946Y-127200500D01*
X88586054Y-127200500D01*
X88586055Y-127200500D01*
X88775801Y-127170447D01*
X88958509Y-127111082D01*
X89129681Y-127023865D01*
X89285102Y-126910945D01*
X89420945Y-126775102D01*
X89533865Y-126619681D01*
X89621082Y-126448509D01*
X89621144Y-126448319D01*
X89642069Y-126383919D01*
X89681506Y-126326243D01*
X89745864Y-126299044D01*
X89814711Y-126310958D01*
X89866187Y-126358202D01*
X89877931Y-126383919D01*
X89898915Y-126448504D01*
X89898918Y-126448509D01*
X89986135Y-126619681D01*
X90099055Y-126775102D01*
X90234898Y-126910945D01*
X90390319Y-127023865D01*
X90556300Y-127108437D01*
X90561493Y-127111083D01*
X90652845Y-127140764D01*
X90744199Y-127170447D01*
X90933945Y-127200500D01*
X90933946Y-127200500D01*
X91126054Y-127200500D01*
X91126055Y-127200500D01*
X91315801Y-127170447D01*
X91498509Y-127111082D01*
X91669681Y-127023865D01*
X91825102Y-126910945D01*
X91960945Y-126775102D01*
X92073865Y-126619681D01*
X92161082Y-126448509D01*
X92161144Y-126448319D01*
X92182069Y-126383919D01*
X92221506Y-126326243D01*
X92285864Y-126299044D01*
X92354711Y-126310958D01*
X92406187Y-126358202D01*
X92417931Y-126383919D01*
X92438915Y-126448504D01*
X92438918Y-126448509D01*
X92526135Y-126619681D01*
X92639055Y-126775102D01*
X92774898Y-126910945D01*
X92930319Y-127023865D01*
X93096300Y-127108437D01*
X93101493Y-127111083D01*
X93192845Y-127140764D01*
X93284199Y-127170447D01*
X93473945Y-127200500D01*
X93473946Y-127200500D01*
X93478757Y-127201262D01*
X93478473Y-127203051D01*
X93536502Y-127225160D01*
X93577980Y-127281386D01*
X93582475Y-127351111D01*
X93549178Y-127411584D01*
X91272584Y-129688181D01*
X91211261Y-129721666D01*
X91184903Y-129724500D01*
X71989057Y-129724500D01*
X71830942Y-129724500D01*
X71678215Y-129765423D01*
X71678214Y-129765423D01*
X71678212Y-129765424D01*
X71678209Y-129765425D01*
X71628096Y-129794359D01*
X71628095Y-129794360D01*
X71584689Y-129819420D01*
X71541285Y-129844479D01*
X71541282Y-129844481D01*
X71429478Y-129956286D01*
X68204842Y-133180921D01*
X68143519Y-133214406D01*
X68078848Y-133211173D01*
X68064534Y-133206522D01*
X67889995Y-133178878D01*
X67862352Y-133174500D01*
X67657648Y-133174500D01*
X67633329Y-133178351D01*
X67455465Y-133206522D01*
X67260776Y-133269781D01*
X67078386Y-133362715D01*
X66912786Y-133483028D01*
X66768028Y-133627786D01*
X66647715Y-133793386D01*
X66554781Y-133975776D01*
X66491522Y-134170465D01*
X66459500Y-134372648D01*
X66459500Y-134577351D01*
X66491522Y-134779534D01*
X66554781Y-134974223D01*
X66617670Y-135097648D01*
X66647585Y-135156359D01*
X66647715Y-135156613D01*
X66768028Y-135322213D01*
X66912786Y-135466971D01*
X67033226Y-135554474D01*
X67078390Y-135587287D01*
X67142026Y-135619711D01*
X67260776Y-135680218D01*
X67260778Y-135680218D01*
X67260781Y-135680220D01*
X67365137Y-135714127D01*
X67455465Y-135743477D01*
X67539040Y-135756714D01*
X67657648Y-135775500D01*
X67657649Y-135775500D01*
X67862351Y-135775500D01*
X67862352Y-135775500D01*
X68064534Y-135743477D01*
X68259219Y-135680220D01*
X68441610Y-135587287D01*
X68507929Y-135539103D01*
X68552259Y-135506897D01*
X68552260Y-135506896D01*
X68607215Y-135466969D01*
X68607215Y-135466968D01*
X68607219Y-135466966D01*
X68751966Y-135322219D01*
X68850353Y-135186798D01*
X68905682Y-135144133D01*
X68975295Y-135138153D01*
X69037090Y-135170759D01*
X69061156Y-135203389D01*
X69088141Y-135256350D01*
X69088147Y-135256359D01*
X69120523Y-135300921D01*
X69120524Y-135300922D01*
X69800000Y-134621446D01*
X69800000Y-134627661D01*
X69827259Y-134729394D01*
X69879920Y-134820606D01*
X69954394Y-134895080D01*
X70045606Y-134947741D01*
X70147339Y-134975000D01*
X70153553Y-134975000D01*
X69474076Y-135654474D01*
X69518650Y-135686859D01*
X69700968Y-135779755D01*
X69895582Y-135842990D01*
X70097683Y-135875000D01*
X70302317Y-135875000D01*
X70504417Y-135842990D01*
X70699031Y-135779755D01*
X70881349Y-135686859D01*
X70925921Y-135654474D01*
X70246447Y-134975000D01*
X70252661Y-134975000D01*
X70354394Y-134947741D01*
X70445606Y-134895080D01*
X70520080Y-134820606D01*
X70572741Y-134729394D01*
X70600000Y-134627661D01*
X70600000Y-134621447D01*
X71279474Y-135300921D01*
X71311859Y-135256349D01*
X71404755Y-135074031D01*
X71467990Y-134879417D01*
X71500000Y-134677317D01*
X71500000Y-134472682D01*
X71467990Y-134270582D01*
X71404755Y-134075968D01*
X71311859Y-133893650D01*
X71279474Y-133849077D01*
X71279474Y-133849076D01*
X70600000Y-134528551D01*
X70600000Y-134522339D01*
X70572741Y-134420606D01*
X70520080Y-134329394D01*
X70445606Y-134254920D01*
X70354394Y-134202259D01*
X70252661Y-134175000D01*
X70246446Y-134175000D01*
X70925922Y-133495524D01*
X70925921Y-133495523D01*
X70881359Y-133463147D01*
X70881350Y-133463141D01*
X70699031Y-133370244D01*
X70504417Y-133307009D01*
X70302317Y-133275000D01*
X70108596Y-133275000D01*
X70041557Y-133255315D01*
X69995802Y-133202511D01*
X69985858Y-133133353D01*
X70014883Y-133069797D01*
X70020915Y-133063319D01*
X70590358Y-132493877D01*
X72122416Y-130961819D01*
X72183739Y-130928334D01*
X72210097Y-130925500D01*
X91398331Y-130925500D01*
X91398347Y-130925501D01*
X91405943Y-130925501D01*
X91564054Y-130925501D01*
X91564057Y-130925501D01*
X91716785Y-130884577D01*
X91766904Y-130855639D01*
X91853716Y-130805520D01*
X91965520Y-130693716D01*
X91965520Y-130693714D01*
X91975728Y-130683507D01*
X91975730Y-130683504D01*
X95517313Y-127141920D01*
X95578634Y-127108437D01*
X95643306Y-127111671D01*
X95824199Y-127170447D01*
X96013945Y-127200500D01*
X96013946Y-127200500D01*
X96018757Y-127201262D01*
X96018473Y-127203052D01*
X96076500Y-127225157D01*
X96117979Y-127281382D01*
X96122477Y-127351106D01*
X96089179Y-127411584D01*
X92362584Y-131138181D01*
X92301261Y-131171666D01*
X92274903Y-131174500D01*
X80706669Y-131174500D01*
X80706653Y-131174499D01*
X80699057Y-131174499D01*
X80540943Y-131174499D01*
X80433587Y-131203265D01*
X80388210Y-131215424D01*
X80388209Y-131215425D01*
X80338096Y-131244359D01*
X80338095Y-131244360D01*
X80294689Y-131269420D01*
X80251285Y-131294479D01*
X80251282Y-131294481D01*
X80139478Y-131406286D01*
X78264842Y-133280921D01*
X78203519Y-133314406D01*
X78138848Y-133311173D01*
X78124534Y-133306522D01*
X77949995Y-133278878D01*
X77922352Y-133274500D01*
X77717648Y-133274500D01*
X77693329Y-133278351D01*
X77515465Y-133306522D01*
X77320776Y-133369781D01*
X77138386Y-133462715D01*
X76972786Y-133583028D01*
X76828028Y-133727786D01*
X76707715Y-133893386D01*
X76614781Y-134075776D01*
X76551522Y-134270465D01*
X76519500Y-134472648D01*
X76519500Y-134677351D01*
X76551522Y-134879534D01*
X76614781Y-135074223D01*
X76672143Y-135186800D01*
X76707585Y-135256359D01*
X76707715Y-135256613D01*
X76828028Y-135422213D01*
X76972786Y-135566971D01*
X77093226Y-135654474D01*
X77138390Y-135687287D01*
X77247713Y-135742990D01*
X77320776Y-135780218D01*
X77320778Y-135780218D01*
X77320781Y-135780220D01*
X77425137Y-135814127D01*
X77515465Y-135843477D01*
X77616557Y-135859488D01*
X77717648Y-135875500D01*
X77717649Y-135875500D01*
X77922351Y-135875500D01*
X77922352Y-135875500D01*
X78124534Y-135843477D01*
X78319219Y-135780220D01*
X78501610Y-135687287D01*
X78614448Y-135605306D01*
X78667213Y-135566971D01*
X78667215Y-135566968D01*
X78667219Y-135566966D01*
X78811966Y-135422219D01*
X78811968Y-135422215D01*
X78811971Y-135422213D01*
X78882445Y-135325212D01*
X78932287Y-135256610D01*
X79025220Y-135074219D01*
X79088477Y-134879534D01*
X79120500Y-134677352D01*
X79120500Y-134472648D01*
X79088477Y-134270466D01*
X79083825Y-134256151D01*
X79081832Y-134186312D01*
X79114075Y-134130158D01*
X80832416Y-132411819D01*
X80893739Y-132378334D01*
X80920097Y-132375500D01*
X92488331Y-132375500D01*
X92488347Y-132375501D01*
X92495943Y-132375501D01*
X92654054Y-132375501D01*
X92654057Y-132375501D01*
X92806785Y-132334577D01*
X92856904Y-132305639D01*
X92943716Y-132255520D01*
X93055520Y-132143716D01*
X93055520Y-132143714D01*
X93065728Y-132133507D01*
X93065730Y-132133504D01*
X98057313Y-127141920D01*
X98118634Y-127108437D01*
X98183306Y-127111671D01*
X98364199Y-127170447D01*
X98553945Y-127200500D01*
X98553946Y-127200500D01*
X98746054Y-127200500D01*
X98746055Y-127200500D01*
X98935801Y-127170447D01*
X99118509Y-127111082D01*
X99289681Y-127023865D01*
X99445102Y-126910945D01*
X99580945Y-126775102D01*
X99693865Y-126619681D01*
X99781082Y-126448509D01*
X99840447Y-126265801D01*
X99870500Y-126076055D01*
X99870500Y-125323945D01*
X99840447Y-125134199D01*
X99802331Y-125016890D01*
X99781083Y-124951493D01*
X99693864Y-124780318D01*
X99580945Y-124624898D01*
X99445102Y-124489055D01*
X99289681Y-124376135D01*
X99118506Y-124288916D01*
X98935802Y-124229553D01*
X98840928Y-124214526D01*
X98746055Y-124199500D01*
X98553945Y-124199500D01*
X98490696Y-124209517D01*
X98364197Y-124229553D01*
X98181493Y-124288916D01*
X98010318Y-124376135D01*
X97921645Y-124440560D01*
X97854898Y-124489055D01*
X97854896Y-124489057D01*
X97854895Y-124489057D01*
X97719057Y-124624895D01*
X97719057Y-124624896D01*
X97719055Y-124624898D01*
X97718814Y-124625230D01*
X97606135Y-124780318D01*
X97518916Y-124951493D01*
X97497931Y-125016081D01*
X97458494Y-125073756D01*
X97394135Y-125100955D01*
X97325289Y-125089041D01*
X97273813Y-125041797D01*
X97262069Y-125016081D01*
X97241083Y-124951493D01*
X97153864Y-124780318D01*
X97040945Y-124624898D01*
X96905102Y-124489055D01*
X96749681Y-124376135D01*
X96578506Y-124288916D01*
X96395802Y-124229553D01*
X96300928Y-124214526D01*
X96206055Y-124199500D01*
X96013945Y-124199500D01*
X95950696Y-124209517D01*
X95824197Y-124229553D01*
X95641493Y-124288916D01*
X95470318Y-124376135D01*
X95381645Y-124440560D01*
X95314898Y-124489055D01*
X95314896Y-124489057D01*
X95314895Y-124489057D01*
X95179057Y-124624895D01*
X95179057Y-124624896D01*
X95179055Y-124624898D01*
X95178814Y-124625230D01*
X95066135Y-124780318D01*
X94978916Y-124951493D01*
X94957931Y-125016081D01*
X94918494Y-125073756D01*
X94854135Y-125100955D01*
X94785289Y-125089041D01*
X94733813Y-125041797D01*
X94722069Y-125016081D01*
X94701083Y-124951493D01*
X94613864Y-124780318D01*
X94500945Y-124624898D01*
X94365102Y-124489055D01*
X94209681Y-124376135D01*
X94038506Y-124288916D01*
X93855802Y-124229553D01*
X93760928Y-124214526D01*
X93666055Y-124199500D01*
X93473945Y-124199500D01*
X93410696Y-124209517D01*
X93284197Y-124229553D01*
X93101493Y-124288916D01*
X92930318Y-124376135D01*
X92841645Y-124440560D01*
X92774898Y-124489055D01*
X92774896Y-124489057D01*
X92774895Y-124489057D01*
X92639057Y-124624895D01*
X92639057Y-124624896D01*
X92639055Y-124624898D01*
X92638814Y-124625230D01*
X92526135Y-124780318D01*
X92438916Y-124951493D01*
X92417931Y-125016081D01*
X92378494Y-125073756D01*
X92314135Y-125100955D01*
X92245289Y-125089041D01*
X92193813Y-125041797D01*
X92182069Y-125016081D01*
X92161083Y-124951493D01*
X92073864Y-124780318D01*
X91960945Y-124624898D01*
X91825102Y-124489055D01*
X91669681Y-124376135D01*
X91498506Y-124288916D01*
X91315802Y-124229553D01*
X91220928Y-124214526D01*
X91126055Y-124199500D01*
X90933945Y-124199500D01*
X90870696Y-124209517D01*
X90744197Y-124229553D01*
X90561493Y-124288916D01*
X90390318Y-124376135D01*
X90301645Y-124440560D01*
X90234898Y-124489055D01*
X90234896Y-124489057D01*
X90234895Y-124489057D01*
X90099057Y-124624895D01*
X90099057Y-124624896D01*
X90099055Y-124624898D01*
X90098814Y-124625230D01*
X89986135Y-124780318D01*
X89898916Y-124951493D01*
X89877931Y-125016081D01*
X89838494Y-125073756D01*
X89774135Y-125100955D01*
X89705289Y-125089041D01*
X89653813Y-125041797D01*
X89642069Y-125016081D01*
X89621083Y-124951493D01*
X89533864Y-124780318D01*
X89420945Y-124624898D01*
X89285102Y-124489055D01*
X89129681Y-124376135D01*
X88958506Y-124288916D01*
X88775802Y-124229553D01*
X88680928Y-124214526D01*
X88586055Y-124199500D01*
X88393945Y-124199500D01*
X88330696Y-124209517D01*
X88204197Y-124229553D01*
X88021493Y-124288916D01*
X87850318Y-124376135D01*
X87761645Y-124440560D01*
X87694898Y-124489055D01*
X87694896Y-124489057D01*
X87694895Y-124489057D01*
X87559057Y-124624895D01*
X87559057Y-124624896D01*
X87559055Y-124624898D01*
X87558814Y-124625230D01*
X87446135Y-124780318D01*
X87358916Y-124951493D01*
X87337931Y-125016081D01*
X87298494Y-125073756D01*
X87234135Y-125100955D01*
X87165289Y-125089041D01*
X87113813Y-125041797D01*
X87102069Y-125016081D01*
X87081083Y-124951493D01*
X86993864Y-124780318D01*
X86880945Y-124624898D01*
X86745102Y-124489055D01*
X86589681Y-124376135D01*
X86418506Y-124288916D01*
X86235802Y-124229553D01*
X86140928Y-124214526D01*
X86046055Y-124199500D01*
X85853945Y-124199500D01*
X85790696Y-124209517D01*
X85664197Y-124229553D01*
X85481493Y-124288916D01*
X85310318Y-124376135D01*
X85221645Y-124440560D01*
X85154898Y-124489055D01*
X85154896Y-124489057D01*
X85154895Y-124489057D01*
X85019057Y-124624895D01*
X85019057Y-124624896D01*
X85019055Y-124624898D01*
X85018814Y-124625230D01*
X84906135Y-124780318D01*
X84818916Y-124951493D01*
X84797931Y-125016081D01*
X84758494Y-125073756D01*
X84694135Y-125100955D01*
X84625289Y-125089041D01*
X84573813Y-125041797D01*
X84562069Y-125016081D01*
X84541083Y-124951493D01*
X84453864Y-124780318D01*
X84340945Y-124624898D01*
X84205102Y-124489055D01*
X84049681Y-124376135D01*
X83878506Y-124288916D01*
X83695802Y-124229553D01*
X83600928Y-124214526D01*
X83506055Y-124199500D01*
X83313945Y-124199500D01*
X83250696Y-124209517D01*
X83124197Y-124229553D01*
X82941493Y-124288916D01*
X82770318Y-124376135D01*
X82681645Y-124440560D01*
X82614898Y-124489055D01*
X82614896Y-124489057D01*
X82614895Y-124489057D01*
X82479057Y-124624895D01*
X82479057Y-124624896D01*
X82479055Y-124624898D01*
X82478814Y-124625230D01*
X82366135Y-124780318D01*
X82278916Y-124951493D01*
X82257931Y-125016081D01*
X82218494Y-125073756D01*
X82154135Y-125100955D01*
X82085289Y-125089041D01*
X82033813Y-125041797D01*
X82022069Y-125016081D01*
X82001083Y-124951493D01*
X81913864Y-124780318D01*
X81800945Y-124624898D01*
X81665102Y-124489055D01*
X81509681Y-124376135D01*
X81338506Y-124288916D01*
X81155802Y-124229553D01*
X81060928Y-124214526D01*
X80966055Y-124199500D01*
X80773945Y-124199500D01*
X80710696Y-124209517D01*
X80584197Y-124229553D01*
X80401493Y-124288916D01*
X80230318Y-124376135D01*
X80141645Y-124440560D01*
X80074898Y-124489055D01*
X80074896Y-124489057D01*
X80074895Y-124489057D01*
X79939057Y-124624895D01*
X79939057Y-124624896D01*
X79939055Y-124624898D01*
X79938814Y-124625230D01*
X79826135Y-124780318D01*
X79738917Y-124951492D01*
X79717667Y-125016892D01*
X79678229Y-125074567D01*
X79613870Y-125101765D01*
X79545024Y-125089850D01*
X79493548Y-125042605D01*
X79481805Y-125016891D01*
X79460616Y-124951680D01*
X79373434Y-124780577D01*
X79260569Y-124625230D01*
X79260565Y-124625225D01*
X79124774Y-124489434D01*
X79124769Y-124489430D01*
X78969422Y-124376565D01*
X78798319Y-124289383D01*
X78615681Y-124230040D01*
X78615682Y-124230040D01*
X78580000Y-124224389D01*
X78580000Y-125266988D01*
X78522993Y-125234075D01*
X78395826Y-125200000D01*
X78264174Y-125200000D01*
X78137007Y-125234075D01*
X78080000Y-125266988D01*
X78080000Y-124224389D01*
X78044318Y-124230040D01*
X77861680Y-124289383D01*
X77690577Y-124376565D01*
X77535230Y-124489430D01*
X77535225Y-124489434D01*
X77399434Y-124625225D01*
X77399430Y-124625230D01*
X77286565Y-124780577D01*
X77199384Y-124951677D01*
X77178194Y-125016893D01*
X77138755Y-125074568D01*
X77074396Y-125101765D01*
X77005550Y-125089850D01*
X76954075Y-125042605D01*
X76942332Y-125016890D01*
X76921084Y-124951495D01*
X76833864Y-124780318D01*
X76720945Y-124624898D01*
X76585102Y-124489055D01*
X76429681Y-124376135D01*
X76258506Y-124288916D01*
X76075802Y-124229553D01*
X75980928Y-124214526D01*
X75886055Y-124199500D01*
X75693945Y-124199500D01*
X75630696Y-124209517D01*
X75504197Y-124229553D01*
X75321493Y-124288916D01*
X75150318Y-124376135D01*
X75061645Y-124440560D01*
X74994898Y-124489055D01*
X74994896Y-124489057D01*
X74994895Y-124489057D01*
X74859057Y-124624895D01*
X74859057Y-124624896D01*
X74859055Y-124624898D01*
X74858814Y-124625230D01*
X74746135Y-124780318D01*
X74658916Y-124951493D01*
X74637931Y-125016081D01*
X74598494Y-125073756D01*
X74534135Y-125100955D01*
X74465289Y-125089041D01*
X74413813Y-125041797D01*
X74402069Y-125016081D01*
X74381083Y-124951493D01*
X74293864Y-124780318D01*
X74180945Y-124624898D01*
X74045102Y-124489055D01*
X73889681Y-124376135D01*
X73718506Y-124288916D01*
X73535802Y-124229553D01*
X73440928Y-124214526D01*
X73346055Y-124199500D01*
X73153945Y-124199500D01*
X73090696Y-124209517D01*
X72964197Y-124229553D01*
X72781493Y-124288916D01*
X72610318Y-124376135D01*
X72521645Y-124440560D01*
X72454898Y-124489055D01*
X72454896Y-124489057D01*
X72454895Y-124489057D01*
X72319057Y-124624895D01*
X72319057Y-124624896D01*
X72319055Y-124624898D01*
X72318814Y-124625230D01*
X72206135Y-124780318D01*
X72118916Y-124951493D01*
X72097931Y-125016081D01*
X72058494Y-125073756D01*
X71994135Y-125100955D01*
X71925289Y-125089041D01*
X71873813Y-125041797D01*
X71862069Y-125016081D01*
X71841083Y-124951493D01*
X71753864Y-124780318D01*
X71640945Y-124624898D01*
X71505102Y-124489055D01*
X71349681Y-124376135D01*
X71178506Y-124288916D01*
X70995802Y-124229553D01*
X70900928Y-124214526D01*
X70806055Y-124199500D01*
X70613945Y-124199500D01*
X70550696Y-124209517D01*
X70424197Y-124229553D01*
X70241493Y-124288916D01*
X70070318Y-124376135D01*
X69981645Y-124440560D01*
X69914898Y-124489055D01*
X69914896Y-124489057D01*
X69914895Y-124489057D01*
X69779057Y-124624895D01*
X69779057Y-124624896D01*
X69779055Y-124624898D01*
X69778814Y-124625230D01*
X69666135Y-124780318D01*
X69578916Y-124951493D01*
X69557931Y-125016081D01*
X69518494Y-125073756D01*
X69454135Y-125100955D01*
X69385289Y-125089041D01*
X69333813Y-125041797D01*
X69322069Y-125016081D01*
X69301083Y-124951493D01*
X69213864Y-124780318D01*
X69100945Y-124624898D01*
X68965102Y-124489055D01*
X68809681Y-124376135D01*
X68638506Y-124288916D01*
X68455802Y-124229553D01*
X68360928Y-124214526D01*
X68266055Y-124199500D01*
X68073945Y-124199500D01*
X68010696Y-124209517D01*
X67884197Y-124229553D01*
X67701493Y-124288916D01*
X67530318Y-124376135D01*
X67441645Y-124440560D01*
X67374898Y-124489055D01*
X67374896Y-124489057D01*
X67374895Y-124489057D01*
X67239057Y-124624895D01*
X67239057Y-124624896D01*
X67239055Y-124624898D01*
X67238814Y-124625230D01*
X67126135Y-124780318D01*
X67038916Y-124951493D01*
X67017931Y-125016081D01*
X66978494Y-125073756D01*
X66914135Y-125100955D01*
X66845289Y-125089041D01*
X66793813Y-125041797D01*
X66782069Y-125016081D01*
X66761083Y-124951493D01*
X66673864Y-124780318D01*
X66560945Y-124624898D01*
X66425102Y-124489055D01*
X66269681Y-124376135D01*
X66098506Y-124288916D01*
X65915802Y-124229553D01*
X65820928Y-124214526D01*
X65726055Y-124199500D01*
X65533945Y-124199500D01*
X65470696Y-124209517D01*
X65344197Y-124229553D01*
X65161493Y-124288916D01*
X64990318Y-124376135D01*
X64901645Y-124440560D01*
X64834898Y-124489055D01*
X64834896Y-124489057D01*
X64834895Y-124489057D01*
X64699057Y-124624895D01*
X64699057Y-124624896D01*
X64699055Y-124624898D01*
X64698814Y-124625230D01*
X64586135Y-124780318D01*
X64498916Y-124951493D01*
X64439553Y-125134197D01*
X64409500Y-125323945D01*
X57250500Y-125323945D01*
X57250500Y-117703945D01*
X64419500Y-117703945D01*
X64419500Y-118456054D01*
X64449553Y-118645802D01*
X64508916Y-118828506D01*
X64583667Y-118975212D01*
X64596135Y-118999681D01*
X64709055Y-119155102D01*
X64844898Y-119290945D01*
X65000319Y-119403865D01*
X65170576Y-119490616D01*
X65171493Y-119491083D01*
X65262845Y-119520764D01*
X65354199Y-119550447D01*
X65543945Y-119580500D01*
X65543946Y-119580500D01*
X65736054Y-119580500D01*
X65736055Y-119580500D01*
X65925801Y-119550447D01*
X66108509Y-119491082D01*
X66279681Y-119403865D01*
X66435102Y-119290945D01*
X66570945Y-119155102D01*
X66683865Y-118999681D01*
X66771082Y-118828509D01*
X66771144Y-118828319D01*
X66792069Y-118763919D01*
X66831506Y-118706243D01*
X66895864Y-118679044D01*
X66964711Y-118690958D01*
X67016187Y-118738202D01*
X67027931Y-118763919D01*
X67048915Y-118828504D01*
X67123667Y-118975212D01*
X67136135Y-118999681D01*
X67249055Y-119155102D01*
X67384898Y-119290945D01*
X67540319Y-119403865D01*
X67710576Y-119490616D01*
X67711493Y-119491083D01*
X67802845Y-119520764D01*
X67894199Y-119550447D01*
X68083945Y-119580500D01*
X68083946Y-119580500D01*
X68276054Y-119580500D01*
X68276055Y-119580500D01*
X68465801Y-119550447D01*
X68648509Y-119491082D01*
X68819681Y-119403865D01*
X68975102Y-119290945D01*
X69110945Y-119155102D01*
X69223865Y-118999681D01*
X69311082Y-118828509D01*
X69311144Y-118828319D01*
X69332069Y-118763919D01*
X69371506Y-118706243D01*
X69435864Y-118679044D01*
X69504711Y-118690958D01*
X69556187Y-118738202D01*
X69567931Y-118763919D01*
X69588915Y-118828504D01*
X69663667Y-118975212D01*
X69676135Y-118999681D01*
X69789055Y-119155102D01*
X69924898Y-119290945D01*
X70080319Y-119403865D01*
X70250576Y-119490616D01*
X70251493Y-119491083D01*
X70342845Y-119520764D01*
X70434199Y-119550447D01*
X70623945Y-119580500D01*
X70623946Y-119580500D01*
X70816054Y-119580500D01*
X70816055Y-119580500D01*
X71005801Y-119550447D01*
X71188509Y-119491082D01*
X71359681Y-119403865D01*
X71515102Y-119290945D01*
X71650945Y-119155102D01*
X71763865Y-118999681D01*
X71851082Y-118828509D01*
X71851144Y-118828319D01*
X71872069Y-118763919D01*
X71911506Y-118706243D01*
X71975864Y-118679044D01*
X72044711Y-118690958D01*
X72096187Y-118738202D01*
X72107931Y-118763919D01*
X72128915Y-118828504D01*
X72203667Y-118975212D01*
X72216135Y-118999681D01*
X72329055Y-119155102D01*
X72464898Y-119290945D01*
X72620319Y-119403865D01*
X72790576Y-119490616D01*
X72791493Y-119491083D01*
X72882845Y-119520764D01*
X72974199Y-119550447D01*
X73163945Y-119580500D01*
X73163946Y-119580500D01*
X73356054Y-119580500D01*
X73356055Y-119580500D01*
X73545801Y-119550447D01*
X73728509Y-119491082D01*
X73899681Y-119403865D01*
X74055102Y-119290945D01*
X74190945Y-119155102D01*
X74303865Y-118999681D01*
X74391082Y-118828509D01*
X74391144Y-118828319D01*
X74412069Y-118763919D01*
X74451506Y-118706243D01*
X74515864Y-118679044D01*
X74584711Y-118690958D01*
X74636187Y-118738202D01*
X74647931Y-118763919D01*
X74668915Y-118828504D01*
X74743667Y-118975212D01*
X74756135Y-118999681D01*
X74869055Y-119155102D01*
X75004898Y-119290945D01*
X75160319Y-119403865D01*
X75330576Y-119490616D01*
X75331493Y-119491083D01*
X75422845Y-119520764D01*
X75514199Y-119550447D01*
X75703945Y-119580500D01*
X75703946Y-119580500D01*
X75896054Y-119580500D01*
X75896055Y-119580500D01*
X76085801Y-119550447D01*
X76268509Y-119491082D01*
X76439681Y-119403865D01*
X76595102Y-119290945D01*
X76730945Y-119155102D01*
X76843865Y-118999681D01*
X76931082Y-118828509D01*
X76931144Y-118828319D01*
X76952069Y-118763919D01*
X76991506Y-118706243D01*
X77055864Y-118679044D01*
X77124711Y-118690958D01*
X77176187Y-118738202D01*
X77187931Y-118763919D01*
X77208915Y-118828504D01*
X77283667Y-118975212D01*
X77296135Y-118999681D01*
X77409055Y-119155102D01*
X77544898Y-119290945D01*
X77700319Y-119403865D01*
X77870576Y-119490616D01*
X77871493Y-119491083D01*
X77962845Y-119520764D01*
X78054199Y-119550447D01*
X78243945Y-119580500D01*
X78243946Y-119580500D01*
X78436054Y-119580500D01*
X78436055Y-119580500D01*
X78625801Y-119550447D01*
X78808509Y-119491082D01*
X78979681Y-119403865D01*
X79135102Y-119290945D01*
X79270945Y-119155102D01*
X79383865Y-118999681D01*
X79471082Y-118828509D01*
X79471144Y-118828319D01*
X79492069Y-118763919D01*
X79531506Y-118706243D01*
X79595864Y-118679044D01*
X79664711Y-118690958D01*
X79716187Y-118738202D01*
X79727931Y-118763919D01*
X79748915Y-118828504D01*
X79823667Y-118975212D01*
X79836135Y-118999681D01*
X79949055Y-119155102D01*
X80084898Y-119290945D01*
X80240319Y-119403865D01*
X80410576Y-119490616D01*
X80411493Y-119491083D01*
X80502845Y-119520764D01*
X80594199Y-119550447D01*
X80783945Y-119580500D01*
X80783946Y-119580500D01*
X80976054Y-119580500D01*
X80976055Y-119580500D01*
X81165801Y-119550447D01*
X81348509Y-119491082D01*
X81519681Y-119403865D01*
X81675102Y-119290945D01*
X81810945Y-119155102D01*
X81923865Y-118999681D01*
X82011082Y-118828509D01*
X82011144Y-118828319D01*
X82032332Y-118763109D01*
X82071769Y-118705433D01*
X82136127Y-118678234D01*
X82204973Y-118690148D01*
X82256450Y-118737392D01*
X82268194Y-118763107D01*
X82289383Y-118828321D01*
X82376565Y-118999422D01*
X82489430Y-119154769D01*
X82489434Y-119154774D01*
X82625225Y-119290565D01*
X82625230Y-119290569D01*
X82780577Y-119403434D01*
X82951680Y-119490616D01*
X83134315Y-119549959D01*
X83169999Y-119555610D01*
X83170000Y-119555609D01*
X83170000Y-118513012D01*
X83227007Y-118545925D01*
X83354174Y-118580000D01*
X83485826Y-118580000D01*
X83612993Y-118545925D01*
X83670000Y-118513012D01*
X83670000Y-119555610D01*
X83705684Y-119549959D01*
X83888319Y-119490616D01*
X84059422Y-119403434D01*
X84214769Y-119290569D01*
X84214774Y-119290565D01*
X84350565Y-119154774D01*
X84350569Y-119154769D01*
X84463434Y-118999422D01*
X84550616Y-118828319D01*
X84571805Y-118763108D01*
X84611242Y-118705433D01*
X84675600Y-118678234D01*
X84744447Y-118690148D01*
X84795923Y-118737392D01*
X84807667Y-118763108D01*
X84828916Y-118828505D01*
X84828917Y-118828506D01*
X84828918Y-118828509D01*
X84916135Y-118999681D01*
X85029055Y-119155102D01*
X85164898Y-119290945D01*
X85320319Y-119403865D01*
X85490576Y-119490616D01*
X85491493Y-119491083D01*
X85582845Y-119520764D01*
X85674199Y-119550447D01*
X85863945Y-119580500D01*
X85863946Y-119580500D01*
X86056054Y-119580500D01*
X86056055Y-119580500D01*
X86245801Y-119550447D01*
X86428509Y-119491082D01*
X86599681Y-119403865D01*
X86755102Y-119290945D01*
X86890945Y-119155102D01*
X87003865Y-118999681D01*
X87091082Y-118828509D01*
X87091144Y-118828319D01*
X87112069Y-118763919D01*
X87151506Y-118706243D01*
X87215864Y-118679044D01*
X87284711Y-118690958D01*
X87336187Y-118738202D01*
X87347931Y-118763919D01*
X87368915Y-118828504D01*
X87443667Y-118975212D01*
X87456135Y-118999681D01*
X87569055Y-119155102D01*
X87704898Y-119290945D01*
X87860319Y-119403865D01*
X88030576Y-119490616D01*
X88031493Y-119491083D01*
X88122845Y-119520764D01*
X88214199Y-119550447D01*
X88403945Y-119580500D01*
X88403946Y-119580500D01*
X88596054Y-119580500D01*
X88596055Y-119580500D01*
X88785801Y-119550447D01*
X88968509Y-119491082D01*
X89139681Y-119403865D01*
X89295102Y-119290945D01*
X89430945Y-119155102D01*
X89543865Y-118999681D01*
X89631082Y-118828509D01*
X89631144Y-118828319D01*
X89652069Y-118763919D01*
X89691506Y-118706243D01*
X89755864Y-118679044D01*
X89824711Y-118690958D01*
X89876187Y-118738202D01*
X89887931Y-118763919D01*
X89908915Y-118828504D01*
X89983667Y-118975212D01*
X89996135Y-118999681D01*
X90109055Y-119155102D01*
X90244898Y-119290945D01*
X90400319Y-119403865D01*
X90570576Y-119490616D01*
X90571493Y-119491083D01*
X90662845Y-119520764D01*
X90754199Y-119550447D01*
X90943945Y-119580500D01*
X90943946Y-119580500D01*
X91136054Y-119580500D01*
X91136055Y-119580500D01*
X91325801Y-119550447D01*
X91508509Y-119491082D01*
X91679681Y-119403865D01*
X91835102Y-119290945D01*
X91970945Y-119155102D01*
X92083865Y-118999681D01*
X92171082Y-118828509D01*
X92171144Y-118828319D01*
X92192069Y-118763919D01*
X92231506Y-118706243D01*
X92295864Y-118679044D01*
X92364711Y-118690958D01*
X92416187Y-118738202D01*
X92427931Y-118763919D01*
X92448915Y-118828504D01*
X92523667Y-118975212D01*
X92536135Y-118999681D01*
X92649055Y-119155102D01*
X92784898Y-119290945D01*
X92940319Y-119403865D01*
X93110576Y-119490616D01*
X93111493Y-119491083D01*
X93202845Y-119520764D01*
X93294199Y-119550447D01*
X93483945Y-119580500D01*
X93483946Y-119580500D01*
X93676054Y-119580500D01*
X93676055Y-119580500D01*
X93865801Y-119550447D01*
X94048509Y-119491082D01*
X94219681Y-119403865D01*
X94375102Y-119290945D01*
X94510945Y-119155102D01*
X94623865Y-118999681D01*
X94711082Y-118828509D01*
X94711144Y-118828319D01*
X94732069Y-118763919D01*
X94771506Y-118706243D01*
X94835864Y-118679044D01*
X94904711Y-118690958D01*
X94956187Y-118738202D01*
X94967931Y-118763919D01*
X94988915Y-118828504D01*
X95063667Y-118975212D01*
X95076135Y-118999681D01*
X95189055Y-119155102D01*
X95324898Y-119290945D01*
X95480319Y-119403865D01*
X95650576Y-119490616D01*
X95651493Y-119491083D01*
X95742845Y-119520764D01*
X95834199Y-119550447D01*
X96023945Y-119580500D01*
X96023946Y-119580500D01*
X96216054Y-119580500D01*
X96216055Y-119580500D01*
X96405801Y-119550447D01*
X96588509Y-119491082D01*
X96759681Y-119403865D01*
X96915102Y-119290945D01*
X97050945Y-119155102D01*
X97163865Y-118999681D01*
X97205016Y-118918917D01*
X97252989Y-118868123D01*
X97320810Y-118851327D01*
X97386945Y-118873864D01*
X97430397Y-118928579D01*
X97439500Y-118975212D01*
X97439500Y-119127870D01*
X97439501Y-119127876D01*
X97445908Y-119187483D01*
X97496202Y-119322328D01*
X97496206Y-119322335D01*
X97582452Y-119437544D01*
X97582455Y-119437547D01*
X97697664Y-119523793D01*
X97697671Y-119523797D01*
X97832517Y-119574091D01*
X97832516Y-119574091D01*
X97839444Y-119574835D01*
X97892127Y-119580500D01*
X99427872Y-119580499D01*
X99487483Y-119574091D01*
X99622331Y-119523796D01*
X99737546Y-119437546D01*
X99823796Y-119322331D01*
X99874091Y-119187483D01*
X99880500Y-119127873D01*
X99880499Y-117032128D01*
X99874091Y-116972517D01*
X99823796Y-116837669D01*
X99823795Y-116837668D01*
X99823793Y-116837664D01*
X99737547Y-116722455D01*
X99737544Y-116722452D01*
X99622335Y-116636206D01*
X99622328Y-116636202D01*
X99487482Y-116585908D01*
X99487483Y-116585908D01*
X99427883Y-116579501D01*
X99427881Y-116579500D01*
X99427873Y-116579500D01*
X99427864Y-116579500D01*
X97892129Y-116579500D01*
X97892123Y-116579501D01*
X97832516Y-116585908D01*
X97697671Y-116636202D01*
X97697664Y-116636206D01*
X97582455Y-116722452D01*
X97582452Y-116722455D01*
X97496206Y-116837664D01*
X97496202Y-116837671D01*
X97445908Y-116972517D01*
X97439501Y-117032116D01*
X97439501Y-117032123D01*
X97439500Y-117032135D01*
X97439500Y-117184785D01*
X97419815Y-117251824D01*
X97367011Y-117297579D01*
X97297853Y-117307523D01*
X97234297Y-117278498D01*
X97205015Y-117241080D01*
X97163864Y-117160318D01*
X97050945Y-117004898D01*
X96915102Y-116869055D01*
X96759681Y-116756135D01*
X96650341Y-116700423D01*
X96588506Y-116668916D01*
X96405802Y-116609553D01*
X96306240Y-116593784D01*
X96216055Y-116579500D01*
X96023945Y-116579500D01*
X95960696Y-116589517D01*
X95834197Y-116609553D01*
X95651493Y-116668916D01*
X95480318Y-116756135D01*
X95391645Y-116820560D01*
X95324898Y-116869055D01*
X95324896Y-116869057D01*
X95324895Y-116869057D01*
X95189057Y-117004895D01*
X95189057Y-117004896D01*
X95189055Y-117004898D01*
X95169271Y-117032129D01*
X95076135Y-117160318D01*
X94988916Y-117331493D01*
X94967931Y-117396081D01*
X94928494Y-117453756D01*
X94864135Y-117480955D01*
X94795289Y-117469041D01*
X94743813Y-117421797D01*
X94732069Y-117396081D01*
X94711083Y-117331493D01*
X94693803Y-117297579D01*
X94623865Y-117160319D01*
X94510945Y-117004898D01*
X94375102Y-116869055D01*
X94219681Y-116756135D01*
X94110341Y-116700423D01*
X94048506Y-116668916D01*
X93865802Y-116609553D01*
X93766240Y-116593784D01*
X93676055Y-116579500D01*
X93483945Y-116579500D01*
X93420696Y-116589517D01*
X93294197Y-116609553D01*
X93111493Y-116668916D01*
X92940318Y-116756135D01*
X92851645Y-116820560D01*
X92784898Y-116869055D01*
X92784896Y-116869057D01*
X92784895Y-116869057D01*
X92649057Y-117004895D01*
X92649057Y-117004896D01*
X92649055Y-117004898D01*
X92629271Y-117032129D01*
X92536135Y-117160318D01*
X92448916Y-117331493D01*
X92427931Y-117396081D01*
X92388494Y-117453756D01*
X92324135Y-117480955D01*
X92255289Y-117469041D01*
X92203813Y-117421797D01*
X92192069Y-117396081D01*
X92171083Y-117331493D01*
X92153803Y-117297579D01*
X92083865Y-117160319D01*
X91970945Y-117004898D01*
X91835102Y-116869055D01*
X91679681Y-116756135D01*
X91570341Y-116700423D01*
X91508506Y-116668916D01*
X91325802Y-116609553D01*
X91226240Y-116593784D01*
X91136055Y-116579500D01*
X90943945Y-116579500D01*
X90880696Y-116589517D01*
X90754197Y-116609553D01*
X90571493Y-116668916D01*
X90400318Y-116756135D01*
X90311645Y-116820560D01*
X90244898Y-116869055D01*
X90244896Y-116869057D01*
X90244895Y-116869057D01*
X90109057Y-117004895D01*
X90109057Y-117004896D01*
X90109055Y-117004898D01*
X90089271Y-117032129D01*
X89996135Y-117160318D01*
X89908916Y-117331493D01*
X89887931Y-117396081D01*
X89848494Y-117453756D01*
X89784135Y-117480955D01*
X89715289Y-117469041D01*
X89663813Y-117421797D01*
X89652069Y-117396081D01*
X89631083Y-117331493D01*
X89613803Y-117297579D01*
X89543865Y-117160319D01*
X89430945Y-117004898D01*
X89295102Y-116869055D01*
X89139681Y-116756135D01*
X89030341Y-116700423D01*
X88968506Y-116668916D01*
X88785802Y-116609553D01*
X88686240Y-116593784D01*
X88596055Y-116579500D01*
X88403945Y-116579500D01*
X88340696Y-116589517D01*
X88214197Y-116609553D01*
X88031493Y-116668916D01*
X87860318Y-116756135D01*
X87771645Y-116820560D01*
X87704898Y-116869055D01*
X87704896Y-116869057D01*
X87704895Y-116869057D01*
X87569057Y-117004895D01*
X87569057Y-117004896D01*
X87569055Y-117004898D01*
X87549271Y-117032129D01*
X87456135Y-117160318D01*
X87368916Y-117331493D01*
X87347931Y-117396081D01*
X87308494Y-117453756D01*
X87244135Y-117480955D01*
X87175289Y-117469041D01*
X87123813Y-117421797D01*
X87112069Y-117396081D01*
X87091083Y-117331493D01*
X87073803Y-117297579D01*
X87003865Y-117160319D01*
X86890945Y-117004898D01*
X86755102Y-116869055D01*
X86599681Y-116756135D01*
X86490341Y-116700423D01*
X86428506Y-116668916D01*
X86245802Y-116609553D01*
X86146240Y-116593784D01*
X86056055Y-116579500D01*
X85863945Y-116579500D01*
X85800696Y-116589517D01*
X85674197Y-116609553D01*
X85491493Y-116668916D01*
X85320318Y-116756135D01*
X85231645Y-116820560D01*
X85164898Y-116869055D01*
X85164896Y-116869057D01*
X85164895Y-116869057D01*
X85029057Y-117004895D01*
X85029057Y-117004896D01*
X85029055Y-117004898D01*
X85009271Y-117032129D01*
X84916135Y-117160318D01*
X84828917Y-117331492D01*
X84807667Y-117396892D01*
X84768229Y-117454567D01*
X84703870Y-117481765D01*
X84635024Y-117469850D01*
X84583548Y-117422605D01*
X84571805Y-117396891D01*
X84550616Y-117331680D01*
X84463434Y-117160577D01*
X84350569Y-117005230D01*
X84350565Y-117005225D01*
X84214774Y-116869434D01*
X84214769Y-116869430D01*
X84059422Y-116756565D01*
X83888319Y-116669383D01*
X83705681Y-116610040D01*
X83705682Y-116610040D01*
X83670000Y-116604389D01*
X83670000Y-117646988D01*
X83612993Y-117614075D01*
X83485826Y-117580000D01*
X83354174Y-117580000D01*
X83227007Y-117614075D01*
X83170000Y-117646988D01*
X83170000Y-116604389D01*
X83134318Y-116610040D01*
X82951680Y-116669383D01*
X82780577Y-116756565D01*
X82625230Y-116869430D01*
X82625225Y-116869434D01*
X82489434Y-117005225D01*
X82489430Y-117005230D01*
X82376565Y-117160577D01*
X82289384Y-117331677D01*
X82268194Y-117396893D01*
X82228755Y-117454568D01*
X82164396Y-117481765D01*
X82095550Y-117469850D01*
X82044075Y-117422605D01*
X82032332Y-117396890D01*
X82011084Y-117331495D01*
X81993803Y-117297579D01*
X81923865Y-117160319D01*
X81810945Y-117004898D01*
X81675102Y-116869055D01*
X81519681Y-116756135D01*
X81410341Y-116700423D01*
X81348506Y-116668916D01*
X81165802Y-116609553D01*
X81066240Y-116593784D01*
X80976055Y-116579500D01*
X80783945Y-116579500D01*
X80758001Y-116583608D01*
X80594199Y-116609552D01*
X80537816Y-116627872D01*
X80467975Y-116629866D01*
X80408143Y-116593784D01*
X80377316Y-116531083D01*
X80375500Y-116509940D01*
X80375500Y-102929601D01*
X80395185Y-102862562D01*
X80443206Y-102819116D01*
X80456610Y-102812287D01*
X80622219Y-102691966D01*
X80766966Y-102547219D01*
X80766968Y-102547215D01*
X80766971Y-102547213D01*
X80857371Y-102422786D01*
X80887287Y-102381610D01*
X80980220Y-102199219D01*
X81043477Y-102004534D01*
X81075500Y-101802352D01*
X81075500Y-101597648D01*
X81043477Y-101395466D01*
X80980220Y-101200781D01*
X80980218Y-101200778D01*
X80980218Y-101200776D01*
X80914515Y-101071828D01*
X80887287Y-101018390D01*
X80879556Y-101007749D01*
X80766971Y-100852786D01*
X80622213Y-100708028D01*
X80456610Y-100587712D01*
X80443200Y-100580879D01*
X80392406Y-100532903D01*
X80375500Y-100470397D01*
X80375500Y-98924060D01*
X80375501Y-98924047D01*
X80375501Y-98755944D01*
X80375501Y-98755943D01*
X80334577Y-98603216D01*
X80289873Y-98525785D01*
X80255524Y-98466290D01*
X80255518Y-98466282D01*
X79861982Y-98072746D01*
X79236718Y-97447483D01*
X84324500Y-97447483D01*
X84324500Y-99647501D01*
X84324501Y-99647518D01*
X84335000Y-99750296D01*
X84335001Y-99750299D01*
X84385962Y-99904087D01*
X84390186Y-99916834D01*
X84482288Y-100066156D01*
X84606344Y-100190212D01*
X84755666Y-100282314D01*
X84922203Y-100337499D01*
X85024991Y-100348000D01*
X87225008Y-100347999D01*
X87327797Y-100337499D01*
X87494334Y-100282314D01*
X87643656Y-100190212D01*
X87767712Y-100066156D01*
X87859814Y-99916834D01*
X87914999Y-99750297D01*
X87925500Y-99647509D01*
X87925499Y-98429495D01*
X89324500Y-98429495D01*
X89324500Y-98665504D01*
X89324501Y-98665520D01*
X89355306Y-98899510D01*
X89416394Y-99127493D01*
X89506714Y-99345545D01*
X89506719Y-99345556D01*
X89550230Y-99420918D01*
X89624727Y-99549950D01*
X89624729Y-99549953D01*
X89624730Y-99549954D01*
X89768406Y-99737197D01*
X89768412Y-99737204D01*
X89935295Y-99904087D01*
X89935302Y-99904093D01*
X89951909Y-99916836D01*
X90122550Y-100047773D01*
X90235511Y-100112991D01*
X90326943Y-100165780D01*
X90326948Y-100165782D01*
X90326951Y-100165784D01*
X90545007Y-100256106D01*
X90772986Y-100317193D01*
X91006989Y-100348000D01*
X91006996Y-100348000D01*
X91243004Y-100348000D01*
X91243011Y-100348000D01*
X91477014Y-100317193D01*
X91704993Y-100256106D01*
X91923049Y-100165784D01*
X92127450Y-100047773D01*
X92314699Y-99904092D01*
X92481592Y-99737199D01*
X92625273Y-99549950D01*
X92743284Y-99345549D01*
X92833606Y-99127493D01*
X92894693Y-98899514D01*
X92925500Y-98665511D01*
X92925500Y-98429489D01*
X92894693Y-98195486D01*
X92833606Y-97967507D01*
X92743284Y-97749451D01*
X92743282Y-97749448D01*
X92743280Y-97749443D01*
X92641518Y-97573188D01*
X92625273Y-97545050D01*
X92481592Y-97357801D01*
X92481587Y-97357795D01*
X92314704Y-97190912D01*
X92314697Y-97190906D01*
X92127454Y-97047230D01*
X92127453Y-97047229D01*
X92127450Y-97047227D01*
X92011053Y-96980025D01*
X91923056Y-96929219D01*
X91923045Y-96929214D01*
X91704993Y-96838894D01*
X91550337Y-96797454D01*
X91477014Y-96777807D01*
X91477013Y-96777806D01*
X91477010Y-96777806D01*
X91243020Y-96747001D01*
X91243017Y-96747000D01*
X91243011Y-96747000D01*
X91006989Y-96747000D01*
X91006983Y-96747000D01*
X91006979Y-96747001D01*
X90772989Y-96777806D01*
X90545006Y-96838894D01*
X90326954Y-96929214D01*
X90326943Y-96929219D01*
X90122545Y-97047230D01*
X89935302Y-97190906D01*
X89935295Y-97190912D01*
X89768412Y-97357795D01*
X89768406Y-97357802D01*
X89624730Y-97545045D01*
X89506719Y-97749443D01*
X89506714Y-97749454D01*
X89416394Y-97967506D01*
X89355306Y-98195489D01*
X89324501Y-98429479D01*
X89324500Y-98429495D01*
X87925499Y-98429495D01*
X87925499Y-97447492D01*
X87914999Y-97344703D01*
X87859814Y-97178166D01*
X87767712Y-97028844D01*
X87643656Y-96904788D01*
X87494334Y-96812686D01*
X87327797Y-96757501D01*
X87327795Y-96757500D01*
X87225010Y-96747000D01*
X85024998Y-96747000D01*
X85024981Y-96747001D01*
X84922203Y-96757500D01*
X84922200Y-96757501D01*
X84755668Y-96812685D01*
X84755663Y-96812687D01*
X84606342Y-96904789D01*
X84482289Y-97028842D01*
X84390187Y-97178163D01*
X84390185Y-97178168D01*
X84385962Y-97190912D01*
X84335001Y-97344703D01*
X84335001Y-97344704D01*
X84335000Y-97344704D01*
X84324500Y-97447483D01*
X79236718Y-97447483D01*
X78693767Y-96904532D01*
X78660283Y-96843210D01*
X78658976Y-96797454D01*
X78690500Y-96598422D01*
X78690500Y-96401577D01*
X78659709Y-96207173D01*
X78598882Y-96019970D01*
X78509523Y-95844594D01*
X78393828Y-95685354D01*
X78254646Y-95546172D01*
X78095405Y-95430476D01*
X78033408Y-95398887D01*
X77920029Y-95341117D01*
X77732826Y-95280290D01*
X77538422Y-95249500D01*
X77538417Y-95249500D01*
X77341583Y-95249500D01*
X77341578Y-95249500D01*
X77147173Y-95280290D01*
X76959970Y-95341117D01*
X76784594Y-95430476D01*
X76696704Y-95494333D01*
X76625354Y-95546172D01*
X76625352Y-95546174D01*
X76625351Y-95546174D01*
X76486174Y-95685351D01*
X76486174Y-95685352D01*
X76486172Y-95685354D01*
X76436485Y-95753741D01*
X76370476Y-95844594D01*
X76281117Y-96019970D01*
X76220290Y-96207173D01*
X76189500Y-96401577D01*
X76189500Y-96598422D01*
X76220290Y-96792826D01*
X76281117Y-96980029D01*
X76315358Y-97047230D01*
X76370476Y-97155405D01*
X76486172Y-97314646D01*
X76625354Y-97453828D01*
X76784595Y-97569524D01*
X76867455Y-97611743D01*
X76959970Y-97658882D01*
X76959972Y-97658882D01*
X76959975Y-97658884D01*
X77060317Y-97691487D01*
X77147173Y-97719709D01*
X77341578Y-97750500D01*
X77341583Y-97750500D01*
X77538422Y-97750500D01*
X77737454Y-97718976D01*
X77806747Y-97727930D01*
X77844533Y-97753768D01*
X79138181Y-99047416D01*
X79171666Y-99108739D01*
X79174500Y-99135097D01*
X79174500Y-100470397D01*
X79154815Y-100537436D01*
X79106800Y-100580879D01*
X79093389Y-100587712D01*
X78927786Y-100708028D01*
X78783028Y-100852786D01*
X78662713Y-101018388D01*
X78635484Y-101071828D01*
X78587510Y-101122623D01*
X78519688Y-101139418D01*
X78453554Y-101116880D01*
X78414516Y-101071828D01*
X78387286Y-101018388D01*
X78266971Y-100852786D01*
X78122213Y-100708028D01*
X77956613Y-100587715D01*
X77956612Y-100587714D01*
X77956610Y-100587713D01*
X77899653Y-100558691D01*
X77774223Y-100494781D01*
X77579534Y-100431522D01*
X77404995Y-100403878D01*
X77377352Y-100399500D01*
X77172648Y-100399500D01*
X77148329Y-100403351D01*
X76970465Y-100431522D01*
X76775776Y-100494781D01*
X76593386Y-100587715D01*
X76427786Y-100708028D01*
X76283028Y-100852786D01*
X76162715Y-101018386D01*
X76069781Y-101200776D01*
X76006522Y-101395465D01*
X75974500Y-101597648D01*
X75974500Y-101802351D01*
X76006522Y-102004534D01*
X76069781Y-102199223D01*
X76162715Y-102381613D01*
X76283028Y-102547213D01*
X76427786Y-102691971D01*
X76562000Y-102789481D01*
X76593390Y-102812287D01*
X76674499Y-102853614D01*
X76775776Y-102905218D01*
X76775778Y-102905218D01*
X76775781Y-102905220D01*
X76850818Y-102929601D01*
X76970465Y-102968477D01*
X77071557Y-102984488D01*
X77172648Y-103000500D01*
X77172649Y-103000500D01*
X77377351Y-103000500D01*
X77377352Y-103000500D01*
X77579534Y-102968477D01*
X77774219Y-102905220D01*
X77956610Y-102812287D01*
X78096815Y-102710423D01*
X78122213Y-102691971D01*
X78122215Y-102691968D01*
X78122219Y-102691966D01*
X78266966Y-102547219D01*
X78266968Y-102547215D01*
X78266971Y-102547213D01*
X78357371Y-102422786D01*
X78387287Y-102381610D01*
X78414515Y-102328171D01*
X78462490Y-102277376D01*
X78530311Y-102260581D01*
X78596446Y-102283118D01*
X78635485Y-102328172D01*
X78662715Y-102381613D01*
X78783028Y-102547213D01*
X78783034Y-102547219D01*
X78927781Y-102691966D01*
X79093390Y-102812287D01*
X79106793Y-102819116D01*
X79157589Y-102867088D01*
X79174500Y-102929601D01*
X79174500Y-107644432D01*
X79154815Y-107711471D01*
X79102011Y-107757226D01*
X79032853Y-107767170D01*
X78969297Y-107738145D01*
X78950182Y-107717317D01*
X78866971Y-107602787D01*
X78866967Y-107602782D01*
X78722213Y-107458028D01*
X78556613Y-107337715D01*
X78556612Y-107337714D01*
X78556610Y-107337713D01*
X78464405Y-107290732D01*
X78374223Y-107244781D01*
X78179534Y-107181522D01*
X78004995Y-107153878D01*
X77977352Y-107149500D01*
X77772648Y-107149500D01*
X77748329Y-107153351D01*
X77570465Y-107181522D01*
X77375776Y-107244781D01*
X77193386Y-107337715D01*
X77027786Y-107458028D01*
X76883028Y-107602786D01*
X76762715Y-107768386D01*
X76669781Y-107950776D01*
X76606522Y-108145465D01*
X76574500Y-108347648D01*
X76574500Y-108552351D01*
X76606522Y-108754534D01*
X76669781Y-108949223D01*
X76709424Y-109027025D01*
X76762585Y-109131359D01*
X76762715Y-109131613D01*
X76883028Y-109297213D01*
X77027786Y-109441971D01*
X77148226Y-109529474D01*
X77193390Y-109562287D01*
X77309607Y-109621503D01*
X77375776Y-109655218D01*
X77375778Y-109655218D01*
X77375781Y-109655220D01*
X77463815Y-109683824D01*
X77570465Y-109718477D01*
X77671557Y-109734488D01*
X77772648Y-109750500D01*
X77772649Y-109750500D01*
X77977351Y-109750500D01*
X77977352Y-109750500D01*
X78179534Y-109718477D01*
X78374219Y-109655220D01*
X78556610Y-109562287D01*
X78649590Y-109494732D01*
X78722213Y-109441971D01*
X78722215Y-109441968D01*
X78722219Y-109441966D01*
X78866966Y-109297219D01*
X78950181Y-109182681D01*
X79005511Y-109140016D01*
X79075125Y-109134037D01*
X79136920Y-109166642D01*
X79171277Y-109227481D01*
X79174500Y-109255567D01*
X79174500Y-116344902D01*
X79154815Y-116411941D01*
X79138181Y-116432583D01*
X78932687Y-116638076D01*
X78871364Y-116671561D01*
X78806688Y-116668326D01*
X78625802Y-116609553D01*
X78526240Y-116593784D01*
X78436055Y-116579500D01*
X78243945Y-116579500D01*
X78180696Y-116589517D01*
X78054197Y-116609553D01*
X77871493Y-116668916D01*
X77700318Y-116756135D01*
X77611645Y-116820560D01*
X77544898Y-116869055D01*
X77544896Y-116869057D01*
X77544895Y-116869057D01*
X77409057Y-117004895D01*
X77409057Y-117004896D01*
X77409055Y-117004898D01*
X77389271Y-117032129D01*
X77296135Y-117160318D01*
X77208916Y-117331493D01*
X77187931Y-117396081D01*
X77148494Y-117453756D01*
X77084135Y-117480955D01*
X77015289Y-117469041D01*
X76963813Y-117421797D01*
X76952069Y-117396081D01*
X76931083Y-117331493D01*
X76913803Y-117297579D01*
X76843865Y-117160319D01*
X76730945Y-117004898D01*
X76595102Y-116869055D01*
X76439681Y-116756135D01*
X76330341Y-116700423D01*
X76268506Y-116668916D01*
X76085802Y-116609553D01*
X75986240Y-116593784D01*
X75896055Y-116579500D01*
X75703945Y-116579500D01*
X75665995Y-116585510D01*
X75514195Y-116609553D01*
X75333309Y-116668326D01*
X75263468Y-116670321D01*
X75207311Y-116638076D01*
X71511819Y-112942583D01*
X71478334Y-112881260D01*
X71475500Y-112854902D01*
X71475500Y-109083320D01*
X71495185Y-109016281D01*
X71547989Y-108970526D01*
X71617147Y-108960582D01*
X71680703Y-108989607D01*
X71709985Y-109027025D01*
X71763141Y-109131350D01*
X71763147Y-109131359D01*
X71795523Y-109175921D01*
X71795524Y-109175922D01*
X72475000Y-108496446D01*
X72475000Y-108502661D01*
X72502259Y-108604394D01*
X72554920Y-108695606D01*
X72629394Y-108770080D01*
X72720606Y-108822741D01*
X72822339Y-108850000D01*
X72828553Y-108850000D01*
X72149076Y-109529474D01*
X72193650Y-109561859D01*
X72375968Y-109654755D01*
X72570582Y-109717990D01*
X72772683Y-109750000D01*
X72977317Y-109750000D01*
X73179417Y-109717990D01*
X73374031Y-109654755D01*
X73556349Y-109561859D01*
X73600921Y-109529474D01*
X72921447Y-108850000D01*
X72927661Y-108850000D01*
X73029394Y-108822741D01*
X73120606Y-108770080D01*
X73195080Y-108695606D01*
X73247741Y-108604394D01*
X73275000Y-108502661D01*
X73275000Y-108496447D01*
X73954474Y-109175921D01*
X73986859Y-109131349D01*
X74079755Y-108949031D01*
X74142990Y-108754417D01*
X74175000Y-108552317D01*
X74175000Y-108347682D01*
X74142990Y-108145582D01*
X74079755Y-107950968D01*
X73986859Y-107768650D01*
X73954474Y-107724077D01*
X73954474Y-107724076D01*
X73275000Y-108403551D01*
X73275000Y-108397339D01*
X73247741Y-108295606D01*
X73195080Y-108204394D01*
X73120606Y-108129920D01*
X73029394Y-108077259D01*
X72927661Y-108050000D01*
X72921446Y-108050000D01*
X73600922Y-107370524D01*
X73600921Y-107370523D01*
X73556359Y-107338147D01*
X73556350Y-107338141D01*
X73374031Y-107245244D01*
X73179417Y-107182009D01*
X72977317Y-107150000D01*
X72772683Y-107150000D01*
X72570582Y-107182009D01*
X72375968Y-107245244D01*
X72193644Y-107338143D01*
X72149077Y-107370523D01*
X72149077Y-107370524D01*
X72828554Y-108050000D01*
X72822339Y-108050000D01*
X72720606Y-108077259D01*
X72629394Y-108129920D01*
X72554920Y-108204394D01*
X72502259Y-108295606D01*
X72475000Y-108397339D01*
X72475000Y-108403553D01*
X71795524Y-107724077D01*
X71795523Y-107724077D01*
X71763143Y-107768644D01*
X71709985Y-107872974D01*
X71662010Y-107923770D01*
X71594189Y-107940565D01*
X71528054Y-107918027D01*
X71484603Y-107863312D01*
X71475500Y-107816679D01*
X71475500Y-102929601D01*
X71495185Y-102862562D01*
X71543206Y-102819116D01*
X71556610Y-102812287D01*
X71722219Y-102691966D01*
X71866966Y-102547219D01*
X71866968Y-102547215D01*
X71866971Y-102547213D01*
X71957371Y-102422786D01*
X71987287Y-102381610D01*
X72014515Y-102328171D01*
X72062490Y-102277376D01*
X72130311Y-102260581D01*
X72196446Y-102283118D01*
X72235485Y-102328172D01*
X72262715Y-102381613D01*
X72383028Y-102547213D01*
X72527786Y-102691971D01*
X72662000Y-102789481D01*
X72693390Y-102812287D01*
X72774499Y-102853614D01*
X72875776Y-102905218D01*
X72875778Y-102905218D01*
X72875781Y-102905220D01*
X72950818Y-102929601D01*
X73070465Y-102968477D01*
X73171557Y-102984488D01*
X73272648Y-103000500D01*
X73272649Y-103000500D01*
X73477351Y-103000500D01*
X73477352Y-103000500D01*
X73679534Y-102968477D01*
X73874219Y-102905220D01*
X74056610Y-102812287D01*
X74196815Y-102710423D01*
X74222213Y-102691971D01*
X74222215Y-102691968D01*
X74222219Y-102691966D01*
X74366966Y-102547219D01*
X74366968Y-102547215D01*
X74366971Y-102547213D01*
X74457371Y-102422786D01*
X74487287Y-102381610D01*
X74580220Y-102199219D01*
X74643477Y-102004534D01*
X74675500Y-101802352D01*
X74675500Y-101597648D01*
X74643477Y-101395466D01*
X74580220Y-101200781D01*
X74580218Y-101200778D01*
X74580218Y-101200776D01*
X74514515Y-101071828D01*
X74487287Y-101018390D01*
X74479556Y-101007749D01*
X74366971Y-100852786D01*
X74222213Y-100708028D01*
X74056613Y-100587715D01*
X74056612Y-100587714D01*
X74056610Y-100587713D01*
X73999653Y-100558691D01*
X73874223Y-100494781D01*
X73679534Y-100431522D01*
X73504995Y-100403878D01*
X73477352Y-100399500D01*
X73272648Y-100399500D01*
X73248329Y-100403351D01*
X73070465Y-100431522D01*
X72875776Y-100494781D01*
X72693386Y-100587715D01*
X72527786Y-100708028D01*
X72383028Y-100852786D01*
X72262713Y-101018388D01*
X72235484Y-101071828D01*
X72187510Y-101122623D01*
X72119688Y-101139418D01*
X72053554Y-101116880D01*
X72014516Y-101071828D01*
X71987286Y-101018388D01*
X71866971Y-100852786D01*
X71722213Y-100708028D01*
X71556610Y-100587712D01*
X71543200Y-100580879D01*
X71492406Y-100532903D01*
X71475500Y-100470397D01*
X71475500Y-98485096D01*
X71495185Y-98418057D01*
X71511815Y-98397419D01*
X72155468Y-97753765D01*
X72216789Y-97720282D01*
X72262546Y-97718975D01*
X72267168Y-97719707D01*
X72267174Y-97719709D01*
X72384642Y-97738313D01*
X72461579Y-97750500D01*
X72461583Y-97750500D01*
X72658422Y-97750500D01*
X72852826Y-97719709D01*
X72855085Y-97718975D01*
X73040025Y-97658884D01*
X73215405Y-97569524D01*
X73374646Y-97453828D01*
X73513828Y-97314646D01*
X73629524Y-97155405D01*
X73718884Y-96980025D01*
X73779709Y-96792826D01*
X73786967Y-96747000D01*
X73810500Y-96598422D01*
X73810500Y-96401577D01*
X73779709Y-96207173D01*
X73718882Y-96019970D01*
X73629523Y-95844594D01*
X73513828Y-95685354D01*
X73374646Y-95546172D01*
X73215405Y-95430476D01*
X73153408Y-95398887D01*
X73040029Y-95341117D01*
X72852826Y-95280290D01*
X72658422Y-95249500D01*
X72658417Y-95249500D01*
X72461583Y-95249500D01*
X72461578Y-95249500D01*
X72267173Y-95280290D01*
X72079970Y-95341117D01*
X71904594Y-95430476D01*
X71816704Y-95494333D01*
X71745354Y-95546172D01*
X71745352Y-95546174D01*
X71745351Y-95546174D01*
X71606174Y-95685351D01*
X71606174Y-95685352D01*
X71606172Y-95685354D01*
X71556485Y-95753741D01*
X71490476Y-95844594D01*
X71401117Y-96019970D01*
X71340290Y-96207173D01*
X71309500Y-96401577D01*
X71309500Y-96598422D01*
X71341023Y-96797453D01*
X71332068Y-96866747D01*
X71306231Y-96904532D01*
X70506286Y-97704478D01*
X70394481Y-97816282D01*
X70394479Y-97816285D01*
X70344361Y-97903094D01*
X70344359Y-97903096D01*
X70315425Y-97953209D01*
X70315424Y-97953210D01*
X70311593Y-97967507D01*
X70274499Y-98105943D01*
X70274499Y-98105945D01*
X70274499Y-98274046D01*
X70274500Y-98274059D01*
X70274500Y-100470397D01*
X70254815Y-100537436D01*
X70206800Y-100580879D01*
X70193389Y-100587712D01*
X70027786Y-100708028D01*
X69883028Y-100852786D01*
X69762715Y-101018386D01*
X69669781Y-101200776D01*
X69606522Y-101395465D01*
X69574500Y-101597648D01*
X69574500Y-101802351D01*
X69606522Y-102004534D01*
X69669781Y-102199223D01*
X69762715Y-102381613D01*
X69883028Y-102547213D01*
X69883034Y-102547219D01*
X70027781Y-102691966D01*
X70193390Y-102812287D01*
X70206793Y-102819116D01*
X70257589Y-102867088D01*
X70274500Y-102929601D01*
X70274500Y-113068330D01*
X70274499Y-113068348D01*
X70274499Y-113234054D01*
X70274498Y-113234054D01*
X70315424Y-113386789D01*
X70315649Y-113387176D01*
X70394477Y-113523712D01*
X70394481Y-113523717D01*
X70513349Y-113642585D01*
X70513355Y-113642590D01*
X73239179Y-116368415D01*
X73272664Y-116429738D01*
X73267680Y-116499430D01*
X73225808Y-116555363D01*
X73168480Y-116576989D01*
X73168757Y-116578738D01*
X73163946Y-116579500D01*
X73163945Y-116579500D01*
X73106052Y-116588669D01*
X72974197Y-116609553D01*
X72791493Y-116668916D01*
X72620318Y-116756135D01*
X72531645Y-116820560D01*
X72464898Y-116869055D01*
X72464896Y-116869057D01*
X72464895Y-116869057D01*
X72329057Y-117004895D01*
X72329057Y-117004896D01*
X72329055Y-117004898D01*
X72309271Y-117032129D01*
X72216135Y-117160318D01*
X72128916Y-117331493D01*
X72107931Y-117396081D01*
X72068494Y-117453756D01*
X72004135Y-117480955D01*
X71935289Y-117469041D01*
X71883813Y-117421797D01*
X71872069Y-117396081D01*
X71851083Y-117331493D01*
X71833803Y-117297579D01*
X71763865Y-117160319D01*
X71650945Y-117004898D01*
X71515102Y-116869055D01*
X71359681Y-116756135D01*
X71250341Y-116700423D01*
X71188506Y-116668916D01*
X71005802Y-116609553D01*
X70906240Y-116593784D01*
X70816055Y-116579500D01*
X70623945Y-116579500D01*
X70560696Y-116589517D01*
X70434197Y-116609553D01*
X70251493Y-116668916D01*
X70080318Y-116756135D01*
X69991645Y-116820560D01*
X69924898Y-116869055D01*
X69924896Y-116869057D01*
X69924895Y-116869057D01*
X69789057Y-117004895D01*
X69789057Y-117004896D01*
X69789055Y-117004898D01*
X69769271Y-117032129D01*
X69676135Y-117160318D01*
X69588916Y-117331493D01*
X69567931Y-117396081D01*
X69528494Y-117453756D01*
X69464135Y-117480955D01*
X69395289Y-117469041D01*
X69343813Y-117421797D01*
X69332069Y-117396081D01*
X69311083Y-117331493D01*
X69293803Y-117297579D01*
X69223865Y-117160319D01*
X69110945Y-117004898D01*
X68975102Y-116869055D01*
X68819681Y-116756135D01*
X68710341Y-116700423D01*
X68648506Y-116668916D01*
X68465802Y-116609553D01*
X68366240Y-116593784D01*
X68276055Y-116579500D01*
X68083945Y-116579500D01*
X68020696Y-116589517D01*
X67894197Y-116609553D01*
X67711493Y-116668916D01*
X67540318Y-116756135D01*
X67451645Y-116820560D01*
X67384898Y-116869055D01*
X67384896Y-116869057D01*
X67384895Y-116869057D01*
X67249057Y-117004895D01*
X67249057Y-117004896D01*
X67249055Y-117004898D01*
X67229271Y-117032129D01*
X67136135Y-117160318D01*
X67048916Y-117331493D01*
X67027931Y-117396081D01*
X66988494Y-117453756D01*
X66924135Y-117480955D01*
X66855289Y-117469041D01*
X66803813Y-117421797D01*
X66792069Y-117396081D01*
X66771083Y-117331493D01*
X66753803Y-117297579D01*
X66683865Y-117160319D01*
X66570945Y-117004898D01*
X66435102Y-116869055D01*
X66279681Y-116756135D01*
X66170341Y-116700423D01*
X66108506Y-116668916D01*
X65925802Y-116609553D01*
X65826240Y-116593784D01*
X65736055Y-116579500D01*
X65543945Y-116579500D01*
X65480696Y-116589517D01*
X65354197Y-116609553D01*
X65171493Y-116668916D01*
X65000318Y-116756135D01*
X64911645Y-116820560D01*
X64844898Y-116869055D01*
X64844896Y-116869057D01*
X64844895Y-116869057D01*
X64709057Y-117004895D01*
X64709057Y-117004896D01*
X64709055Y-117004898D01*
X64689271Y-117032129D01*
X64596135Y-117160318D01*
X64508916Y-117331493D01*
X64449553Y-117514197D01*
X64419500Y-117703945D01*
X57250500Y-117703945D01*
X57250500Y-110787682D01*
X58590000Y-110787682D01*
X58590000Y-110992317D01*
X58622009Y-111194417D01*
X58685244Y-111389031D01*
X58778141Y-111571350D01*
X58778147Y-111571359D01*
X58810523Y-111615921D01*
X58810524Y-111615922D01*
X59490000Y-110936446D01*
X59490000Y-110942661D01*
X59517259Y-111044394D01*
X59569920Y-111135606D01*
X59644394Y-111210080D01*
X59735606Y-111262741D01*
X59837339Y-111290000D01*
X59843553Y-111290000D01*
X59164076Y-111969474D01*
X59208650Y-112001859D01*
X59390968Y-112094755D01*
X59585582Y-112157990D01*
X59787683Y-112190000D01*
X59992317Y-112190000D01*
X60194417Y-112157990D01*
X60389031Y-112094755D01*
X60571349Y-112001859D01*
X60615921Y-111969474D01*
X59936447Y-111290000D01*
X59942661Y-111290000D01*
X60044394Y-111262741D01*
X60135606Y-111210080D01*
X60210080Y-111135606D01*
X60262741Y-111044394D01*
X60290000Y-110942661D01*
X60290000Y-110936447D01*
X60969474Y-111615921D01*
X61001859Y-111571349D01*
X61094755Y-111389031D01*
X61157990Y-111194417D01*
X61190000Y-110992317D01*
X61190000Y-110787682D01*
X61157990Y-110585582D01*
X61094755Y-110390968D01*
X61001859Y-110208650D01*
X60969474Y-110164077D01*
X60969474Y-110164076D01*
X60290000Y-110843551D01*
X60290000Y-110837339D01*
X60262741Y-110735606D01*
X60210080Y-110644394D01*
X60135606Y-110569920D01*
X60044394Y-110517259D01*
X59942661Y-110490000D01*
X59936446Y-110490000D01*
X60615922Y-109810524D01*
X60615921Y-109810523D01*
X60571359Y-109778147D01*
X60571350Y-109778141D01*
X60389031Y-109685244D01*
X60194417Y-109622009D01*
X59992317Y-109590000D01*
X59787683Y-109590000D01*
X59585582Y-109622009D01*
X59390968Y-109685244D01*
X59208644Y-109778143D01*
X59164077Y-109810523D01*
X59164077Y-109810524D01*
X59843554Y-110490000D01*
X59837339Y-110490000D01*
X59735606Y-110517259D01*
X59644394Y-110569920D01*
X59569920Y-110644394D01*
X59517259Y-110735606D01*
X59490000Y-110837339D01*
X59490000Y-110843553D01*
X58810524Y-110164077D01*
X58810523Y-110164077D01*
X58778143Y-110208644D01*
X58685244Y-110390968D01*
X58622009Y-110585582D01*
X58590000Y-110787682D01*
X57250500Y-110787682D01*
X57250500Y-103167648D01*
X58589500Y-103167648D01*
X58589500Y-103372351D01*
X58621522Y-103574534D01*
X58684781Y-103769223D01*
X58777715Y-103951613D01*
X58898028Y-104117213D01*
X59042786Y-104261971D01*
X59190260Y-104369115D01*
X59208390Y-104382287D01*
X59317658Y-104437962D01*
X59390776Y-104475218D01*
X59390778Y-104475218D01*
X59390781Y-104475220D01*
X59470681Y-104501181D01*
X59585465Y-104538477D01*
X59608302Y-104542094D01*
X59787648Y-104570500D01*
X59787649Y-104570500D01*
X59992351Y-104570500D01*
X59992352Y-104570500D01*
X60194534Y-104538477D01*
X60389219Y-104475220D01*
X60571610Y-104382287D01*
X60716440Y-104277063D01*
X60737213Y-104261971D01*
X60737215Y-104261968D01*
X60737219Y-104261966D01*
X60881966Y-104117219D01*
X60881968Y-104117215D01*
X60881971Y-104117213D01*
X61002284Y-103951614D01*
X61002285Y-103951613D01*
X61002287Y-103951610D01*
X61009117Y-103938204D01*
X61019566Y-103927140D01*
X61025889Y-103913297D01*
X61043068Y-103902256D01*
X61057091Y-103887409D01*
X61072772Y-103883167D01*
X61084667Y-103875523D01*
X61119602Y-103870500D01*
X61159903Y-103870500D01*
X61226942Y-103890185D01*
X61247584Y-103906819D01*
X64276561Y-106935796D01*
X64310046Y-106997119D01*
X64306811Y-107061794D01*
X64283985Y-107132045D01*
X64260757Y-107278704D01*
X64249500Y-107349778D01*
X64249500Y-107570222D01*
X64254657Y-107602781D01*
X64283985Y-107787952D01*
X64352103Y-107997603D01*
X64352104Y-107997606D01*
X64452187Y-108194025D01*
X64581752Y-108372358D01*
X64581756Y-108372363D01*
X64631928Y-108422535D01*
X64665413Y-108483858D01*
X64660429Y-108553550D01*
X64618557Y-108609483D01*
X64587581Y-108626398D01*
X64507669Y-108656203D01*
X64507664Y-108656206D01*
X64392455Y-108742452D01*
X64392452Y-108742455D01*
X64306206Y-108857664D01*
X64306202Y-108857671D01*
X64255908Y-108992517D01*
X64249501Y-109052116D01*
X64249501Y-109052123D01*
X64249500Y-109052135D01*
X64249500Y-110947870D01*
X64249501Y-110947876D01*
X64255908Y-111007483D01*
X64306202Y-111142328D01*
X64306206Y-111142335D01*
X64392452Y-111257544D01*
X64392455Y-111257547D01*
X64507664Y-111343793D01*
X64507671Y-111343797D01*
X64642517Y-111394091D01*
X64642516Y-111394091D01*
X64649444Y-111394835D01*
X64702127Y-111400500D01*
X66597872Y-111400499D01*
X66657483Y-111394091D01*
X66792331Y-111343796D01*
X66907546Y-111257546D01*
X66993796Y-111142331D01*
X67044091Y-111007483D01*
X67050500Y-110947873D01*
X67050499Y-109052128D01*
X67044091Y-108992517D01*
X67037314Y-108974348D01*
X66993797Y-108857671D01*
X66993793Y-108857664D01*
X66907547Y-108742455D01*
X66907544Y-108742452D01*
X66792335Y-108656206D01*
X66792328Y-108656202D01*
X66712419Y-108626398D01*
X66656485Y-108584527D01*
X66632068Y-108519062D01*
X66646920Y-108450789D01*
X66668069Y-108422537D01*
X66718242Y-108372365D01*
X66847815Y-108194022D01*
X66947895Y-107997606D01*
X67016015Y-107787951D01*
X67050500Y-107570222D01*
X67050500Y-107349778D01*
X67016015Y-107132049D01*
X66947895Y-106922394D01*
X66947895Y-106922393D01*
X66912154Y-106852250D01*
X66847815Y-106725978D01*
X66732888Y-106567793D01*
X66718247Y-106547641D01*
X66718243Y-106547636D01*
X66562363Y-106391756D01*
X66562358Y-106391752D01*
X66384025Y-106262187D01*
X66384024Y-106262186D01*
X66384022Y-106262185D01*
X66321096Y-106230122D01*
X66187606Y-106162104D01*
X66187603Y-106162103D01*
X65977952Y-106093985D01*
X65869086Y-106076742D01*
X65760222Y-106059500D01*
X65539778Y-106059500D01*
X65496232Y-106066397D01*
X65322045Y-106093985D01*
X65251794Y-106116811D01*
X65181953Y-106118806D01*
X65125796Y-106086561D01*
X61947590Y-102908355D01*
X61947588Y-102908352D01*
X61828717Y-102789481D01*
X61828716Y-102789480D01*
X61732744Y-102734071D01*
X61691785Y-102710423D01*
X61539057Y-102669499D01*
X61380943Y-102669499D01*
X61373347Y-102669499D01*
X61373331Y-102669500D01*
X61119602Y-102669500D01*
X61052563Y-102649815D01*
X61009117Y-102601795D01*
X61002284Y-102588385D01*
X60881971Y-102422786D01*
X60737213Y-102278028D01*
X60571613Y-102157715D01*
X60571612Y-102157714D01*
X60571610Y-102157713D01*
X60514653Y-102128691D01*
X60389223Y-102064781D01*
X60194534Y-102001522D01*
X60015498Y-101973166D01*
X59992352Y-101969500D01*
X59787648Y-101969500D01*
X59764502Y-101973166D01*
X59585465Y-102001522D01*
X59390776Y-102064781D01*
X59208386Y-102157715D01*
X59042786Y-102278028D01*
X58898028Y-102422786D01*
X58777715Y-102588386D01*
X58684781Y-102770776D01*
X58621522Y-102965465D01*
X58589500Y-103167648D01*
X57250500Y-103167648D01*
X57250500Y-99523681D01*
X61729500Y-99523681D01*
X61729500Y-99866318D01*
X61767858Y-100206768D01*
X61767861Y-100206782D01*
X61844102Y-100540816D01*
X61844103Y-100540818D01*
X61957264Y-100864216D01*
X62105922Y-101172907D01*
X62123991Y-101201663D01*
X62288211Y-101463018D01*
X62501834Y-101730893D01*
X62744107Y-101973166D01*
X63011982Y-102186789D01*
X63302090Y-102369076D01*
X63610785Y-102517736D01*
X63934183Y-102630897D01*
X64268217Y-102707139D01*
X64268226Y-102707140D01*
X64268231Y-102707141D01*
X64495197Y-102732713D01*
X64608682Y-102745499D01*
X64608685Y-102745500D01*
X64608688Y-102745500D01*
X64951315Y-102745500D01*
X64951316Y-102745499D01*
X65125311Y-102725895D01*
X65291768Y-102707141D01*
X65291771Y-102707140D01*
X65291783Y-102707139D01*
X65625817Y-102630897D01*
X65949215Y-102517736D01*
X66257910Y-102369076D01*
X66548018Y-102186789D01*
X66815893Y-101973166D01*
X67058166Y-101730893D01*
X67271789Y-101463018D01*
X67454076Y-101172910D01*
X67602736Y-100864215D01*
X67715897Y-100540817D01*
X67792139Y-100206783D01*
X67794007Y-100190210D01*
X67810895Y-100040311D01*
X67830500Y-99866312D01*
X67830500Y-99523688D01*
X67796790Y-99224493D01*
X67792141Y-99183231D01*
X67792140Y-99183226D01*
X67792139Y-99183217D01*
X67715897Y-98849183D01*
X67602736Y-98525785D01*
X67500700Y-98313906D01*
X67454077Y-98217092D01*
X67384239Y-98105945D01*
X67271789Y-97926982D01*
X67058166Y-97659107D01*
X66815893Y-97416834D01*
X66548018Y-97203211D01*
X66270515Y-97028844D01*
X66257907Y-97020922D01*
X65949216Y-96872264D01*
X65625818Y-96759103D01*
X65625816Y-96759102D01*
X65332918Y-96692250D01*
X65291783Y-96682861D01*
X65291780Y-96682860D01*
X65291768Y-96682858D01*
X64951318Y-96644500D01*
X64951312Y-96644500D01*
X64608688Y-96644500D01*
X64608681Y-96644500D01*
X64268231Y-96682858D01*
X64268217Y-96682861D01*
X63934183Y-96759102D01*
X63934181Y-96759103D01*
X63610783Y-96872264D01*
X63302092Y-97020922D01*
X63011983Y-97203210D01*
X62744107Y-97416833D01*
X62501833Y-97659107D01*
X62288210Y-97926983D01*
X62105922Y-98217092D01*
X61957264Y-98525783D01*
X61844103Y-98849181D01*
X61844102Y-98849183D01*
X61767861Y-99183217D01*
X61767858Y-99183231D01*
X61729500Y-99523681D01*
X57250500Y-99523681D01*
X57250500Y-92374500D01*
X57270185Y-92307461D01*
X57322989Y-92261706D01*
X57374500Y-92250500D01*
X152125500Y-92250500D01*
X152192539Y-92270185D01*
G37*
%TD.AperFunction*%
%TD*%
M02*
