%TF.GenerationSoftware,KiCad,Pcbnew,9.0.7*%
%TF.CreationDate,2026-03-12T09:12:10+01:00*%
%TF.ProjectId,Project,50726f6a-6563-4742-9e6b-696361645f70,rev?*%
%TF.SameCoordinates,Original*%
%TF.FileFunction,Legend,Top*%
%TF.FilePolarity,Positive*%
%FSLAX46Y46*%
G04 Gerber Fmt 4.6, Leading zero omitted, Abs format (unit mm)*
G04 Created by KiCad (PCBNEW 9.0.7) date 2026-03-12 09:12:10*
%MOMM*%
%LPD*%
G01*
G04 APERTURE LIST*
%ADD10C,0.100000*%
%ADD11C,0.150000*%
%ADD12C,0.120000*%
%ADD13C,0.127000*%
G04 APERTURE END LIST*
D10*
X99667580Y-141488095D02*
X98858057Y-141488095D01*
X98858057Y-141488095D02*
X98762819Y-141535714D01*
X98762819Y-141535714D02*
X98715200Y-141583333D01*
X98715200Y-141583333D02*
X98667580Y-141678571D01*
X98667580Y-141678571D02*
X98667580Y-141869047D01*
X98667580Y-141869047D02*
X98715200Y-141964285D01*
X98715200Y-141964285D02*
X98762819Y-142011904D01*
X98762819Y-142011904D02*
X98858057Y-142059523D01*
X98858057Y-142059523D02*
X99667580Y-142059523D01*
X99667580Y-143011904D02*
X99667580Y-142535714D01*
X99667580Y-142535714D02*
X99191390Y-142488095D01*
X99191390Y-142488095D02*
X99239009Y-142535714D01*
X99239009Y-142535714D02*
X99286628Y-142630952D01*
X99286628Y-142630952D02*
X99286628Y-142869047D01*
X99286628Y-142869047D02*
X99239009Y-142964285D01*
X99239009Y-142964285D02*
X99191390Y-143011904D01*
X99191390Y-143011904D02*
X99096152Y-143059523D01*
X99096152Y-143059523D02*
X98858057Y-143059523D01*
X98858057Y-143059523D02*
X98762819Y-143011904D01*
X98762819Y-143011904D02*
X98715200Y-142964285D01*
X98715200Y-142964285D02*
X98667580Y-142869047D01*
X98667580Y-142869047D02*
X98667580Y-142630952D01*
X98667580Y-142630952D02*
X98715200Y-142535714D01*
X98715200Y-142535714D02*
X98762819Y-142488095D01*
D11*
X60344819Y-107246666D02*
X59868628Y-107579999D01*
X60344819Y-107818094D02*
X59344819Y-107818094D01*
X59344819Y-107818094D02*
X59344819Y-107437142D01*
X59344819Y-107437142D02*
X59392438Y-107341904D01*
X59392438Y-107341904D02*
X59440057Y-107294285D01*
X59440057Y-107294285D02*
X59535295Y-107246666D01*
X59535295Y-107246666D02*
X59678152Y-107246666D01*
X59678152Y-107246666D02*
X59773390Y-107294285D01*
X59773390Y-107294285D02*
X59821009Y-107341904D01*
X59821009Y-107341904D02*
X59868628Y-107437142D01*
X59868628Y-107437142D02*
X59868628Y-107818094D01*
X59344819Y-106389523D02*
X59344819Y-106579999D01*
X59344819Y-106579999D02*
X59392438Y-106675237D01*
X59392438Y-106675237D02*
X59440057Y-106722856D01*
X59440057Y-106722856D02*
X59582914Y-106818094D01*
X59582914Y-106818094D02*
X59773390Y-106865713D01*
X59773390Y-106865713D02*
X60154342Y-106865713D01*
X60154342Y-106865713D02*
X60249580Y-106818094D01*
X60249580Y-106818094D02*
X60297200Y-106770475D01*
X60297200Y-106770475D02*
X60344819Y-106675237D01*
X60344819Y-106675237D02*
X60344819Y-106484761D01*
X60344819Y-106484761D02*
X60297200Y-106389523D01*
X60297200Y-106389523D02*
X60249580Y-106341904D01*
X60249580Y-106341904D02*
X60154342Y-106294285D01*
X60154342Y-106294285D02*
X59916247Y-106294285D01*
X59916247Y-106294285D02*
X59821009Y-106341904D01*
X59821009Y-106341904D02*
X59773390Y-106389523D01*
X59773390Y-106389523D02*
X59725771Y-106484761D01*
X59725771Y-106484761D02*
X59725771Y-106675237D01*
X59725771Y-106675237D02*
X59773390Y-106770475D01*
X59773390Y-106770475D02*
X59821009Y-106818094D01*
X59821009Y-106818094D02*
X59916247Y-106865713D01*
X64654819Y-109863095D02*
X64607200Y-109958333D01*
X64607200Y-109958333D02*
X64511961Y-110005952D01*
X64511961Y-110005952D02*
X63654819Y-110005952D01*
X64607200Y-109101190D02*
X64654819Y-109196428D01*
X64654819Y-109196428D02*
X64654819Y-109386904D01*
X64654819Y-109386904D02*
X64607200Y-109482142D01*
X64607200Y-109482142D02*
X64511961Y-109529761D01*
X64511961Y-109529761D02*
X64131009Y-109529761D01*
X64131009Y-109529761D02*
X64035771Y-109482142D01*
X64035771Y-109482142D02*
X63988152Y-109386904D01*
X63988152Y-109386904D02*
X63988152Y-109196428D01*
X63988152Y-109196428D02*
X64035771Y-109101190D01*
X64035771Y-109101190D02*
X64131009Y-109053571D01*
X64131009Y-109053571D02*
X64226247Y-109053571D01*
X64226247Y-109053571D02*
X64321485Y-109529761D01*
X64654819Y-108196428D02*
X63654819Y-108196428D01*
X64607200Y-108196428D02*
X64654819Y-108291666D01*
X64654819Y-108291666D02*
X64654819Y-108482142D01*
X64654819Y-108482142D02*
X64607200Y-108577380D01*
X64607200Y-108577380D02*
X64559580Y-108624999D01*
X64559580Y-108624999D02*
X64464342Y-108672618D01*
X64464342Y-108672618D02*
X64178628Y-108672618D01*
X64178628Y-108672618D02*
X64083390Y-108624999D01*
X64083390Y-108624999D02*
X64035771Y-108577380D01*
X64035771Y-108577380D02*
X63988152Y-108482142D01*
X63988152Y-108482142D02*
X63988152Y-108291666D01*
X63988152Y-108291666D02*
X64035771Y-108196428D01*
X64654819Y-107196428D02*
X64654819Y-107767856D01*
X64654819Y-107482142D02*
X63654819Y-107482142D01*
X63654819Y-107482142D02*
X63797676Y-107577380D01*
X63797676Y-107577380D02*
X63892914Y-107672618D01*
X63892914Y-107672618D02*
X63940533Y-107767856D01*
D10*
X111607419Y-157436904D02*
X112416942Y-157436904D01*
X112416942Y-157436904D02*
X112512180Y-157389285D01*
X112512180Y-157389285D02*
X112559800Y-157341666D01*
X112559800Y-157341666D02*
X112607419Y-157246428D01*
X112607419Y-157246428D02*
X112607419Y-157055952D01*
X112607419Y-157055952D02*
X112559800Y-156960714D01*
X112559800Y-156960714D02*
X112512180Y-156913095D01*
X112512180Y-156913095D02*
X112416942Y-156865476D01*
X112416942Y-156865476D02*
X111607419Y-156865476D01*
X111607419Y-156484523D02*
X111607419Y-155865476D01*
X111607419Y-155865476D02*
X111988371Y-156198809D01*
X111988371Y-156198809D02*
X111988371Y-156055952D01*
X111988371Y-156055952D02*
X112035990Y-155960714D01*
X112035990Y-155960714D02*
X112083609Y-155913095D01*
X112083609Y-155913095D02*
X112178847Y-155865476D01*
X112178847Y-155865476D02*
X112416942Y-155865476D01*
X112416942Y-155865476D02*
X112512180Y-155913095D01*
X112512180Y-155913095D02*
X112559800Y-155960714D01*
X112559800Y-155960714D02*
X112607419Y-156055952D01*
X112607419Y-156055952D02*
X112607419Y-156341666D01*
X112607419Y-156341666D02*
X112559800Y-156436904D01*
X112559800Y-156436904D02*
X112512180Y-156484523D01*
D11*
X144116666Y-113579819D02*
X144116666Y-114294104D01*
X144116666Y-114294104D02*
X144069047Y-114436961D01*
X144069047Y-114436961D02*
X143973809Y-114532200D01*
X143973809Y-114532200D02*
X143830952Y-114579819D01*
X143830952Y-114579819D02*
X143735714Y-114579819D01*
X145069047Y-113579819D02*
X144592857Y-113579819D01*
X144592857Y-113579819D02*
X144545238Y-114056009D01*
X144545238Y-114056009D02*
X144592857Y-114008390D01*
X144592857Y-114008390D02*
X144688095Y-113960771D01*
X144688095Y-113960771D02*
X144926190Y-113960771D01*
X144926190Y-113960771D02*
X145021428Y-114008390D01*
X145021428Y-114008390D02*
X145069047Y-114056009D01*
X145069047Y-114056009D02*
X145116666Y-114151247D01*
X145116666Y-114151247D02*
X145116666Y-114389342D01*
X145116666Y-114389342D02*
X145069047Y-114484580D01*
X145069047Y-114484580D02*
X145021428Y-114532200D01*
X145021428Y-114532200D02*
X144926190Y-114579819D01*
X144926190Y-114579819D02*
X144688095Y-114579819D01*
X144688095Y-114579819D02*
X144592857Y-114532200D01*
X144592857Y-114532200D02*
X144545238Y-114484580D01*
X73828333Y-138379819D02*
X73495000Y-137903628D01*
X73256905Y-138379819D02*
X73256905Y-137379819D01*
X73256905Y-137379819D02*
X73637857Y-137379819D01*
X73637857Y-137379819D02*
X73733095Y-137427438D01*
X73733095Y-137427438D02*
X73780714Y-137475057D01*
X73780714Y-137475057D02*
X73828333Y-137570295D01*
X73828333Y-137570295D02*
X73828333Y-137713152D01*
X73828333Y-137713152D02*
X73780714Y-137808390D01*
X73780714Y-137808390D02*
X73733095Y-137856009D01*
X73733095Y-137856009D02*
X73637857Y-137903628D01*
X73637857Y-137903628D02*
X73256905Y-137903628D01*
X74161667Y-137379819D02*
X74780714Y-137379819D01*
X74780714Y-137379819D02*
X74447381Y-137760771D01*
X74447381Y-137760771D02*
X74590238Y-137760771D01*
X74590238Y-137760771D02*
X74685476Y-137808390D01*
X74685476Y-137808390D02*
X74733095Y-137856009D01*
X74733095Y-137856009D02*
X74780714Y-137951247D01*
X74780714Y-137951247D02*
X74780714Y-138189342D01*
X74780714Y-138189342D02*
X74733095Y-138284580D01*
X74733095Y-138284580D02*
X74685476Y-138332200D01*
X74685476Y-138332200D02*
X74590238Y-138379819D01*
X74590238Y-138379819D02*
X74304524Y-138379819D01*
X74304524Y-138379819D02*
X74209286Y-138332200D01*
X74209286Y-138332200D02*
X74161667Y-138284580D01*
X71833333Y-104259580D02*
X71785714Y-104307200D01*
X71785714Y-104307200D02*
X71642857Y-104354819D01*
X71642857Y-104354819D02*
X71547619Y-104354819D01*
X71547619Y-104354819D02*
X71404762Y-104307200D01*
X71404762Y-104307200D02*
X71309524Y-104211961D01*
X71309524Y-104211961D02*
X71261905Y-104116723D01*
X71261905Y-104116723D02*
X71214286Y-103926247D01*
X71214286Y-103926247D02*
X71214286Y-103783390D01*
X71214286Y-103783390D02*
X71261905Y-103592914D01*
X71261905Y-103592914D02*
X71309524Y-103497676D01*
X71309524Y-103497676D02*
X71404762Y-103402438D01*
X71404762Y-103402438D02*
X71547619Y-103354819D01*
X71547619Y-103354819D02*
X71642857Y-103354819D01*
X71642857Y-103354819D02*
X71785714Y-103402438D01*
X71785714Y-103402438D02*
X71833333Y-103450057D01*
X72785714Y-104354819D02*
X72214286Y-104354819D01*
X72500000Y-104354819D02*
X72500000Y-103354819D01*
X72500000Y-103354819D02*
X72404762Y-103497676D01*
X72404762Y-103497676D02*
X72309524Y-103592914D01*
X72309524Y-103592914D02*
X72214286Y-103640533D01*
X74588809Y-96403628D02*
X74588809Y-96879819D01*
X74255476Y-95879819D02*
X74588809Y-96403628D01*
X74588809Y-96403628D02*
X74922142Y-95879819D01*
X75779285Y-96879819D02*
X75207857Y-96879819D01*
X75493571Y-96879819D02*
X75493571Y-95879819D01*
X75493571Y-95879819D02*
X75398333Y-96022676D01*
X75398333Y-96022676D02*
X75303095Y-96117914D01*
X75303095Y-96117914D02*
X75207857Y-96165533D01*
X87815476Y-93582319D02*
X87815476Y-92582319D01*
X87815476Y-92582319D02*
X88148809Y-93296604D01*
X88148809Y-93296604D02*
X88482142Y-92582319D01*
X88482142Y-92582319D02*
X88482142Y-93582319D01*
X88910714Y-92677557D02*
X88958333Y-92629938D01*
X88958333Y-92629938D02*
X89053571Y-92582319D01*
X89053571Y-92582319D02*
X89291666Y-92582319D01*
X89291666Y-92582319D02*
X89386904Y-92629938D01*
X89386904Y-92629938D02*
X89434523Y-92677557D01*
X89434523Y-92677557D02*
X89482142Y-92772795D01*
X89482142Y-92772795D02*
X89482142Y-92868033D01*
X89482142Y-92868033D02*
X89434523Y-93010890D01*
X89434523Y-93010890D02*
X88863095Y-93582319D01*
X88863095Y-93582319D02*
X89482142Y-93582319D01*
X152577319Y-135684523D02*
X151577319Y-135684523D01*
X151577319Y-135684523D02*
X152291604Y-135351190D01*
X152291604Y-135351190D02*
X151577319Y-135017857D01*
X151577319Y-135017857D02*
X152577319Y-135017857D01*
X151577319Y-134636904D02*
X151577319Y-134017857D01*
X151577319Y-134017857D02*
X151958271Y-134351190D01*
X151958271Y-134351190D02*
X151958271Y-134208333D01*
X151958271Y-134208333D02*
X152005890Y-134113095D01*
X152005890Y-134113095D02*
X152053509Y-134065476D01*
X152053509Y-134065476D02*
X152148747Y-134017857D01*
X152148747Y-134017857D02*
X152386842Y-134017857D01*
X152386842Y-134017857D02*
X152482080Y-134065476D01*
X152482080Y-134065476D02*
X152529700Y-134113095D01*
X152529700Y-134113095D02*
X152577319Y-134208333D01*
X152577319Y-134208333D02*
X152577319Y-134494047D01*
X152577319Y-134494047D02*
X152529700Y-134589285D01*
X152529700Y-134589285D02*
X152482080Y-134636904D01*
X73828333Y-134979819D02*
X73495000Y-134503628D01*
X73256905Y-134979819D02*
X73256905Y-133979819D01*
X73256905Y-133979819D02*
X73637857Y-133979819D01*
X73637857Y-133979819D02*
X73733095Y-134027438D01*
X73733095Y-134027438D02*
X73780714Y-134075057D01*
X73780714Y-134075057D02*
X73828333Y-134170295D01*
X73828333Y-134170295D02*
X73828333Y-134313152D01*
X73828333Y-134313152D02*
X73780714Y-134408390D01*
X73780714Y-134408390D02*
X73733095Y-134456009D01*
X73733095Y-134456009D02*
X73637857Y-134503628D01*
X73637857Y-134503628D02*
X73256905Y-134503628D01*
X74209286Y-134075057D02*
X74256905Y-134027438D01*
X74256905Y-134027438D02*
X74352143Y-133979819D01*
X74352143Y-133979819D02*
X74590238Y-133979819D01*
X74590238Y-133979819D02*
X74685476Y-134027438D01*
X74685476Y-134027438D02*
X74733095Y-134075057D01*
X74733095Y-134075057D02*
X74780714Y-134170295D01*
X74780714Y-134170295D02*
X74780714Y-134265533D01*
X74780714Y-134265533D02*
X74733095Y-134408390D01*
X74733095Y-134408390D02*
X74161667Y-134979819D01*
X74161667Y-134979819D02*
X74780714Y-134979819D01*
D10*
X126459273Y-140997180D02*
X126792606Y-141473371D01*
X127030701Y-140997180D02*
X127030701Y-141997180D01*
X127030701Y-141997180D02*
X126649749Y-141997180D01*
X126649749Y-141997180D02*
X126554511Y-141949561D01*
X126554511Y-141949561D02*
X126506892Y-141901942D01*
X126506892Y-141901942D02*
X126459273Y-141806704D01*
X126459273Y-141806704D02*
X126459273Y-141663847D01*
X126459273Y-141663847D02*
X126506892Y-141568609D01*
X126506892Y-141568609D02*
X126554511Y-141520990D01*
X126554511Y-141520990D02*
X126649749Y-141473371D01*
X126649749Y-141473371D02*
X127030701Y-141473371D01*
X126030701Y-141520990D02*
X125697368Y-141520990D01*
X125554511Y-140997180D02*
X126030701Y-140997180D01*
X126030701Y-140997180D02*
X126030701Y-141997180D01*
X126030701Y-141997180D02*
X125554511Y-141997180D01*
X124792606Y-141520990D02*
X125125939Y-141520990D01*
X125125939Y-140997180D02*
X125125939Y-141997180D01*
X125125939Y-141997180D02*
X124649749Y-141997180D01*
X124125939Y-141997180D02*
X124125939Y-141759085D01*
X124364034Y-141854323D02*
X124125939Y-141759085D01*
X124125939Y-141759085D02*
X123887844Y-141854323D01*
X124268796Y-141568609D02*
X124125939Y-141759085D01*
X124125939Y-141759085D02*
X123983082Y-141568609D01*
X123364034Y-141997180D02*
X123364034Y-141759085D01*
X123602129Y-141854323D02*
X123364034Y-141759085D01*
X123364034Y-141759085D02*
X123125939Y-141854323D01*
X123506891Y-141568609D02*
X123364034Y-141759085D01*
X123364034Y-141759085D02*
X123221177Y-141568609D01*
D11*
X63808333Y-134989819D02*
X63475000Y-134513628D01*
X63236905Y-134989819D02*
X63236905Y-133989819D01*
X63236905Y-133989819D02*
X63617857Y-133989819D01*
X63617857Y-133989819D02*
X63713095Y-134037438D01*
X63713095Y-134037438D02*
X63760714Y-134085057D01*
X63760714Y-134085057D02*
X63808333Y-134180295D01*
X63808333Y-134180295D02*
X63808333Y-134323152D01*
X63808333Y-134323152D02*
X63760714Y-134418390D01*
X63760714Y-134418390D02*
X63713095Y-134466009D01*
X63713095Y-134466009D02*
X63617857Y-134513628D01*
X63617857Y-134513628D02*
X63236905Y-134513628D01*
X64760714Y-134989819D02*
X64189286Y-134989819D01*
X64475000Y-134989819D02*
X64475000Y-133989819D01*
X64475000Y-133989819D02*
X64379762Y-134132676D01*
X64379762Y-134132676D02*
X64284524Y-134227914D01*
X64284524Y-134227914D02*
X64189286Y-134275533D01*
X75208333Y-108809580D02*
X75160714Y-108857200D01*
X75160714Y-108857200D02*
X75017857Y-108904819D01*
X75017857Y-108904819D02*
X74922619Y-108904819D01*
X74922619Y-108904819D02*
X74779762Y-108857200D01*
X74779762Y-108857200D02*
X74684524Y-108761961D01*
X74684524Y-108761961D02*
X74636905Y-108666723D01*
X74636905Y-108666723D02*
X74589286Y-108476247D01*
X74589286Y-108476247D02*
X74589286Y-108333390D01*
X74589286Y-108333390D02*
X74636905Y-108142914D01*
X74636905Y-108142914D02*
X74684524Y-108047676D01*
X74684524Y-108047676D02*
X74779762Y-107952438D01*
X74779762Y-107952438D02*
X74922619Y-107904819D01*
X74922619Y-107904819D02*
X75017857Y-107904819D01*
X75017857Y-107904819D02*
X75160714Y-107952438D01*
X75160714Y-107952438D02*
X75208333Y-108000057D01*
X75541667Y-107904819D02*
X76160714Y-107904819D01*
X76160714Y-107904819D02*
X75827381Y-108285771D01*
X75827381Y-108285771D02*
X75970238Y-108285771D01*
X75970238Y-108285771D02*
X76065476Y-108333390D01*
X76065476Y-108333390D02*
X76113095Y-108381009D01*
X76113095Y-108381009D02*
X76160714Y-108476247D01*
X76160714Y-108476247D02*
X76160714Y-108714342D01*
X76160714Y-108714342D02*
X76113095Y-108809580D01*
X76113095Y-108809580D02*
X76065476Y-108857200D01*
X76065476Y-108857200D02*
X75970238Y-108904819D01*
X75970238Y-108904819D02*
X75684524Y-108904819D01*
X75684524Y-108904819D02*
X75589286Y-108857200D01*
X75589286Y-108857200D02*
X75541667Y-108809580D01*
X73793333Y-142154819D02*
X73460000Y-141678628D01*
X73221905Y-142154819D02*
X73221905Y-141154819D01*
X73221905Y-141154819D02*
X73602857Y-141154819D01*
X73602857Y-141154819D02*
X73698095Y-141202438D01*
X73698095Y-141202438D02*
X73745714Y-141250057D01*
X73745714Y-141250057D02*
X73793333Y-141345295D01*
X73793333Y-141345295D02*
X73793333Y-141488152D01*
X73793333Y-141488152D02*
X73745714Y-141583390D01*
X73745714Y-141583390D02*
X73698095Y-141631009D01*
X73698095Y-141631009D02*
X73602857Y-141678628D01*
X73602857Y-141678628D02*
X73221905Y-141678628D01*
X74650476Y-141488152D02*
X74650476Y-142154819D01*
X74412381Y-141107200D02*
X74174286Y-141821485D01*
X74174286Y-141821485D02*
X74793333Y-141821485D01*
X76660476Y-155077319D02*
X76660476Y-154077319D01*
X76660476Y-154077319D02*
X76993809Y-154791604D01*
X76993809Y-154791604D02*
X77327142Y-154077319D01*
X77327142Y-154077319D02*
X77327142Y-155077319D01*
X78327142Y-155077319D02*
X77755714Y-155077319D01*
X78041428Y-155077319D02*
X78041428Y-154077319D01*
X78041428Y-154077319D02*
X77946190Y-154220176D01*
X77946190Y-154220176D02*
X77850952Y-154315414D01*
X77850952Y-154315414D02*
X77755714Y-154363033D01*
X63613333Y-142179819D02*
X63280000Y-141703628D01*
X63041905Y-142179819D02*
X63041905Y-141179819D01*
X63041905Y-141179819D02*
X63422857Y-141179819D01*
X63422857Y-141179819D02*
X63518095Y-141227438D01*
X63518095Y-141227438D02*
X63565714Y-141275057D01*
X63565714Y-141275057D02*
X63613333Y-141370295D01*
X63613333Y-141370295D02*
X63613333Y-141513152D01*
X63613333Y-141513152D02*
X63565714Y-141608390D01*
X63565714Y-141608390D02*
X63518095Y-141656009D01*
X63518095Y-141656009D02*
X63422857Y-141703628D01*
X63422857Y-141703628D02*
X63041905Y-141703628D01*
X64518095Y-141179819D02*
X64041905Y-141179819D01*
X64041905Y-141179819D02*
X63994286Y-141656009D01*
X63994286Y-141656009D02*
X64041905Y-141608390D01*
X64041905Y-141608390D02*
X64137143Y-141560771D01*
X64137143Y-141560771D02*
X64375238Y-141560771D01*
X64375238Y-141560771D02*
X64470476Y-141608390D01*
X64470476Y-141608390D02*
X64518095Y-141656009D01*
X64518095Y-141656009D02*
X64565714Y-141751247D01*
X64565714Y-141751247D02*
X64565714Y-141989342D01*
X64565714Y-141989342D02*
X64518095Y-142084580D01*
X64518095Y-142084580D02*
X64470476Y-142132200D01*
X64470476Y-142132200D02*
X64375238Y-142179819D01*
X64375238Y-142179819D02*
X64137143Y-142179819D01*
X64137143Y-142179819D02*
X64041905Y-142132200D01*
X64041905Y-142132200D02*
X63994286Y-142084580D01*
X80129819Y-122236904D02*
X80939342Y-122236904D01*
X80939342Y-122236904D02*
X81034580Y-122189285D01*
X81034580Y-122189285D02*
X81082200Y-122141666D01*
X81082200Y-122141666D02*
X81129819Y-122046428D01*
X81129819Y-122046428D02*
X81129819Y-121855952D01*
X81129819Y-121855952D02*
X81082200Y-121760714D01*
X81082200Y-121760714D02*
X81034580Y-121713095D01*
X81034580Y-121713095D02*
X80939342Y-121665476D01*
X80939342Y-121665476D02*
X80129819Y-121665476D01*
X81129819Y-120665476D02*
X81129819Y-121236904D01*
X81129819Y-120951190D02*
X80129819Y-120951190D01*
X80129819Y-120951190D02*
X80272676Y-121046428D01*
X80272676Y-121046428D02*
X80367914Y-121141666D01*
X80367914Y-121141666D02*
X80415533Y-121236904D01*
X78383333Y-104284580D02*
X78335714Y-104332200D01*
X78335714Y-104332200D02*
X78192857Y-104379819D01*
X78192857Y-104379819D02*
X78097619Y-104379819D01*
X78097619Y-104379819D02*
X77954762Y-104332200D01*
X77954762Y-104332200D02*
X77859524Y-104236961D01*
X77859524Y-104236961D02*
X77811905Y-104141723D01*
X77811905Y-104141723D02*
X77764286Y-103951247D01*
X77764286Y-103951247D02*
X77764286Y-103808390D01*
X77764286Y-103808390D02*
X77811905Y-103617914D01*
X77811905Y-103617914D02*
X77859524Y-103522676D01*
X77859524Y-103522676D02*
X77954762Y-103427438D01*
X77954762Y-103427438D02*
X78097619Y-103379819D01*
X78097619Y-103379819D02*
X78192857Y-103379819D01*
X78192857Y-103379819D02*
X78335714Y-103427438D01*
X78335714Y-103427438D02*
X78383333Y-103475057D01*
X78764286Y-103475057D02*
X78811905Y-103427438D01*
X78811905Y-103427438D02*
X78907143Y-103379819D01*
X78907143Y-103379819D02*
X79145238Y-103379819D01*
X79145238Y-103379819D02*
X79240476Y-103427438D01*
X79240476Y-103427438D02*
X79288095Y-103475057D01*
X79288095Y-103475057D02*
X79335714Y-103570295D01*
X79335714Y-103570295D02*
X79335714Y-103665533D01*
X79335714Y-103665533D02*
X79288095Y-103808390D01*
X79288095Y-103808390D02*
X78716667Y-104379819D01*
X78716667Y-104379819D02*
X79335714Y-104379819D01*
X113088095Y-102179819D02*
X113088095Y-102989342D01*
X113088095Y-102989342D02*
X113135714Y-103084580D01*
X113135714Y-103084580D02*
X113183333Y-103132200D01*
X113183333Y-103132200D02*
X113278571Y-103179819D01*
X113278571Y-103179819D02*
X113469047Y-103179819D01*
X113469047Y-103179819D02*
X113564285Y-103132200D01*
X113564285Y-103132200D02*
X113611904Y-103084580D01*
X113611904Y-103084580D02*
X113659523Y-102989342D01*
X113659523Y-102989342D02*
X113659523Y-102179819D01*
X114088095Y-102275057D02*
X114135714Y-102227438D01*
X114135714Y-102227438D02*
X114230952Y-102179819D01*
X114230952Y-102179819D02*
X114469047Y-102179819D01*
X114469047Y-102179819D02*
X114564285Y-102227438D01*
X114564285Y-102227438D02*
X114611904Y-102275057D01*
X114611904Y-102275057D02*
X114659523Y-102370295D01*
X114659523Y-102370295D02*
X114659523Y-102465533D01*
X114659523Y-102465533D02*
X114611904Y-102608390D01*
X114611904Y-102608390D02*
X114040476Y-103179819D01*
X114040476Y-103179819D02*
X114659523Y-103179819D01*
X107742464Y-97710688D02*
X107742464Y-95710688D01*
X107742464Y-96663069D02*
X108885321Y-96663069D01*
X108885321Y-97710688D02*
X108885321Y-95710688D01*
X110980559Y-97520211D02*
X110885321Y-97615450D01*
X110885321Y-97615450D02*
X110599607Y-97710688D01*
X110599607Y-97710688D02*
X110409131Y-97710688D01*
X110409131Y-97710688D02*
X110123416Y-97615450D01*
X110123416Y-97615450D02*
X109932940Y-97424973D01*
X109932940Y-97424973D02*
X109837702Y-97234497D01*
X109837702Y-97234497D02*
X109742464Y-96853545D01*
X109742464Y-96853545D02*
X109742464Y-96567830D01*
X109742464Y-96567830D02*
X109837702Y-96186878D01*
X109837702Y-96186878D02*
X109932940Y-95996402D01*
X109932940Y-95996402D02*
X110123416Y-95805926D01*
X110123416Y-95805926D02*
X110409131Y-95710688D01*
X110409131Y-95710688D02*
X110599607Y-95710688D01*
X110599607Y-95710688D02*
X110885321Y-95805926D01*
X110885321Y-95805926D02*
X110980559Y-95901164D01*
X111837702Y-96948783D02*
X113361512Y-96948783D01*
X114694844Y-95710688D02*
X114885321Y-95710688D01*
X114885321Y-95710688D02*
X115075797Y-95805926D01*
X115075797Y-95805926D02*
X115171035Y-95901164D01*
X115171035Y-95901164D02*
X115266273Y-96091640D01*
X115266273Y-96091640D02*
X115361511Y-96472592D01*
X115361511Y-96472592D02*
X115361511Y-96948783D01*
X115361511Y-96948783D02*
X115266273Y-97329735D01*
X115266273Y-97329735D02*
X115171035Y-97520211D01*
X115171035Y-97520211D02*
X115075797Y-97615450D01*
X115075797Y-97615450D02*
X114885321Y-97710688D01*
X114885321Y-97710688D02*
X114694844Y-97710688D01*
X114694844Y-97710688D02*
X114504368Y-97615450D01*
X114504368Y-97615450D02*
X114409130Y-97520211D01*
X114409130Y-97520211D02*
X114313892Y-97329735D01*
X114313892Y-97329735D02*
X114218654Y-96948783D01*
X114218654Y-96948783D02*
X114218654Y-96472592D01*
X114218654Y-96472592D02*
X114313892Y-96091640D01*
X114313892Y-96091640D02*
X114409130Y-95901164D01*
X114409130Y-95901164D02*
X114504368Y-95805926D01*
X114504368Y-95805926D02*
X114694844Y-95710688D01*
X117075797Y-95710688D02*
X116694844Y-95710688D01*
X116694844Y-95710688D02*
X116504368Y-95805926D01*
X116504368Y-95805926D02*
X116409130Y-95901164D01*
X116409130Y-95901164D02*
X116218654Y-96186878D01*
X116218654Y-96186878D02*
X116123416Y-96567830D01*
X116123416Y-96567830D02*
X116123416Y-97329735D01*
X116123416Y-97329735D02*
X116218654Y-97520211D01*
X116218654Y-97520211D02*
X116313892Y-97615450D01*
X116313892Y-97615450D02*
X116504368Y-97710688D01*
X116504368Y-97710688D02*
X116885321Y-97710688D01*
X116885321Y-97710688D02*
X117075797Y-97615450D01*
X117075797Y-97615450D02*
X117171035Y-97520211D01*
X117171035Y-97520211D02*
X117266273Y-97329735D01*
X117266273Y-97329735D02*
X117266273Y-96853545D01*
X117266273Y-96853545D02*
X117171035Y-96663069D01*
X117171035Y-96663069D02*
X117075797Y-96567830D01*
X117075797Y-96567830D02*
X116885321Y-96472592D01*
X116885321Y-96472592D02*
X116504368Y-96472592D01*
X116504368Y-96472592D02*
X116313892Y-96567830D01*
X116313892Y-96567830D02*
X116218654Y-96663069D01*
X116218654Y-96663069D02*
X116123416Y-96853545D01*
X114837702Y-99663069D02*
X115123416Y-99758307D01*
X115123416Y-99758307D02*
X115218654Y-99853545D01*
X115218654Y-99853545D02*
X115313892Y-100044021D01*
X115313892Y-100044021D02*
X115313892Y-100329735D01*
X115313892Y-100329735D02*
X115218654Y-100520211D01*
X115218654Y-100520211D02*
X115123416Y-100615450D01*
X115123416Y-100615450D02*
X114932940Y-100710688D01*
X114932940Y-100710688D02*
X114171035Y-100710688D01*
X114171035Y-100710688D02*
X114171035Y-98710688D01*
X114171035Y-98710688D02*
X114837702Y-98710688D01*
X114837702Y-98710688D02*
X115028178Y-98805926D01*
X115028178Y-98805926D02*
X115123416Y-98901164D01*
X115123416Y-98901164D02*
X115218654Y-99091640D01*
X115218654Y-99091640D02*
X115218654Y-99282116D01*
X115218654Y-99282116D02*
X115123416Y-99472592D01*
X115123416Y-99472592D02*
X115028178Y-99567830D01*
X115028178Y-99567830D02*
X114837702Y-99663069D01*
X114837702Y-99663069D02*
X114171035Y-99663069D01*
X115885321Y-98710688D02*
X117028178Y-98710688D01*
X116456749Y-100710688D02*
X116456749Y-98710688D01*
%TO.C,U5*%
D10*
X104525000Y-149550000D02*
X90775000Y-149550000D01*
X90775000Y-133300000D01*
X104525000Y-133300000D01*
X104525000Y-149550000D01*
D12*
%TO.C,R6*%
X58520000Y-110350000D02*
X58520000Y-103810000D01*
X58850000Y-110350000D02*
X58520000Y-110350000D01*
X60930000Y-110350000D02*
X61260000Y-110350000D01*
X61260000Y-110350000D02*
X61260000Y-103810000D01*
X58520000Y-103810000D02*
X58850000Y-103810000D01*
X61260000Y-103810000D02*
X60930000Y-103810000D01*
%TO.C,led1*%
X64105000Y-111290000D02*
X67195000Y-111290000D01*
X64105170Y-111290000D02*
G75*
G02*
X65650000Y-105740000I1544830J2560000D01*
G01*
X65650000Y-105740000D02*
G75*
G02*
X67194830Y-111290000I0J-2990000D01*
G01*
X68150000Y-108730000D02*
G75*
G02*
X63150000Y-108730000I-2500000J0D01*
G01*
X63150000Y-108730000D02*
G75*
G02*
X68150000Y-108730000I2500000J0D01*
G01*
%TO.C,U3*%
D10*
X114120000Y-147925000D02*
X137150000Y-147925000D01*
X137150000Y-129885000D01*
X114120000Y-129885000D01*
X114120000Y-147925000D01*
D12*
%TO.C,J5*%
X134912500Y-112265000D02*
X134912500Y-113265000D01*
X134912500Y-113265000D02*
X135412500Y-112765000D01*
X135412500Y-112765000D02*
X134912500Y-112265000D01*
X135612500Y-107905000D02*
X139362500Y-107905000D01*
X135612500Y-120125000D02*
X135612500Y-107905000D01*
X135612500Y-120125000D02*
X139362500Y-120125000D01*
X152232500Y-107905000D02*
X144262500Y-107905000D01*
X152232500Y-120125000D02*
X144262500Y-120125000D01*
X152232500Y-120125000D02*
X152232500Y-107905000D01*
%TO.C,R3*%
X70740000Y-136580000D02*
X77280000Y-136580000D01*
X70740000Y-136910000D02*
X70740000Y-136580000D01*
X70740000Y-138990000D02*
X70740000Y-139320000D01*
X70740000Y-139320000D02*
X77280000Y-139320000D01*
X77280000Y-136580000D02*
X77280000Y-136910000D01*
X77280000Y-139320000D02*
X77280000Y-138990000D01*
%TO.C,C1*%
X69505000Y-100330000D02*
X74745000Y-100330000D01*
X69505000Y-103070000D02*
X69505000Y-100330000D01*
X74745000Y-100330000D02*
X74745000Y-103070000D01*
X74745000Y-103070000D02*
X69505000Y-103070000D01*
%TO.C,Y1*%
X78125000Y-98935000D02*
X71875000Y-98935000D01*
X71875000Y-94065000D02*
X78125000Y-94065000D01*
X78125000Y-94065000D02*
G75*
G02*
X78125000Y-98935000I0J-2435000D01*
G01*
X71875000Y-98935000D02*
G75*
G02*
X71875000Y-94065000I0J2435000D01*
G01*
%TO.C,M2*%
X83505000Y-94127500D02*
X93745000Y-94127500D01*
X83505000Y-96247500D02*
X93745000Y-96247500D01*
X83505000Y-100547500D02*
X93745000Y-100547500D01*
X83505000Y-102047500D02*
X93745000Y-102047500D01*
X83505000Y-102667500D02*
X83505000Y-94127500D01*
X85125000Y-94247500D02*
X87125000Y-94247500D01*
X85125000Y-95247500D02*
X85125000Y-94247500D01*
X85825000Y-102667500D02*
X83505000Y-102667500D01*
X87125000Y-94247500D02*
X87125000Y-95247500D01*
X87125000Y-95247500D02*
X85125000Y-95247500D01*
X90125000Y-94247500D02*
X92125000Y-94247500D01*
X90125000Y-95247500D02*
X90125000Y-94247500D01*
X92125000Y-94247500D02*
X92125000Y-95247500D01*
X92125000Y-95247500D02*
X90125000Y-95247500D01*
X93745000Y-94127500D02*
X93745000Y-102667500D01*
X93745000Y-102667500D02*
X86425000Y-102667500D01*
X86565000Y-103277500D02*
X85685000Y-103277500D01*
X86125000Y-102667500D01*
X86565000Y-103277500D01*
G36*
X86565000Y-103277500D02*
G01*
X85685000Y-103277500D01*
X86125000Y-102667500D01*
X86565000Y-103277500D01*
G37*
%TO.C,M3*%
X151122500Y-129755000D02*
X151122500Y-139995000D01*
X149002500Y-129755000D02*
X149002500Y-139995000D01*
X144702500Y-129755000D02*
X144702500Y-139995000D01*
X143202500Y-129755000D02*
X143202500Y-139995000D01*
X142582500Y-129755000D02*
X151122500Y-129755000D01*
X151002500Y-131375000D02*
X151002500Y-133375000D01*
X150002500Y-131375000D02*
X151002500Y-131375000D01*
X142582500Y-132075000D02*
X142582500Y-129755000D01*
X151002500Y-133375000D02*
X150002500Y-133375000D01*
X150002500Y-133375000D02*
X150002500Y-131375000D01*
X151002500Y-136375000D02*
X151002500Y-138375000D01*
X150002500Y-136375000D02*
X151002500Y-136375000D01*
X151002500Y-138375000D02*
X150002500Y-138375000D01*
X150002500Y-138375000D02*
X150002500Y-136375000D01*
X151122500Y-139995000D02*
X142582500Y-139995000D01*
X142582500Y-139995000D02*
X142582500Y-132675000D01*
X142582500Y-132375000D02*
X141972500Y-132815000D01*
X141972500Y-131935000D01*
X142582500Y-132375000D01*
G36*
X142582500Y-132375000D02*
G01*
X141972500Y-132815000D01*
X141972500Y-131935000D01*
X142582500Y-132375000D01*
G37*
%TO.C,R2*%
X77280000Y-135945000D02*
X70740000Y-135945000D01*
X77280000Y-135615000D02*
X77280000Y-135945000D01*
X77280000Y-133535000D02*
X77280000Y-133205000D01*
X77280000Y-133205000D02*
X70740000Y-133205000D01*
X70740000Y-135945000D02*
X70740000Y-135615000D01*
X70740000Y-133205000D02*
X70740000Y-133535000D01*
%TO.C,R1*%
X67220000Y-135845000D02*
X60680000Y-135845000D01*
X67220000Y-135515000D02*
X67220000Y-135845000D01*
X67220000Y-133435000D02*
X67220000Y-133105000D01*
X67220000Y-133105000D02*
X60680000Y-133105000D01*
X60680000Y-135845000D02*
X60680000Y-135515000D01*
X60680000Y-133105000D02*
X60680000Y-133435000D01*
%TO.C,C3*%
X79095000Y-109820000D02*
X71655000Y-109820000D01*
X79095000Y-107080000D02*
X79095000Y-109820000D01*
X71655000Y-109820000D02*
X71655000Y-107080000D01*
X71655000Y-107080000D02*
X79095000Y-107080000D01*
%TO.C,R4*%
X77230000Y-143020000D02*
X70690000Y-143020000D01*
X77230000Y-142690000D02*
X77230000Y-143020000D01*
X77230000Y-140610000D02*
X77230000Y-140280000D01*
X77230000Y-140280000D02*
X70690000Y-140280000D01*
X70690000Y-143020000D02*
X70690000Y-142690000D01*
X70690000Y-140280000D02*
X70690000Y-140610000D01*
%TO.C,M1*%
X82590000Y-153622500D02*
X72350000Y-153622500D01*
X82590000Y-151502500D02*
X72350000Y-151502500D01*
X82590000Y-147202500D02*
X72350000Y-147202500D01*
X82590000Y-145702500D02*
X72350000Y-145702500D01*
X82590000Y-145082500D02*
X82590000Y-153622500D01*
X80970000Y-153502500D02*
X78970000Y-153502500D01*
X80970000Y-152502500D02*
X80970000Y-153502500D01*
X80270000Y-145082500D02*
X82590000Y-145082500D01*
X78970000Y-153502500D02*
X78970000Y-152502500D01*
X78970000Y-152502500D02*
X80970000Y-152502500D01*
X75970000Y-153502500D02*
X73970000Y-153502500D01*
X75970000Y-152502500D02*
X75970000Y-153502500D01*
X73970000Y-153502500D02*
X73970000Y-152502500D01*
X73970000Y-152502500D02*
X75970000Y-152502500D01*
X72350000Y-153622500D02*
X72350000Y-145082500D01*
X72350000Y-145082500D02*
X79670000Y-145082500D01*
X79970000Y-145082500D02*
X79530000Y-144472500D01*
X80410000Y-144472500D01*
X79970000Y-145082500D01*
G36*
X79970000Y-145082500D02*
G01*
X79530000Y-144472500D01*
X80410000Y-144472500D01*
X79970000Y-145082500D01*
G37*
%TO.C,R5*%
X60445000Y-140305000D02*
X60445000Y-140635000D01*
X60445000Y-143045000D02*
X60445000Y-142715000D01*
X66985000Y-140305000D02*
X60445000Y-140305000D01*
X66985000Y-140635000D02*
X66985000Y-140305000D01*
X66985000Y-142715000D02*
X66985000Y-143045000D01*
X66985000Y-143045000D02*
X60445000Y-143045000D01*
%TO.C,U1*%
X97390000Y-113410000D02*
X99930000Y-113410000D01*
X109320000Y-114440000D02*
X107460000Y-114440000D01*
X102560000Y-114440000D02*
X58620000Y-114440000D01*
X58620000Y-114440000D02*
X58620000Y-129340000D01*
X109320000Y-116710000D02*
X107060000Y-116710000D01*
X109320000Y-129340000D02*
X109320000Y-114440000D01*
X58620000Y-129340000D02*
X109320000Y-129340000D01*
X105910000Y-115160000D02*
G75*
G02*
X104110000Y-115160000I-900000J0D01*
G01*
X104110000Y-115160000D02*
G75*
G02*
X105910000Y-115160000I900000J0D01*
G01*
X107560000Y-115160000D02*
G75*
G02*
X102460000Y-115160000I-2550000J0D01*
G01*
X102460000Y-115160000D02*
G75*
G02*
X107560000Y-115160000I2550000J0D01*
G01*
%TO.C,C2*%
X81145000Y-103070000D02*
X75905000Y-103070000D01*
X81145000Y-100330000D02*
X81145000Y-103070000D01*
X75905000Y-103070000D02*
X75905000Y-100330000D01*
X75905000Y-100330000D02*
X81145000Y-100330000D01*
D13*
%TO.C,U2*%
X133456750Y-109793250D02*
X96456750Y-109793250D01*
X133456750Y-93793250D02*
X133456750Y-109793250D01*
X96456750Y-109793250D02*
X96456750Y-93793250D01*
X96456750Y-93793250D02*
X133456750Y-93793250D01*
%TD*%
M02*
